%FSLAX45Y45*%
G04 Gerber Fmt 4.5, Leading zero omitted, Abs format (unit mm)*
G04 Created by KiCad (PCBNEW (5.1.10)-1) date 2022-08-09 17:00:10*
%MOMM*%
%LPD*%
G01*
G04 APERTURE LIST*
%TA.AperFunction,Profile*%
%ADD10C,0.050000*%
%TD*%
%ADD11C,0.200000*%
%ADD12C,0.300000*%
G04 APERTURE END LIST*
D10*
X12852400Y-9652000D02*
X9671400Y-9651780D01*
X12852400Y-11430000D02*
X12852400Y-9652000D01*
X13589000Y-11430000D02*
X12852400Y-11430000D01*
X13589000Y-16916400D02*
X13589000Y-11430000D01*
X8921400Y-9651780D02*
X8661400Y-9652000D01*
X8661400Y-9652000D02*
X8661400Y-15621000D01*
X8661400Y-16916400D02*
X13589000Y-16916400D01*
X8661400Y-15875000D02*
X8661400Y-16916400D01*
X8661400Y-15621000D02*
G75*
G02*
X8661400Y-15875000I0J-127000D01*
G01*
D11*
X8844600Y-13873800D02*
X8884600Y-13913800D01*
X8884600Y-13873800D02*
X8844600Y-13913800D01*
X8870000Y-14534200D02*
X8910000Y-14574200D01*
X8910000Y-14534200D02*
X8870000Y-14574200D01*
X8895400Y-12172000D02*
X8935400Y-12212000D01*
X8935400Y-12172000D02*
X8895400Y-12212000D01*
X9057800Y-11247600D02*
X9097800Y-11287600D01*
X9097800Y-11247600D02*
X9057800Y-11287600D01*
X9403400Y-14915200D02*
X9443400Y-14955200D01*
X9443400Y-14915200D02*
X9403400Y-14955200D01*
X9606600Y-13899200D02*
X9646600Y-13939200D01*
X9646600Y-13899200D02*
X9606600Y-13939200D01*
X9657400Y-14559600D02*
X9697400Y-14599600D01*
X9697400Y-14559600D02*
X9657400Y-14599600D01*
X9708200Y-10343200D02*
X9748200Y-10383200D01*
X9748200Y-10343200D02*
X9708200Y-10383200D01*
X9784400Y-11791000D02*
X9824400Y-11831000D01*
X9824400Y-11791000D02*
X9784400Y-11831000D01*
X9962200Y-10571800D02*
X10002200Y-10611800D01*
X10002200Y-10571800D02*
X9962200Y-10611800D01*
X10165400Y-14915200D02*
X10205400Y-14955200D01*
X10205400Y-14915200D02*
X10165400Y-14955200D01*
X10359400Y-12629200D02*
X10399400Y-12669200D01*
X10399400Y-12629200D02*
X10359400Y-12669200D01*
X11166800Y-13518200D02*
X11206800Y-13558200D01*
X11206800Y-13518200D02*
X11166800Y-13558200D01*
X11968800Y-13518200D02*
X12008800Y-13558200D01*
X12008800Y-13518200D02*
X11968800Y-13558200D01*
X12273600Y-15880400D02*
X12313600Y-15920400D01*
X12313600Y-15880400D02*
X12273600Y-15920400D01*
X12705400Y-13823000D02*
X12745400Y-13863000D01*
X12745400Y-13823000D02*
X12705400Y-13863000D01*
X12705400Y-15753400D02*
X12745400Y-15793400D01*
X12745400Y-15753400D02*
X12705400Y-15793400D01*
X12908600Y-14178600D02*
X12948600Y-14218600D01*
X12948600Y-14178600D02*
X12908600Y-14218600D01*
X12984800Y-13264200D02*
X13024800Y-13304200D01*
X13024800Y-13264200D02*
X12984800Y-13304200D01*
X13035600Y-14839000D02*
X13075600Y-14879000D01*
X13075600Y-14839000D02*
X13035600Y-14879000D01*
X13137600Y-15778800D02*
X13177600Y-15818800D01*
X13177600Y-15778800D02*
X13137600Y-15818800D01*
X13242597Y-16138197D02*
X13282597Y-16178197D01*
X13282597Y-16138197D02*
X13242597Y-16178197D01*
X13340400Y-12959400D02*
X13380400Y-12999400D01*
X13380400Y-12959400D02*
X13340400Y-12999400D01*
X13442000Y-14127800D02*
X13482000Y-14167800D01*
X13482000Y-14127800D02*
X13442000Y-14167800D01*
X13462499Y-14889800D02*
X13502499Y-14929800D01*
X13502499Y-14889800D02*
X13462499Y-14929800D01*
X8818400Y-16103600D02*
G75*
G03*
X8818400Y-16103600I-30000J0D01*
G01*
X8908900Y-9796780D02*
G75*
G03*
X8908900Y-9796780I-30000J0D01*
G01*
X8898900Y-9831780D02*
X8898900Y-9761780D01*
X8858900Y-9831780D02*
X8858900Y-9761780D01*
X8898900Y-9761780D02*
G75*
G03*
X8858900Y-9761780I-20000J0D01*
G01*
X8858900Y-9831780D02*
G75*
G03*
X8898900Y-9831780I20000J0D01*
G01*
X9580400Y-15290800D02*
G75*
G03*
X9580400Y-15290800I-30000J0D01*
G01*
X9743900Y-9796780D02*
G75*
G03*
X9743900Y-9796780I-30000J0D01*
G01*
X9733900Y-9831780D02*
X9733900Y-9761780D01*
X9693900Y-9831780D02*
X9693900Y-9761780D01*
X9733900Y-9761780D02*
G75*
G03*
X9693900Y-9761780I-20000J0D01*
G01*
X9693900Y-9831780D02*
G75*
G03*
X9733900Y-9831780I20000J0D01*
G01*
X12399800Y-15189200D02*
G75*
G03*
X12399800Y-15189200I-30000J0D01*
G01*
X12857000Y-12801600D02*
G75*
G03*
X12857000Y-12801600I-30000J0D01*
G01*
X13466600Y-16052800D02*
G75*
G03*
X13466600Y-16052800I-30000J0D01*
G01*
X9073900Y-10064280D02*
X9073900Y-10129280D01*
X9041400Y-10096780D02*
X9106400Y-10096780D01*
X9096400Y-10106780D02*
X9096400Y-10086780D01*
X9051400Y-10106780D02*
X9051400Y-10086780D01*
X9096400Y-10086780D02*
G75*
G03*
X9051400Y-10086780I-22500J0D01*
G01*
X9051400Y-10106780D02*
G75*
G03*
X9096400Y-10106780I22500J0D01*
G01*
X9518900Y-10064280D02*
X9518900Y-10129280D01*
X9486400Y-10096780D02*
X9551400Y-10096780D01*
X9541400Y-10106780D02*
X9541400Y-10086780D01*
X9496400Y-10106780D02*
X9496400Y-10086780D01*
X9541400Y-10086780D02*
G75*
G03*
X9496400Y-10086780I-22500J0D01*
G01*
X9496400Y-10106780D02*
G75*
G03*
X9541400Y-10106780I22500J0D01*
G01*
X10542541Y-11914141D02*
X10542541Y-11860259D01*
X10488659Y-11860259D01*
X10488659Y-11914141D01*
X10542541Y-11914141D01*
X10542541Y-12168141D02*
X10542541Y-12114259D01*
X10488659Y-12114259D01*
X10488659Y-12168141D01*
X10542541Y-12168141D01*
X10542541Y-12422141D02*
X10542541Y-12368259D01*
X10488659Y-12368259D01*
X10488659Y-12422141D01*
X10542541Y-12422141D01*
X10542541Y-12676141D02*
X10542541Y-12622259D01*
X10488659Y-12622259D01*
X10488659Y-12676141D01*
X10542541Y-12676141D01*
X10542541Y-12930141D02*
X10542541Y-12876259D01*
X10488659Y-12876259D01*
X10488659Y-12930141D01*
X10542541Y-12930141D01*
X10542541Y-13184141D02*
X10542541Y-13130259D01*
X10488659Y-13130259D01*
X10488659Y-13184141D01*
X10542541Y-13184141D01*
X10542541Y-13438141D02*
X10542541Y-13384259D01*
X10488659Y-13384259D01*
X10488659Y-13438141D01*
X10542541Y-13438141D01*
X10542541Y-13692141D02*
X10542541Y-13638259D01*
X10488659Y-13638259D01*
X10488659Y-13692141D01*
X10542541Y-13692141D01*
X10542541Y-13946141D02*
X10542541Y-13892259D01*
X10488659Y-13892259D01*
X10488659Y-13946141D01*
X10542541Y-13946141D01*
X10542541Y-14200141D02*
X10542541Y-14146259D01*
X10488659Y-14146259D01*
X10488659Y-14200141D01*
X10542541Y-14200141D01*
X10542541Y-14454141D02*
X10542541Y-14400259D01*
X10488659Y-14400259D01*
X10488659Y-14454141D01*
X10542541Y-14454141D01*
X10542541Y-14708141D02*
X10542541Y-14654259D01*
X10488659Y-14654259D01*
X10488659Y-14708141D01*
X10542541Y-14708141D01*
X10542541Y-14962141D02*
X10542541Y-14908259D01*
X10488659Y-14908259D01*
X10488659Y-14962141D01*
X10542541Y-14962141D01*
X10542541Y-15216141D02*
X10542541Y-15162259D01*
X10488659Y-15162259D01*
X10488659Y-15216141D01*
X10542541Y-15216141D01*
X10796541Y-11914141D02*
X10796541Y-11860259D01*
X10742659Y-11860259D01*
X10742659Y-11914141D01*
X10796541Y-11914141D01*
X10796541Y-12168141D02*
X10796541Y-12114259D01*
X10742659Y-12114259D01*
X10742659Y-12168141D01*
X10796541Y-12168141D01*
X10796541Y-12422141D02*
X10796541Y-12368259D01*
X10742659Y-12368259D01*
X10742659Y-12422141D01*
X10796541Y-12422141D01*
X10923541Y-15470141D02*
X10923541Y-15416259D01*
X10869659Y-15416259D01*
X10869659Y-15470141D01*
X10923541Y-15470141D01*
X10923541Y-15724141D02*
X10923541Y-15670259D01*
X10869659Y-15670259D01*
X10869659Y-15724141D01*
X10923541Y-15724141D01*
X11177541Y-15470141D02*
X11177541Y-15416259D01*
X11123659Y-15416259D01*
X11123659Y-15470141D01*
X11177541Y-15470141D01*
X11177541Y-15724141D02*
X11177541Y-15670259D01*
X11123659Y-15670259D01*
X11123659Y-15724141D01*
X11177541Y-15724141D01*
X11431541Y-15470141D02*
X11431541Y-15416259D01*
X11377659Y-15416259D01*
X11377659Y-15470141D01*
X11431541Y-15470141D01*
X11431541Y-15724141D02*
X11431541Y-15670259D01*
X11377659Y-15670259D01*
X11377659Y-15724141D01*
X11431541Y-15724141D01*
X11685541Y-15470141D02*
X11685541Y-15416259D01*
X11631659Y-15416259D01*
X11631659Y-15470141D01*
X11685541Y-15470141D01*
X11685541Y-15724141D02*
X11685541Y-15670259D01*
X11631659Y-15670259D01*
X11631659Y-15724141D01*
X11685541Y-15724141D01*
X11939541Y-15470141D02*
X11939541Y-15416259D01*
X11885659Y-15416259D01*
X11885659Y-15470141D01*
X11939541Y-15470141D01*
X11939541Y-15724141D02*
X11939541Y-15670259D01*
X11885659Y-15670259D01*
X11885659Y-15724141D01*
X11939541Y-15724141D01*
X12193541Y-15470141D02*
X12193541Y-15416259D01*
X12139659Y-15416259D01*
X12139659Y-15470141D01*
X12193541Y-15470141D01*
X12193541Y-15724141D02*
X12193541Y-15670259D01*
X12139659Y-15670259D01*
X12139659Y-15724141D01*
X12193541Y-15724141D01*
X12320541Y-11914141D02*
X12320541Y-11860259D01*
X12266659Y-11860259D01*
X12266659Y-11914141D01*
X12320541Y-11914141D01*
X12320541Y-12168141D02*
X12320541Y-12114259D01*
X12266659Y-12114259D01*
X12266659Y-12168141D01*
X12320541Y-12168141D01*
X12320541Y-12422141D02*
X12320541Y-12368259D01*
X12266659Y-12368259D01*
X12266659Y-12422141D01*
X12320541Y-12422141D01*
X12320541Y-12676141D02*
X12320541Y-12622259D01*
X12266659Y-12622259D01*
X12266659Y-12676141D01*
X12320541Y-12676141D01*
X12320541Y-12930141D02*
X12320541Y-12876259D01*
X12266659Y-12876259D01*
X12266659Y-12930141D01*
X12320541Y-12930141D01*
X12320541Y-13184141D02*
X12320541Y-13130259D01*
X12266659Y-13130259D01*
X12266659Y-13184141D01*
X12320541Y-13184141D01*
X12574541Y-11914141D02*
X12574541Y-11860259D01*
X12520659Y-11860259D01*
X12520659Y-11914141D01*
X12574541Y-11914141D01*
X12574541Y-12168141D02*
X12574541Y-12114259D01*
X12520659Y-12114259D01*
X12520659Y-12168141D01*
X12574541Y-12168141D01*
X12574541Y-12422141D02*
X12574541Y-12368259D01*
X12520659Y-12368259D01*
X12520659Y-12422141D01*
X12574541Y-12422141D01*
X12574541Y-12676141D02*
X12574541Y-12622259D01*
X12520659Y-12622259D01*
X12520659Y-12676141D01*
X12574541Y-12676141D01*
X12574541Y-12930141D02*
X12574541Y-12876259D01*
X12520659Y-12876259D01*
X12520659Y-12930141D01*
X12574541Y-12930141D01*
X12574541Y-13184141D02*
X12574541Y-13130259D01*
X12520659Y-13130259D01*
X12520659Y-13184141D01*
X12574541Y-13184141D01*
X12574541Y-13438141D02*
X12574541Y-13384259D01*
X12520659Y-13384259D01*
X12520659Y-13438141D01*
X12574541Y-13438141D01*
X12574541Y-13692141D02*
X12574541Y-13638259D01*
X12520659Y-13638259D01*
X12520659Y-13692141D01*
X12574541Y-13692141D01*
X12574541Y-13946141D02*
X12574541Y-13892259D01*
X12520659Y-13892259D01*
X12520659Y-13946141D01*
X12574541Y-13946141D01*
X12574541Y-14200141D02*
X12574541Y-14146259D01*
X12520659Y-14146259D01*
X12520659Y-14200141D01*
X12574541Y-14200141D01*
X12574541Y-14454141D02*
X12574541Y-14400259D01*
X12520659Y-14400259D01*
X12520659Y-14454141D01*
X12574541Y-14454141D01*
X12574541Y-14708141D02*
X12574541Y-14654259D01*
X12520659Y-14654259D01*
X12520659Y-14708141D01*
X12574541Y-14708141D01*
X12574541Y-14962141D02*
X12574541Y-14908259D01*
X12520659Y-14908259D01*
X12520659Y-14962141D01*
X12574541Y-14962141D01*
X12574541Y-15216141D02*
X12574541Y-15162259D01*
X12520659Y-15162259D01*
X12520659Y-15216141D01*
X12574541Y-15216141D01*
D12*
X8945328Y-17384614D02*
X8945328Y-17084614D01*
X9016757Y-17084614D01*
X9059614Y-17098900D01*
X9088186Y-17127472D01*
X9102471Y-17156043D01*
X9116757Y-17213186D01*
X9116757Y-17256043D01*
X9102471Y-17313186D01*
X9088186Y-17341757D01*
X9059614Y-17370329D01*
X9016757Y-17384614D01*
X8945328Y-17384614D01*
X9245328Y-17384614D02*
X9245328Y-17184614D01*
X9245328Y-17241757D02*
X9259614Y-17213186D01*
X9273900Y-17198900D01*
X9302471Y-17184614D01*
X9331043Y-17184614D01*
X9431043Y-17384614D02*
X9431043Y-17184614D01*
X9431043Y-17084614D02*
X9416757Y-17098900D01*
X9431043Y-17113186D01*
X9445328Y-17098900D01*
X9431043Y-17084614D01*
X9431043Y-17113186D01*
X9616757Y-17384614D02*
X9588186Y-17370329D01*
X9573900Y-17341757D01*
X9573900Y-17084614D01*
X9773900Y-17384614D02*
X9745328Y-17370329D01*
X9731043Y-17341757D01*
X9731043Y-17084614D01*
X10116757Y-17384614D02*
X10116757Y-17084614D01*
X10216757Y-17298900D01*
X10316757Y-17084614D01*
X10316757Y-17384614D01*
X10588186Y-17384614D02*
X10588186Y-17227472D01*
X10573900Y-17198900D01*
X10545328Y-17184614D01*
X10488186Y-17184614D01*
X10459614Y-17198900D01*
X10588186Y-17370329D02*
X10559614Y-17384614D01*
X10488186Y-17384614D01*
X10459614Y-17370329D01*
X10445328Y-17341757D01*
X10445328Y-17313186D01*
X10459614Y-17284614D01*
X10488186Y-17270329D01*
X10559614Y-17270329D01*
X10588186Y-17256043D01*
X10731043Y-17184614D02*
X10731043Y-17484614D01*
X10731043Y-17198900D02*
X10759614Y-17184614D01*
X10816757Y-17184614D01*
X10845328Y-17198900D01*
X10859614Y-17213186D01*
X10873900Y-17241757D01*
X10873900Y-17327472D01*
X10859614Y-17356043D01*
X10845328Y-17370329D01*
X10816757Y-17384614D01*
X10759614Y-17384614D01*
X10731043Y-17370329D01*
X11002471Y-17356043D02*
X11016757Y-17370329D01*
X11002471Y-17384614D01*
X10988186Y-17370329D01*
X11002471Y-17356043D01*
X11002471Y-17384614D01*
X11002471Y-17198900D02*
X11016757Y-17213186D01*
X11002471Y-17227472D01*
X10988186Y-17213186D01*
X11002471Y-17198900D01*
X11002471Y-17227472D01*
X8618900Y-17858900D02*
X8658900Y-17898900D01*
X8658900Y-17858900D02*
X8618900Y-17898900D01*
X9002471Y-17714614D02*
X9031043Y-17714614D01*
X9059614Y-17728900D01*
X9073900Y-17743186D01*
X9088186Y-17771757D01*
X9102471Y-17828900D01*
X9102471Y-17900329D01*
X9088186Y-17957472D01*
X9073900Y-17986043D01*
X9059614Y-18000329D01*
X9031043Y-18014614D01*
X9002471Y-18014614D01*
X8973900Y-18000329D01*
X8959614Y-17986043D01*
X8945328Y-17957472D01*
X8931043Y-17900329D01*
X8931043Y-17828900D01*
X8945328Y-17771757D01*
X8959614Y-17743186D01*
X8973900Y-17728900D01*
X9002471Y-17714614D01*
X9231043Y-17986043D02*
X9245328Y-18000329D01*
X9231043Y-18014614D01*
X9216757Y-18000329D01*
X9231043Y-17986043D01*
X9231043Y-18014614D01*
X9502471Y-17814614D02*
X9502471Y-18014614D01*
X9431043Y-17700329D02*
X9359614Y-17914614D01*
X9545328Y-17914614D01*
X9716757Y-17714614D02*
X9745328Y-17714614D01*
X9773900Y-17728900D01*
X9788186Y-17743186D01*
X9802471Y-17771757D01*
X9816757Y-17828900D01*
X9816757Y-17900329D01*
X9802471Y-17957472D01*
X9788186Y-17986043D01*
X9773900Y-18000329D01*
X9745328Y-18014614D01*
X9716757Y-18014614D01*
X9688186Y-18000329D01*
X9673900Y-17986043D01*
X9659614Y-17957472D01*
X9645328Y-17900329D01*
X9645328Y-17828900D01*
X9659614Y-17771757D01*
X9673900Y-17743186D01*
X9688186Y-17728900D01*
X9716757Y-17714614D01*
X10002471Y-17714614D02*
X10031043Y-17714614D01*
X10059614Y-17728900D01*
X10073900Y-17743186D01*
X10088186Y-17771757D01*
X10102471Y-17828900D01*
X10102471Y-17900329D01*
X10088186Y-17957472D01*
X10073900Y-17986043D01*
X10059614Y-18000329D01*
X10031043Y-18014614D01*
X10002471Y-18014614D01*
X9973900Y-18000329D01*
X9959614Y-17986043D01*
X9945328Y-17957472D01*
X9931043Y-17900329D01*
X9931043Y-17828900D01*
X9945328Y-17771757D01*
X9959614Y-17743186D01*
X9973900Y-17728900D01*
X10002471Y-17714614D01*
X10231043Y-18014614D02*
X10231043Y-17814614D01*
X10231043Y-17843186D02*
X10245328Y-17828900D01*
X10273900Y-17814614D01*
X10316757Y-17814614D01*
X10345328Y-17828900D01*
X10359614Y-17857472D01*
X10359614Y-18014614D01*
X10359614Y-17857472D02*
X10373900Y-17828900D01*
X10402471Y-17814614D01*
X10445328Y-17814614D01*
X10473900Y-17828900D01*
X10488186Y-17857472D01*
X10488186Y-18014614D01*
X10631043Y-18014614D02*
X10631043Y-17814614D01*
X10631043Y-17843186D02*
X10645328Y-17828900D01*
X10673900Y-17814614D01*
X10716757Y-17814614D01*
X10745328Y-17828900D01*
X10759614Y-17857472D01*
X10759614Y-18014614D01*
X10759614Y-17857472D02*
X10773900Y-17828900D01*
X10802471Y-17814614D01*
X10845328Y-17814614D01*
X10873900Y-17828900D01*
X10888186Y-17857472D01*
X10888186Y-18014614D01*
X11473900Y-17700329D02*
X11216757Y-18086043D01*
X11859614Y-17714614D02*
X11888186Y-17714614D01*
X11916757Y-17728900D01*
X11931043Y-17743186D01*
X11945328Y-17771757D01*
X11959614Y-17828900D01*
X11959614Y-17900329D01*
X11945328Y-17957472D01*
X11931043Y-17986043D01*
X11916757Y-18000329D01*
X11888186Y-18014614D01*
X11859614Y-18014614D01*
X11831043Y-18000329D01*
X11816757Y-17986043D01*
X11802471Y-17957472D01*
X11788186Y-17900329D01*
X11788186Y-17828900D01*
X11802471Y-17771757D01*
X11816757Y-17743186D01*
X11831043Y-17728900D01*
X11859614Y-17714614D01*
X12088186Y-17986043D02*
X12102471Y-18000329D01*
X12088186Y-18014614D01*
X12073900Y-18000329D01*
X12088186Y-17986043D01*
X12088186Y-18014614D01*
X12288186Y-17714614D02*
X12316757Y-17714614D01*
X12345328Y-17728900D01*
X12359614Y-17743186D01*
X12373900Y-17771757D01*
X12388186Y-17828900D01*
X12388186Y-17900329D01*
X12373900Y-17957472D01*
X12359614Y-17986043D01*
X12345328Y-18000329D01*
X12316757Y-18014614D01*
X12288186Y-18014614D01*
X12259614Y-18000329D01*
X12245328Y-17986043D01*
X12231043Y-17957472D01*
X12216757Y-17900329D01*
X12216757Y-17828900D01*
X12231043Y-17771757D01*
X12245328Y-17743186D01*
X12259614Y-17728900D01*
X12288186Y-17714614D01*
X12673900Y-18014614D02*
X12502471Y-18014614D01*
X12588186Y-18014614D02*
X12588186Y-17714614D01*
X12559614Y-17757472D01*
X12531043Y-17786043D01*
X12502471Y-17800329D01*
X12945328Y-17714614D02*
X12802471Y-17714614D01*
X12788186Y-17857472D01*
X12802471Y-17843186D01*
X12831043Y-17828900D01*
X12902471Y-17828900D01*
X12931043Y-17843186D01*
X12945328Y-17857472D01*
X12959614Y-17886043D01*
X12959614Y-17957472D01*
X12945328Y-17986043D01*
X12931043Y-18000329D01*
X12902471Y-18014614D01*
X12831043Y-18014614D01*
X12802471Y-18000329D01*
X12788186Y-17986043D01*
X13059614Y-17714614D02*
X13259614Y-17714614D01*
X13131043Y-18014614D01*
X13359614Y-17714614D02*
X13359614Y-17771757D01*
X13473900Y-17714614D02*
X13473900Y-17771757D01*
X13916757Y-18128900D02*
X13902471Y-18114614D01*
X13873900Y-18071757D01*
X13859614Y-18043186D01*
X13845328Y-18000329D01*
X13831043Y-17928900D01*
X13831043Y-17871757D01*
X13845328Y-17800329D01*
X13859614Y-17757472D01*
X13873900Y-17728900D01*
X13902471Y-17686043D01*
X13916757Y-17671757D01*
X14016757Y-17743186D02*
X14031043Y-17728900D01*
X14059614Y-17714614D01*
X14131043Y-17714614D01*
X14159614Y-17728900D01*
X14173900Y-17743186D01*
X14188186Y-17771757D01*
X14188186Y-17800329D01*
X14173900Y-17843186D01*
X14002471Y-18014614D01*
X14188186Y-18014614D01*
X14459614Y-17714614D02*
X14316757Y-17714614D01*
X14302471Y-17857472D01*
X14316757Y-17843186D01*
X14345328Y-17828900D01*
X14416757Y-17828900D01*
X14445328Y-17843186D01*
X14459614Y-17857472D01*
X14473900Y-17886043D01*
X14473900Y-17957472D01*
X14459614Y-17986043D01*
X14445328Y-18000329D01*
X14416757Y-18014614D01*
X14345328Y-18014614D01*
X14316757Y-18000329D01*
X14302471Y-17986043D01*
X14831043Y-18014614D02*
X14831043Y-17714614D01*
X14959614Y-18014614D02*
X14959614Y-17857472D01*
X14945328Y-17828900D01*
X14916757Y-17814614D01*
X14873900Y-17814614D01*
X14845328Y-17828900D01*
X14831043Y-17843186D01*
X15145328Y-18014614D02*
X15116757Y-18000329D01*
X15102471Y-17986043D01*
X15088186Y-17957472D01*
X15088186Y-17871757D01*
X15102471Y-17843186D01*
X15116757Y-17828900D01*
X15145328Y-17814614D01*
X15188186Y-17814614D01*
X15216757Y-17828900D01*
X15231043Y-17843186D01*
X15245328Y-17871757D01*
X15245328Y-17957472D01*
X15231043Y-17986043D01*
X15216757Y-18000329D01*
X15188186Y-18014614D01*
X15145328Y-18014614D01*
X15416757Y-18014614D02*
X15388186Y-18000329D01*
X15373900Y-17971757D01*
X15373900Y-17714614D01*
X15645328Y-18000329D02*
X15616757Y-18014614D01*
X15559614Y-18014614D01*
X15531043Y-18000329D01*
X15516757Y-17971757D01*
X15516757Y-17857472D01*
X15531043Y-17828900D01*
X15559614Y-17814614D01*
X15616757Y-17814614D01*
X15645328Y-17828900D01*
X15659614Y-17857472D01*
X15659614Y-17886043D01*
X15516757Y-17914614D01*
X15773900Y-18000329D02*
X15802471Y-18014614D01*
X15859614Y-18014614D01*
X15888186Y-18000329D01*
X15902471Y-17971757D01*
X15902471Y-17957472D01*
X15888186Y-17928900D01*
X15859614Y-17914614D01*
X15816757Y-17914614D01*
X15788186Y-17900329D01*
X15773900Y-17871757D01*
X15773900Y-17857472D01*
X15788186Y-17828900D01*
X15816757Y-17814614D01*
X15859614Y-17814614D01*
X15888186Y-17828900D01*
X16002471Y-18128900D02*
X16016757Y-18114614D01*
X16045328Y-18071757D01*
X16059614Y-18043186D01*
X16073900Y-18000329D01*
X16088186Y-17928900D01*
X16088186Y-17871757D01*
X16073900Y-17800329D01*
X16059614Y-17757472D01*
X16045328Y-17728900D01*
X16016757Y-17686043D01*
X16002471Y-17671757D01*
X8658900Y-18274900D02*
G75*
G03*
X8658900Y-18274900I-30000J0D01*
G01*
X9002471Y-18110614D02*
X9031043Y-18110614D01*
X9059614Y-18124900D01*
X9073900Y-18139186D01*
X9088186Y-18167757D01*
X9102471Y-18224900D01*
X9102471Y-18296329D01*
X9088186Y-18353472D01*
X9073900Y-18382043D01*
X9059614Y-18396329D01*
X9031043Y-18410614D01*
X9002471Y-18410614D01*
X8973900Y-18396329D01*
X8959614Y-18382043D01*
X8945328Y-18353472D01*
X8931043Y-18296329D01*
X8931043Y-18224900D01*
X8945328Y-18167757D01*
X8959614Y-18139186D01*
X8973900Y-18124900D01*
X9002471Y-18110614D01*
X9231043Y-18382043D02*
X9245328Y-18396329D01*
X9231043Y-18410614D01*
X9216757Y-18396329D01*
X9231043Y-18382043D01*
X9231043Y-18410614D01*
X9502471Y-18110614D02*
X9445328Y-18110614D01*
X9416757Y-18124900D01*
X9402471Y-18139186D01*
X9373900Y-18182043D01*
X9359614Y-18239186D01*
X9359614Y-18353472D01*
X9373900Y-18382043D01*
X9388186Y-18396329D01*
X9416757Y-18410614D01*
X9473900Y-18410614D01*
X9502471Y-18396329D01*
X9516757Y-18382043D01*
X9531043Y-18353472D01*
X9531043Y-18282043D01*
X9516757Y-18253472D01*
X9502471Y-18239186D01*
X9473900Y-18224900D01*
X9416757Y-18224900D01*
X9388186Y-18239186D01*
X9373900Y-18253472D01*
X9359614Y-18282043D01*
X9716757Y-18110614D02*
X9745328Y-18110614D01*
X9773900Y-18124900D01*
X9788186Y-18139186D01*
X9802471Y-18167757D01*
X9816757Y-18224900D01*
X9816757Y-18296329D01*
X9802471Y-18353472D01*
X9788186Y-18382043D01*
X9773900Y-18396329D01*
X9745328Y-18410614D01*
X9716757Y-18410614D01*
X9688186Y-18396329D01*
X9673900Y-18382043D01*
X9659614Y-18353472D01*
X9645328Y-18296329D01*
X9645328Y-18224900D01*
X9659614Y-18167757D01*
X9673900Y-18139186D01*
X9688186Y-18124900D01*
X9716757Y-18110614D01*
X10002471Y-18110614D02*
X10031043Y-18110614D01*
X10059614Y-18124900D01*
X10073900Y-18139186D01*
X10088186Y-18167757D01*
X10102471Y-18224900D01*
X10102471Y-18296329D01*
X10088186Y-18353472D01*
X10073900Y-18382043D01*
X10059614Y-18396329D01*
X10031043Y-18410614D01*
X10002471Y-18410614D01*
X9973900Y-18396329D01*
X9959614Y-18382043D01*
X9945328Y-18353472D01*
X9931043Y-18296329D01*
X9931043Y-18224900D01*
X9945328Y-18167757D01*
X9959614Y-18139186D01*
X9973900Y-18124900D01*
X10002471Y-18110614D01*
X10231043Y-18410614D02*
X10231043Y-18210614D01*
X10231043Y-18239186D02*
X10245328Y-18224900D01*
X10273900Y-18210614D01*
X10316757Y-18210614D01*
X10345328Y-18224900D01*
X10359614Y-18253472D01*
X10359614Y-18410614D01*
X10359614Y-18253472D02*
X10373900Y-18224900D01*
X10402471Y-18210614D01*
X10445328Y-18210614D01*
X10473900Y-18224900D01*
X10488186Y-18253472D01*
X10488186Y-18410614D01*
X10631043Y-18410614D02*
X10631043Y-18210614D01*
X10631043Y-18239186D02*
X10645328Y-18224900D01*
X10673900Y-18210614D01*
X10716757Y-18210614D01*
X10745328Y-18224900D01*
X10759614Y-18253472D01*
X10759614Y-18410614D01*
X10759614Y-18253472D02*
X10773900Y-18224900D01*
X10802471Y-18210614D01*
X10845328Y-18210614D01*
X10873900Y-18224900D01*
X10888186Y-18253472D01*
X10888186Y-18410614D01*
X11473900Y-18096329D02*
X11216757Y-18482043D01*
X11859614Y-18110614D02*
X11888186Y-18110614D01*
X11916757Y-18124900D01*
X11931043Y-18139186D01*
X11945328Y-18167757D01*
X11959614Y-18224900D01*
X11959614Y-18296329D01*
X11945328Y-18353472D01*
X11931043Y-18382043D01*
X11916757Y-18396329D01*
X11888186Y-18410614D01*
X11859614Y-18410614D01*
X11831043Y-18396329D01*
X11816757Y-18382043D01*
X11802471Y-18353472D01*
X11788186Y-18296329D01*
X11788186Y-18224900D01*
X11802471Y-18167757D01*
X11816757Y-18139186D01*
X11831043Y-18124900D01*
X11859614Y-18110614D01*
X12088186Y-18382043D02*
X12102471Y-18396329D01*
X12088186Y-18410614D01*
X12073900Y-18396329D01*
X12088186Y-18382043D01*
X12088186Y-18410614D01*
X12288186Y-18110614D02*
X12316757Y-18110614D01*
X12345328Y-18124900D01*
X12359614Y-18139186D01*
X12373900Y-18167757D01*
X12388186Y-18224900D01*
X12388186Y-18296329D01*
X12373900Y-18353472D01*
X12359614Y-18382043D01*
X12345328Y-18396329D01*
X12316757Y-18410614D01*
X12288186Y-18410614D01*
X12259614Y-18396329D01*
X12245328Y-18382043D01*
X12231043Y-18353472D01*
X12216757Y-18296329D01*
X12216757Y-18224900D01*
X12231043Y-18167757D01*
X12245328Y-18139186D01*
X12259614Y-18124900D01*
X12288186Y-18110614D01*
X12502471Y-18139186D02*
X12516757Y-18124900D01*
X12545328Y-18110614D01*
X12616757Y-18110614D01*
X12645328Y-18124900D01*
X12659614Y-18139186D01*
X12673900Y-18167757D01*
X12673900Y-18196329D01*
X12659614Y-18239186D01*
X12488186Y-18410614D01*
X12673900Y-18410614D01*
X12773900Y-18110614D02*
X12959614Y-18110614D01*
X12859614Y-18224900D01*
X12902471Y-18224900D01*
X12931043Y-18239186D01*
X12945328Y-18253472D01*
X12959614Y-18282043D01*
X12959614Y-18353472D01*
X12945328Y-18382043D01*
X12931043Y-18396329D01*
X12902471Y-18410614D01*
X12816757Y-18410614D01*
X12788186Y-18396329D01*
X12773900Y-18382043D01*
X13216757Y-18110614D02*
X13159614Y-18110614D01*
X13131043Y-18124900D01*
X13116757Y-18139186D01*
X13088186Y-18182043D01*
X13073900Y-18239186D01*
X13073900Y-18353472D01*
X13088186Y-18382043D01*
X13102471Y-18396329D01*
X13131043Y-18410614D01*
X13188186Y-18410614D01*
X13216757Y-18396329D01*
X13231043Y-18382043D01*
X13245328Y-18353472D01*
X13245328Y-18282043D01*
X13231043Y-18253472D01*
X13216757Y-18239186D01*
X13188186Y-18224900D01*
X13131043Y-18224900D01*
X13102471Y-18239186D01*
X13088186Y-18253472D01*
X13073900Y-18282043D01*
X13359614Y-18110614D02*
X13359614Y-18167757D01*
X13473900Y-18110614D02*
X13473900Y-18167757D01*
X13916757Y-18524900D02*
X13902471Y-18510614D01*
X13873900Y-18467757D01*
X13859614Y-18439186D01*
X13845328Y-18396329D01*
X13831043Y-18324900D01*
X13831043Y-18267757D01*
X13845328Y-18196329D01*
X13859614Y-18153472D01*
X13873900Y-18124900D01*
X13902471Y-18082043D01*
X13916757Y-18067757D01*
X14173900Y-18110614D02*
X14031043Y-18110614D01*
X14016757Y-18253472D01*
X14031043Y-18239186D01*
X14059614Y-18224900D01*
X14131043Y-18224900D01*
X14159614Y-18239186D01*
X14173900Y-18253472D01*
X14188186Y-18282043D01*
X14188186Y-18353472D01*
X14173900Y-18382043D01*
X14159614Y-18396329D01*
X14131043Y-18410614D01*
X14059614Y-18410614D01*
X14031043Y-18396329D01*
X14016757Y-18382043D01*
X14545328Y-18410614D02*
X14545328Y-18110614D01*
X14673900Y-18410614D02*
X14673900Y-18253472D01*
X14659614Y-18224900D01*
X14631043Y-18210614D01*
X14588186Y-18210614D01*
X14559614Y-18224900D01*
X14545328Y-18239186D01*
X14859614Y-18410614D02*
X14831043Y-18396329D01*
X14816757Y-18382043D01*
X14802471Y-18353472D01*
X14802471Y-18267757D01*
X14816757Y-18239186D01*
X14831043Y-18224900D01*
X14859614Y-18210614D01*
X14902471Y-18210614D01*
X14931043Y-18224900D01*
X14945328Y-18239186D01*
X14959614Y-18267757D01*
X14959614Y-18353472D01*
X14945328Y-18382043D01*
X14931043Y-18396329D01*
X14902471Y-18410614D01*
X14859614Y-18410614D01*
X15131043Y-18410614D02*
X15102471Y-18396329D01*
X15088186Y-18367757D01*
X15088186Y-18110614D01*
X15359614Y-18396329D02*
X15331043Y-18410614D01*
X15273900Y-18410614D01*
X15245328Y-18396329D01*
X15231043Y-18367757D01*
X15231043Y-18253472D01*
X15245328Y-18224900D01*
X15273900Y-18210614D01*
X15331043Y-18210614D01*
X15359614Y-18224900D01*
X15373900Y-18253472D01*
X15373900Y-18282043D01*
X15231043Y-18310614D01*
X15488186Y-18396329D02*
X15516757Y-18410614D01*
X15573900Y-18410614D01*
X15602471Y-18396329D01*
X15616757Y-18367757D01*
X15616757Y-18353472D01*
X15602471Y-18324900D01*
X15573900Y-18310614D01*
X15531043Y-18310614D01*
X15502471Y-18296329D01*
X15488186Y-18267757D01*
X15488186Y-18253472D01*
X15502471Y-18224900D01*
X15531043Y-18210614D01*
X15573900Y-18210614D01*
X15602471Y-18224900D01*
X15973900Y-18296329D02*
X16202471Y-18296329D01*
X16088186Y-18410614D02*
X16088186Y-18182043D01*
X16559614Y-18139186D02*
X16573900Y-18124900D01*
X16602471Y-18110614D01*
X16673900Y-18110614D01*
X16702471Y-18124900D01*
X16716757Y-18139186D01*
X16731043Y-18167757D01*
X16731043Y-18196329D01*
X16716757Y-18239186D01*
X16545328Y-18410614D01*
X16731043Y-18410614D01*
X17073900Y-18396329D02*
X17102471Y-18410614D01*
X17159614Y-18410614D01*
X17188186Y-18396329D01*
X17202471Y-18367757D01*
X17202471Y-18353472D01*
X17188186Y-18324900D01*
X17159614Y-18310614D01*
X17116757Y-18310614D01*
X17088186Y-18296329D01*
X17073900Y-18267757D01*
X17073900Y-18253472D01*
X17088186Y-18224900D01*
X17116757Y-18210614D01*
X17159614Y-18210614D01*
X17188186Y-18224900D01*
X17373900Y-18410614D02*
X17345328Y-18396329D01*
X17331043Y-18367757D01*
X17331043Y-18110614D01*
X17531043Y-18410614D02*
X17502471Y-18396329D01*
X17488186Y-18382043D01*
X17473900Y-18353472D01*
X17473900Y-18267757D01*
X17488186Y-18239186D01*
X17502471Y-18224900D01*
X17531043Y-18210614D01*
X17573900Y-18210614D01*
X17602471Y-18224900D01*
X17616757Y-18239186D01*
X17631043Y-18267757D01*
X17631043Y-18353472D01*
X17616757Y-18382043D01*
X17602471Y-18396329D01*
X17573900Y-18410614D01*
X17531043Y-18410614D01*
X17716757Y-18210614D02*
X17831043Y-18210614D01*
X17759614Y-18110614D02*
X17759614Y-18367757D01*
X17773900Y-18396329D01*
X17802471Y-18410614D01*
X17831043Y-18410614D01*
X17916757Y-18396329D02*
X17945328Y-18410614D01*
X18002471Y-18410614D01*
X18031043Y-18396329D01*
X18045328Y-18367757D01*
X18045328Y-18353472D01*
X18031043Y-18324900D01*
X18002471Y-18310614D01*
X17959614Y-18310614D01*
X17931043Y-18296329D01*
X17916757Y-18267757D01*
X17916757Y-18253472D01*
X17931043Y-18224900D01*
X17959614Y-18210614D01*
X18002471Y-18210614D01*
X18031043Y-18224900D01*
X18145328Y-18524900D02*
X18159614Y-18510614D01*
X18188186Y-18467757D01*
X18202471Y-18439186D01*
X18216757Y-18396329D01*
X18231043Y-18324900D01*
X18231043Y-18267757D01*
X18216757Y-18196329D01*
X18202471Y-18153472D01*
X18188186Y-18124900D01*
X18159614Y-18082043D01*
X18145328Y-18067757D01*
X8626400Y-18638400D02*
X8626400Y-18703400D01*
X8593900Y-18670900D02*
X8658900Y-18670900D01*
X9002471Y-18506614D02*
X9031043Y-18506614D01*
X9059614Y-18520900D01*
X9073900Y-18535186D01*
X9088186Y-18563757D01*
X9102471Y-18620900D01*
X9102471Y-18692329D01*
X9088186Y-18749472D01*
X9073900Y-18778043D01*
X9059614Y-18792329D01*
X9031043Y-18806614D01*
X9002471Y-18806614D01*
X8973900Y-18792329D01*
X8959614Y-18778043D01*
X8945328Y-18749472D01*
X8931043Y-18692329D01*
X8931043Y-18620900D01*
X8945328Y-18563757D01*
X8959614Y-18535186D01*
X8973900Y-18520900D01*
X9002471Y-18506614D01*
X9231043Y-18778043D02*
X9245328Y-18792329D01*
X9231043Y-18806614D01*
X9216757Y-18792329D01*
X9231043Y-18778043D01*
X9231043Y-18806614D01*
X9502471Y-18506614D02*
X9445328Y-18506614D01*
X9416757Y-18520900D01*
X9402471Y-18535186D01*
X9373900Y-18578043D01*
X9359614Y-18635186D01*
X9359614Y-18749472D01*
X9373900Y-18778043D01*
X9388186Y-18792329D01*
X9416757Y-18806614D01*
X9473900Y-18806614D01*
X9502471Y-18792329D01*
X9516757Y-18778043D01*
X9531043Y-18749472D01*
X9531043Y-18678043D01*
X9516757Y-18649472D01*
X9502471Y-18635186D01*
X9473900Y-18620900D01*
X9416757Y-18620900D01*
X9388186Y-18635186D01*
X9373900Y-18649472D01*
X9359614Y-18678043D01*
X9802471Y-18506614D02*
X9659614Y-18506614D01*
X9645328Y-18649472D01*
X9659614Y-18635186D01*
X9688186Y-18620900D01*
X9759614Y-18620900D01*
X9788186Y-18635186D01*
X9802471Y-18649472D01*
X9816757Y-18678043D01*
X9816757Y-18749472D01*
X9802471Y-18778043D01*
X9788186Y-18792329D01*
X9759614Y-18806614D01*
X9688186Y-18806614D01*
X9659614Y-18792329D01*
X9645328Y-18778043D01*
X10002471Y-18506614D02*
X10031043Y-18506614D01*
X10059614Y-18520900D01*
X10073900Y-18535186D01*
X10088186Y-18563757D01*
X10102471Y-18620900D01*
X10102471Y-18692329D01*
X10088186Y-18749472D01*
X10073900Y-18778043D01*
X10059614Y-18792329D01*
X10031043Y-18806614D01*
X10002471Y-18806614D01*
X9973900Y-18792329D01*
X9959614Y-18778043D01*
X9945328Y-18749472D01*
X9931043Y-18692329D01*
X9931043Y-18620900D01*
X9945328Y-18563757D01*
X9959614Y-18535186D01*
X9973900Y-18520900D01*
X10002471Y-18506614D01*
X10231043Y-18806614D02*
X10231043Y-18606614D01*
X10231043Y-18635186D02*
X10245328Y-18620900D01*
X10273900Y-18606614D01*
X10316757Y-18606614D01*
X10345328Y-18620900D01*
X10359614Y-18649472D01*
X10359614Y-18806614D01*
X10359614Y-18649472D02*
X10373900Y-18620900D01*
X10402471Y-18606614D01*
X10445328Y-18606614D01*
X10473900Y-18620900D01*
X10488186Y-18649472D01*
X10488186Y-18806614D01*
X10631043Y-18806614D02*
X10631043Y-18606614D01*
X10631043Y-18635186D02*
X10645328Y-18620900D01*
X10673900Y-18606614D01*
X10716757Y-18606614D01*
X10745328Y-18620900D01*
X10759614Y-18649472D01*
X10759614Y-18806614D01*
X10759614Y-18649472D02*
X10773900Y-18620900D01*
X10802471Y-18606614D01*
X10845328Y-18606614D01*
X10873900Y-18620900D01*
X10888186Y-18649472D01*
X10888186Y-18806614D01*
X11473900Y-18492329D02*
X11216757Y-18878043D01*
X11859614Y-18506614D02*
X11888186Y-18506614D01*
X11916757Y-18520900D01*
X11931043Y-18535186D01*
X11945328Y-18563757D01*
X11959614Y-18620900D01*
X11959614Y-18692329D01*
X11945328Y-18749472D01*
X11931043Y-18778043D01*
X11916757Y-18792329D01*
X11888186Y-18806614D01*
X11859614Y-18806614D01*
X11831043Y-18792329D01*
X11816757Y-18778043D01*
X11802471Y-18749472D01*
X11788186Y-18692329D01*
X11788186Y-18620900D01*
X11802471Y-18563757D01*
X11816757Y-18535186D01*
X11831043Y-18520900D01*
X11859614Y-18506614D01*
X12088186Y-18778043D02*
X12102471Y-18792329D01*
X12088186Y-18806614D01*
X12073900Y-18792329D01*
X12088186Y-18778043D01*
X12088186Y-18806614D01*
X12288186Y-18506614D02*
X12316757Y-18506614D01*
X12345328Y-18520900D01*
X12359614Y-18535186D01*
X12373900Y-18563757D01*
X12388186Y-18620900D01*
X12388186Y-18692329D01*
X12373900Y-18749472D01*
X12359614Y-18778043D01*
X12345328Y-18792329D01*
X12316757Y-18806614D01*
X12288186Y-18806614D01*
X12259614Y-18792329D01*
X12245328Y-18778043D01*
X12231043Y-18749472D01*
X12216757Y-18692329D01*
X12216757Y-18620900D01*
X12231043Y-18563757D01*
X12245328Y-18535186D01*
X12259614Y-18520900D01*
X12288186Y-18506614D01*
X12502471Y-18535186D02*
X12516757Y-18520900D01*
X12545328Y-18506614D01*
X12616757Y-18506614D01*
X12645328Y-18520900D01*
X12659614Y-18535186D01*
X12673900Y-18563757D01*
X12673900Y-18592329D01*
X12659614Y-18635186D01*
X12488186Y-18806614D01*
X12673900Y-18806614D01*
X12945328Y-18506614D02*
X12802471Y-18506614D01*
X12788186Y-18649472D01*
X12802471Y-18635186D01*
X12831043Y-18620900D01*
X12902471Y-18620900D01*
X12931043Y-18635186D01*
X12945328Y-18649472D01*
X12959614Y-18678043D01*
X12959614Y-18749472D01*
X12945328Y-18778043D01*
X12931043Y-18792329D01*
X12902471Y-18806614D01*
X12831043Y-18806614D01*
X12802471Y-18792329D01*
X12788186Y-18778043D01*
X13216757Y-18506614D02*
X13159614Y-18506614D01*
X13131043Y-18520900D01*
X13116757Y-18535186D01*
X13088186Y-18578043D01*
X13073900Y-18635186D01*
X13073900Y-18749472D01*
X13088186Y-18778043D01*
X13102471Y-18792329D01*
X13131043Y-18806614D01*
X13188186Y-18806614D01*
X13216757Y-18792329D01*
X13231043Y-18778043D01*
X13245328Y-18749472D01*
X13245328Y-18678043D01*
X13231043Y-18649472D01*
X13216757Y-18635186D01*
X13188186Y-18620900D01*
X13131043Y-18620900D01*
X13102471Y-18635186D01*
X13088186Y-18649472D01*
X13073900Y-18678043D01*
X13359614Y-18506614D02*
X13359614Y-18563757D01*
X13473900Y-18506614D02*
X13473900Y-18563757D01*
X13916757Y-18920900D02*
X13902471Y-18906614D01*
X13873900Y-18863757D01*
X13859614Y-18835186D01*
X13845328Y-18792329D01*
X13831043Y-18720900D01*
X13831043Y-18663757D01*
X13845328Y-18592329D01*
X13859614Y-18549472D01*
X13873900Y-18520900D01*
X13902471Y-18478043D01*
X13916757Y-18463757D01*
X14088186Y-18506614D02*
X14116757Y-18506614D01*
X14145328Y-18520900D01*
X14159614Y-18535186D01*
X14173900Y-18563757D01*
X14188186Y-18620900D01*
X14188186Y-18692329D01*
X14173900Y-18749472D01*
X14159614Y-18778043D01*
X14145328Y-18792329D01*
X14116757Y-18806614D01*
X14088186Y-18806614D01*
X14059614Y-18792329D01*
X14045328Y-18778043D01*
X14031043Y-18749472D01*
X14016757Y-18692329D01*
X14016757Y-18620900D01*
X14031043Y-18563757D01*
X14045328Y-18535186D01*
X14059614Y-18520900D01*
X14088186Y-18506614D01*
X14545328Y-18806614D02*
X14545328Y-18506614D01*
X14673900Y-18806614D02*
X14673900Y-18649472D01*
X14659614Y-18620900D01*
X14631043Y-18606614D01*
X14588186Y-18606614D01*
X14559614Y-18620900D01*
X14545328Y-18635186D01*
X14859614Y-18806614D02*
X14831043Y-18792329D01*
X14816757Y-18778043D01*
X14802471Y-18749472D01*
X14802471Y-18663757D01*
X14816757Y-18635186D01*
X14831043Y-18620900D01*
X14859614Y-18606614D01*
X14902471Y-18606614D01*
X14931043Y-18620900D01*
X14945328Y-18635186D01*
X14959614Y-18663757D01*
X14959614Y-18749472D01*
X14945328Y-18778043D01*
X14931043Y-18792329D01*
X14902471Y-18806614D01*
X14859614Y-18806614D01*
X15131043Y-18806614D02*
X15102471Y-18792329D01*
X15088186Y-18763757D01*
X15088186Y-18506614D01*
X15359614Y-18792329D02*
X15331043Y-18806614D01*
X15273900Y-18806614D01*
X15245328Y-18792329D01*
X15231043Y-18763757D01*
X15231043Y-18649472D01*
X15245328Y-18620900D01*
X15273900Y-18606614D01*
X15331043Y-18606614D01*
X15359614Y-18620900D01*
X15373900Y-18649472D01*
X15373900Y-18678043D01*
X15231043Y-18706614D01*
X15488186Y-18792329D02*
X15516757Y-18806614D01*
X15573900Y-18806614D01*
X15602471Y-18792329D01*
X15616757Y-18763757D01*
X15616757Y-18749472D01*
X15602471Y-18720900D01*
X15573900Y-18706614D01*
X15531043Y-18706614D01*
X15502471Y-18692329D01*
X15488186Y-18663757D01*
X15488186Y-18649472D01*
X15502471Y-18620900D01*
X15531043Y-18606614D01*
X15573900Y-18606614D01*
X15602471Y-18620900D01*
X15973900Y-18692329D02*
X16202471Y-18692329D01*
X16088186Y-18806614D02*
X16088186Y-18578043D01*
X16559614Y-18535186D02*
X16573900Y-18520900D01*
X16602471Y-18506614D01*
X16673900Y-18506614D01*
X16702471Y-18520900D01*
X16716757Y-18535186D01*
X16731043Y-18563757D01*
X16731043Y-18592329D01*
X16716757Y-18635186D01*
X16545328Y-18806614D01*
X16731043Y-18806614D01*
X17073900Y-18792329D02*
X17102471Y-18806614D01*
X17159614Y-18806614D01*
X17188186Y-18792329D01*
X17202471Y-18763757D01*
X17202471Y-18749472D01*
X17188186Y-18720900D01*
X17159614Y-18706614D01*
X17116757Y-18706614D01*
X17088186Y-18692329D01*
X17073900Y-18663757D01*
X17073900Y-18649472D01*
X17088186Y-18620900D01*
X17116757Y-18606614D01*
X17159614Y-18606614D01*
X17188186Y-18620900D01*
X17373900Y-18806614D02*
X17345328Y-18792329D01*
X17331043Y-18763757D01*
X17331043Y-18506614D01*
X17531043Y-18806614D02*
X17502471Y-18792329D01*
X17488186Y-18778043D01*
X17473900Y-18749472D01*
X17473900Y-18663757D01*
X17488186Y-18635186D01*
X17502471Y-18620900D01*
X17531043Y-18606614D01*
X17573900Y-18606614D01*
X17602471Y-18620900D01*
X17616757Y-18635186D01*
X17631043Y-18663757D01*
X17631043Y-18749472D01*
X17616757Y-18778043D01*
X17602471Y-18792329D01*
X17573900Y-18806614D01*
X17531043Y-18806614D01*
X17716757Y-18606614D02*
X17831043Y-18606614D01*
X17759614Y-18506614D02*
X17759614Y-18763757D01*
X17773900Y-18792329D01*
X17802471Y-18806614D01*
X17831043Y-18806614D01*
X17916757Y-18792329D02*
X17945328Y-18806614D01*
X18002471Y-18806614D01*
X18031043Y-18792329D01*
X18045328Y-18763757D01*
X18045328Y-18749472D01*
X18031043Y-18720900D01*
X18002471Y-18706614D01*
X17959614Y-18706614D01*
X17931043Y-18692329D01*
X17916757Y-18663757D01*
X17916757Y-18649472D01*
X17931043Y-18620900D01*
X17959614Y-18606614D01*
X18002471Y-18606614D01*
X18031043Y-18620900D01*
X18145328Y-18920900D02*
X18159614Y-18906614D01*
X18188186Y-18863757D01*
X18202471Y-18835186D01*
X18216757Y-18792329D01*
X18231043Y-18720900D01*
X18231043Y-18663757D01*
X18216757Y-18592329D01*
X18202471Y-18549472D01*
X18188186Y-18520900D01*
X18159614Y-18478043D01*
X18145328Y-18463757D01*
X8647741Y-19093841D02*
X8647741Y-19039959D01*
X8593859Y-19039959D01*
X8593859Y-19093841D01*
X8647741Y-19093841D01*
X9002471Y-18902614D02*
X9031043Y-18902614D01*
X9059614Y-18916900D01*
X9073900Y-18931186D01*
X9088186Y-18959757D01*
X9102471Y-19016900D01*
X9102471Y-19088329D01*
X9088186Y-19145472D01*
X9073900Y-19174043D01*
X9059614Y-19188329D01*
X9031043Y-19202614D01*
X9002471Y-19202614D01*
X8973900Y-19188329D01*
X8959614Y-19174043D01*
X8945328Y-19145472D01*
X8931043Y-19088329D01*
X8931043Y-19016900D01*
X8945328Y-18959757D01*
X8959614Y-18931186D01*
X8973900Y-18916900D01*
X9002471Y-18902614D01*
X9231043Y-19174043D02*
X9245328Y-19188329D01*
X9231043Y-19202614D01*
X9216757Y-19188329D01*
X9231043Y-19174043D01*
X9231043Y-19202614D01*
X9345328Y-18902614D02*
X9545328Y-18902614D01*
X9416757Y-19202614D01*
X9788186Y-18902614D02*
X9731043Y-18902614D01*
X9702471Y-18916900D01*
X9688186Y-18931186D01*
X9659614Y-18974043D01*
X9645328Y-19031186D01*
X9645328Y-19145472D01*
X9659614Y-19174043D01*
X9673900Y-19188329D01*
X9702471Y-19202614D01*
X9759614Y-19202614D01*
X9788186Y-19188329D01*
X9802471Y-19174043D01*
X9816757Y-19145472D01*
X9816757Y-19074043D01*
X9802471Y-19045472D01*
X9788186Y-19031186D01*
X9759614Y-19016900D01*
X9702471Y-19016900D01*
X9673900Y-19031186D01*
X9659614Y-19045472D01*
X9645328Y-19074043D01*
X9931043Y-18931186D02*
X9945328Y-18916900D01*
X9973900Y-18902614D01*
X10045328Y-18902614D01*
X10073900Y-18916900D01*
X10088186Y-18931186D01*
X10102471Y-18959757D01*
X10102471Y-18988329D01*
X10088186Y-19031186D01*
X9916757Y-19202614D01*
X10102471Y-19202614D01*
X10231043Y-19202614D02*
X10231043Y-19002614D01*
X10231043Y-19031186D02*
X10245328Y-19016900D01*
X10273900Y-19002614D01*
X10316757Y-19002614D01*
X10345328Y-19016900D01*
X10359614Y-19045472D01*
X10359614Y-19202614D01*
X10359614Y-19045472D02*
X10373900Y-19016900D01*
X10402471Y-19002614D01*
X10445328Y-19002614D01*
X10473900Y-19016900D01*
X10488186Y-19045472D01*
X10488186Y-19202614D01*
X10631043Y-19202614D02*
X10631043Y-19002614D01*
X10631043Y-19031186D02*
X10645328Y-19016900D01*
X10673900Y-19002614D01*
X10716757Y-19002614D01*
X10745328Y-19016900D01*
X10759614Y-19045472D01*
X10759614Y-19202614D01*
X10759614Y-19045472D02*
X10773900Y-19016900D01*
X10802471Y-19002614D01*
X10845328Y-19002614D01*
X10873900Y-19016900D01*
X10888186Y-19045472D01*
X10888186Y-19202614D01*
X11473900Y-18888329D02*
X11216757Y-19274043D01*
X11859614Y-18902614D02*
X11888186Y-18902614D01*
X11916757Y-18916900D01*
X11931043Y-18931186D01*
X11945328Y-18959757D01*
X11959614Y-19016900D01*
X11959614Y-19088329D01*
X11945328Y-19145472D01*
X11931043Y-19174043D01*
X11916757Y-19188329D01*
X11888186Y-19202614D01*
X11859614Y-19202614D01*
X11831043Y-19188329D01*
X11816757Y-19174043D01*
X11802471Y-19145472D01*
X11788186Y-19088329D01*
X11788186Y-19016900D01*
X11802471Y-18959757D01*
X11816757Y-18931186D01*
X11831043Y-18916900D01*
X11859614Y-18902614D01*
X12088186Y-19174043D02*
X12102471Y-19188329D01*
X12088186Y-19202614D01*
X12073900Y-19188329D01*
X12088186Y-19174043D01*
X12088186Y-19202614D01*
X12288186Y-18902614D02*
X12316757Y-18902614D01*
X12345328Y-18916900D01*
X12359614Y-18931186D01*
X12373900Y-18959757D01*
X12388186Y-19016900D01*
X12388186Y-19088329D01*
X12373900Y-19145472D01*
X12359614Y-19174043D01*
X12345328Y-19188329D01*
X12316757Y-19202614D01*
X12288186Y-19202614D01*
X12259614Y-19188329D01*
X12245328Y-19174043D01*
X12231043Y-19145472D01*
X12216757Y-19088329D01*
X12216757Y-19016900D01*
X12231043Y-18959757D01*
X12245328Y-18931186D01*
X12259614Y-18916900D01*
X12288186Y-18902614D01*
X12488186Y-18902614D02*
X12673900Y-18902614D01*
X12573900Y-19016900D01*
X12616757Y-19016900D01*
X12645328Y-19031186D01*
X12659614Y-19045472D01*
X12673900Y-19074043D01*
X12673900Y-19145472D01*
X12659614Y-19174043D01*
X12645328Y-19188329D01*
X12616757Y-19202614D01*
X12531043Y-19202614D01*
X12502471Y-19188329D01*
X12488186Y-19174043D01*
X12859614Y-18902614D02*
X12888186Y-18902614D01*
X12916757Y-18916900D01*
X12931043Y-18931186D01*
X12945328Y-18959757D01*
X12959614Y-19016900D01*
X12959614Y-19088329D01*
X12945328Y-19145472D01*
X12931043Y-19174043D01*
X12916757Y-19188329D01*
X12888186Y-19202614D01*
X12859614Y-19202614D01*
X12831043Y-19188329D01*
X12816757Y-19174043D01*
X12802471Y-19145472D01*
X12788186Y-19088329D01*
X12788186Y-19016900D01*
X12802471Y-18959757D01*
X12816757Y-18931186D01*
X12831043Y-18916900D01*
X12859614Y-18902614D01*
X13145328Y-18902614D02*
X13173900Y-18902614D01*
X13202471Y-18916900D01*
X13216757Y-18931186D01*
X13231043Y-18959757D01*
X13245328Y-19016900D01*
X13245328Y-19088329D01*
X13231043Y-19145472D01*
X13216757Y-19174043D01*
X13202471Y-19188329D01*
X13173900Y-19202614D01*
X13145328Y-19202614D01*
X13116757Y-19188329D01*
X13102471Y-19174043D01*
X13088186Y-19145472D01*
X13073900Y-19088329D01*
X13073900Y-19016900D01*
X13088186Y-18959757D01*
X13102471Y-18931186D01*
X13116757Y-18916900D01*
X13145328Y-18902614D01*
X13359614Y-18902614D02*
X13359614Y-18959757D01*
X13473900Y-18902614D02*
X13473900Y-18959757D01*
X13916757Y-19316900D02*
X13902471Y-19302614D01*
X13873900Y-19259757D01*
X13859614Y-19231186D01*
X13845328Y-19188329D01*
X13831043Y-19116900D01*
X13831043Y-19059757D01*
X13845328Y-18988329D01*
X13859614Y-18945472D01*
X13873900Y-18916900D01*
X13902471Y-18874043D01*
X13916757Y-18859757D01*
X14159614Y-19002614D02*
X14159614Y-19202614D01*
X14088186Y-18888329D02*
X14016757Y-19102614D01*
X14202471Y-19102614D01*
X14331043Y-19202614D02*
X14388186Y-19202614D01*
X14416757Y-19188329D01*
X14431043Y-19174043D01*
X14459614Y-19131186D01*
X14473900Y-19074043D01*
X14473900Y-18959757D01*
X14459614Y-18931186D01*
X14445328Y-18916900D01*
X14416757Y-18902614D01*
X14359614Y-18902614D01*
X14331043Y-18916900D01*
X14316757Y-18931186D01*
X14302471Y-18959757D01*
X14302471Y-19031186D01*
X14316757Y-19059757D01*
X14331043Y-19074043D01*
X14359614Y-19088329D01*
X14416757Y-19088329D01*
X14445328Y-19074043D01*
X14459614Y-19059757D01*
X14473900Y-19031186D01*
X14831043Y-19202614D02*
X14831043Y-18902614D01*
X14959614Y-19202614D02*
X14959614Y-19045472D01*
X14945328Y-19016900D01*
X14916757Y-19002614D01*
X14873900Y-19002614D01*
X14845328Y-19016900D01*
X14831043Y-19031186D01*
X15145328Y-19202614D02*
X15116757Y-19188329D01*
X15102471Y-19174043D01*
X15088186Y-19145472D01*
X15088186Y-19059757D01*
X15102471Y-19031186D01*
X15116757Y-19016900D01*
X15145328Y-19002614D01*
X15188186Y-19002614D01*
X15216757Y-19016900D01*
X15231043Y-19031186D01*
X15245328Y-19059757D01*
X15245328Y-19145472D01*
X15231043Y-19174043D01*
X15216757Y-19188329D01*
X15188186Y-19202614D01*
X15145328Y-19202614D01*
X15416757Y-19202614D02*
X15388186Y-19188329D01*
X15373900Y-19159757D01*
X15373900Y-18902614D01*
X15645328Y-19188329D02*
X15616757Y-19202614D01*
X15559614Y-19202614D01*
X15531043Y-19188329D01*
X15516757Y-19159757D01*
X15516757Y-19045472D01*
X15531043Y-19016900D01*
X15559614Y-19002614D01*
X15616757Y-19002614D01*
X15645328Y-19016900D01*
X15659614Y-19045472D01*
X15659614Y-19074043D01*
X15516757Y-19102614D01*
X15773900Y-19188329D02*
X15802471Y-19202614D01*
X15859614Y-19202614D01*
X15888186Y-19188329D01*
X15902471Y-19159757D01*
X15902471Y-19145472D01*
X15888186Y-19116900D01*
X15859614Y-19102614D01*
X15816757Y-19102614D01*
X15788186Y-19088329D01*
X15773900Y-19059757D01*
X15773900Y-19045472D01*
X15788186Y-19016900D01*
X15816757Y-19002614D01*
X15859614Y-19002614D01*
X15888186Y-19016900D01*
X16002471Y-19316900D02*
X16016757Y-19302614D01*
X16045328Y-19259757D01*
X16059614Y-19231186D01*
X16073900Y-19188329D01*
X16088186Y-19116900D01*
X16088186Y-19059757D01*
X16073900Y-18988329D01*
X16059614Y-18945472D01*
X16045328Y-18916900D01*
X16016757Y-18874043D01*
X16002471Y-18859757D01*
M02*
