G04 #@! TF.GenerationSoftware,KiCad,Pcbnew,(5.1.10)-1*
G04 #@! TF.CreationDate,2022-08-09T16:26:35+02:00*
G04 #@! TF.ProjectId,gbCartridge,67624361-7274-4726-9964-67652e6b6963,rev?*
G04 #@! TF.SameCoordinates,Original*
G04 #@! TF.FileFunction,Soldermask,Top*
G04 #@! TF.FilePolarity,Negative*
%FSLAX46Y46*%
G04 Gerber Fmt 4.6, Leading zero omitted, Abs format (unit mm)*
G04 Created by KiCad (PCBNEW (5.1.10)-1) date 2022-08-09 16:26:35*
%MOMM*%
%LPD*%
G01*
G04 APERTURE LIST*
%ADD10C,1.524000*%
%ADD11R,1.600000X1.300000*%
%ADD12R,1.600000X2.000000*%
%ADD13R,1.500000X0.800000*%
%ADD14R,2.000000X1.450000*%
%ADD15R,0.875000X1.900000*%
%ADD16R,2.900000X1.900000*%
%ADD17R,0.400000X1.350000*%
%ADD18O,1.000000X1.900000*%
%ADD19O,1.050000X1.250000*%
%ADD20R,1.400000X6.000000*%
%ADD21R,1.000000X6.000000*%
G04 APERTURE END LIST*
G36*
G01*
X130973001Y-118759000D02*
X129122999Y-118759000D01*
G75*
G02*
X128873000Y-118509001I0J249999D01*
G01*
X128873000Y-117683999D01*
G75*
G02*
X129122999Y-117434000I249999J0D01*
G01*
X130973001Y-117434000D01*
G75*
G02*
X131223000Y-117683999I0J-249999D01*
G01*
X131223000Y-118509001D01*
G75*
G02*
X130973001Y-118759000I-249999J0D01*
G01*
G37*
G36*
G01*
X130973001Y-121834000D02*
X129122999Y-121834000D01*
G75*
G02*
X128873000Y-121584001I0J249999D01*
G01*
X128873000Y-120758999D01*
G75*
G02*
X129122999Y-120509000I249999J0D01*
G01*
X130973001Y-120509000D01*
G75*
G02*
X131223000Y-120758999I0J-249999D01*
G01*
X131223000Y-121584001D01*
G75*
G02*
X130973001Y-121834000I-249999J0D01*
G01*
G37*
G36*
G01*
X134651000Y-156049000D02*
X134851000Y-156049000D01*
G75*
G02*
X134951000Y-156149000I0J-100000D01*
G01*
X134951000Y-157424000D01*
G75*
G02*
X134851000Y-157524000I-100000J0D01*
G01*
X134651000Y-157524000D01*
G75*
G02*
X134551000Y-157424000I0J100000D01*
G01*
X134551000Y-156149000D01*
G75*
G02*
X134651000Y-156049000I100000J0D01*
G01*
G37*
G36*
G01*
X134001000Y-156049000D02*
X134201000Y-156049000D01*
G75*
G02*
X134301000Y-156149000I0J-100000D01*
G01*
X134301000Y-157424000D01*
G75*
G02*
X134201000Y-157524000I-100000J0D01*
G01*
X134001000Y-157524000D01*
G75*
G02*
X133901000Y-157424000I0J100000D01*
G01*
X133901000Y-156149000D01*
G75*
G02*
X134001000Y-156049000I100000J0D01*
G01*
G37*
G36*
G01*
X133351000Y-156049000D02*
X133551000Y-156049000D01*
G75*
G02*
X133651000Y-156149000I0J-100000D01*
G01*
X133651000Y-157424000D01*
G75*
G02*
X133551000Y-157524000I-100000J0D01*
G01*
X133351000Y-157524000D01*
G75*
G02*
X133251000Y-157424000I0J100000D01*
G01*
X133251000Y-156149000D01*
G75*
G02*
X133351000Y-156049000I100000J0D01*
G01*
G37*
G36*
G01*
X132701000Y-156049000D02*
X132901000Y-156049000D01*
G75*
G02*
X133001000Y-156149000I0J-100000D01*
G01*
X133001000Y-157424000D01*
G75*
G02*
X132901000Y-157524000I-100000J0D01*
G01*
X132701000Y-157524000D01*
G75*
G02*
X132601000Y-157424000I0J100000D01*
G01*
X132601000Y-156149000D01*
G75*
G02*
X132701000Y-156049000I100000J0D01*
G01*
G37*
G36*
G01*
X132051000Y-156049000D02*
X132251000Y-156049000D01*
G75*
G02*
X132351000Y-156149000I0J-100000D01*
G01*
X132351000Y-157424000D01*
G75*
G02*
X132251000Y-157524000I-100000J0D01*
G01*
X132051000Y-157524000D01*
G75*
G02*
X131951000Y-157424000I0J100000D01*
G01*
X131951000Y-156149000D01*
G75*
G02*
X132051000Y-156049000I100000J0D01*
G01*
G37*
G36*
G01*
X131401000Y-156049000D02*
X131601000Y-156049000D01*
G75*
G02*
X131701000Y-156149000I0J-100000D01*
G01*
X131701000Y-157424000D01*
G75*
G02*
X131601000Y-157524000I-100000J0D01*
G01*
X131401000Y-157524000D01*
G75*
G02*
X131301000Y-157424000I0J100000D01*
G01*
X131301000Y-156149000D01*
G75*
G02*
X131401000Y-156049000I100000J0D01*
G01*
G37*
G36*
G01*
X130751000Y-156049000D02*
X130951000Y-156049000D01*
G75*
G02*
X131051000Y-156149000I0J-100000D01*
G01*
X131051000Y-157424000D01*
G75*
G02*
X130951000Y-157524000I-100000J0D01*
G01*
X130751000Y-157524000D01*
G75*
G02*
X130651000Y-157424000I0J100000D01*
G01*
X130651000Y-156149000D01*
G75*
G02*
X130751000Y-156049000I100000J0D01*
G01*
G37*
G36*
G01*
X130101000Y-156049000D02*
X130301000Y-156049000D01*
G75*
G02*
X130401000Y-156149000I0J-100000D01*
G01*
X130401000Y-157424000D01*
G75*
G02*
X130301000Y-157524000I-100000J0D01*
G01*
X130101000Y-157524000D01*
G75*
G02*
X130001000Y-157424000I0J100000D01*
G01*
X130001000Y-156149000D01*
G75*
G02*
X130101000Y-156049000I100000J0D01*
G01*
G37*
G36*
G01*
X129451000Y-156049000D02*
X129651000Y-156049000D01*
G75*
G02*
X129751000Y-156149000I0J-100000D01*
G01*
X129751000Y-157424000D01*
G75*
G02*
X129651000Y-157524000I-100000J0D01*
G01*
X129451000Y-157524000D01*
G75*
G02*
X129351000Y-157424000I0J100000D01*
G01*
X129351000Y-156149000D01*
G75*
G02*
X129451000Y-156049000I100000J0D01*
G01*
G37*
G36*
G01*
X128801000Y-156049000D02*
X129001000Y-156049000D01*
G75*
G02*
X129101000Y-156149000I0J-100000D01*
G01*
X129101000Y-157424000D01*
G75*
G02*
X129001000Y-157524000I-100000J0D01*
G01*
X128801000Y-157524000D01*
G75*
G02*
X128701000Y-157424000I0J100000D01*
G01*
X128701000Y-156149000D01*
G75*
G02*
X128801000Y-156049000I100000J0D01*
G01*
G37*
G36*
G01*
X128801000Y-150324000D02*
X129001000Y-150324000D01*
G75*
G02*
X129101000Y-150424000I0J-100000D01*
G01*
X129101000Y-151699000D01*
G75*
G02*
X129001000Y-151799000I-100000J0D01*
G01*
X128801000Y-151799000D01*
G75*
G02*
X128701000Y-151699000I0J100000D01*
G01*
X128701000Y-150424000D01*
G75*
G02*
X128801000Y-150324000I100000J0D01*
G01*
G37*
G36*
G01*
X129451000Y-150324000D02*
X129651000Y-150324000D01*
G75*
G02*
X129751000Y-150424000I0J-100000D01*
G01*
X129751000Y-151699000D01*
G75*
G02*
X129651000Y-151799000I-100000J0D01*
G01*
X129451000Y-151799000D01*
G75*
G02*
X129351000Y-151699000I0J100000D01*
G01*
X129351000Y-150424000D01*
G75*
G02*
X129451000Y-150324000I100000J0D01*
G01*
G37*
G36*
G01*
X130101000Y-150324000D02*
X130301000Y-150324000D01*
G75*
G02*
X130401000Y-150424000I0J-100000D01*
G01*
X130401000Y-151699000D01*
G75*
G02*
X130301000Y-151799000I-100000J0D01*
G01*
X130101000Y-151799000D01*
G75*
G02*
X130001000Y-151699000I0J100000D01*
G01*
X130001000Y-150424000D01*
G75*
G02*
X130101000Y-150324000I100000J0D01*
G01*
G37*
G36*
G01*
X130751000Y-150324000D02*
X130951000Y-150324000D01*
G75*
G02*
X131051000Y-150424000I0J-100000D01*
G01*
X131051000Y-151699000D01*
G75*
G02*
X130951000Y-151799000I-100000J0D01*
G01*
X130751000Y-151799000D01*
G75*
G02*
X130651000Y-151699000I0J100000D01*
G01*
X130651000Y-150424000D01*
G75*
G02*
X130751000Y-150324000I100000J0D01*
G01*
G37*
G36*
G01*
X131401000Y-150324000D02*
X131601000Y-150324000D01*
G75*
G02*
X131701000Y-150424000I0J-100000D01*
G01*
X131701000Y-151699000D01*
G75*
G02*
X131601000Y-151799000I-100000J0D01*
G01*
X131401000Y-151799000D01*
G75*
G02*
X131301000Y-151699000I0J100000D01*
G01*
X131301000Y-150424000D01*
G75*
G02*
X131401000Y-150324000I100000J0D01*
G01*
G37*
G36*
G01*
X132051000Y-150324000D02*
X132251000Y-150324000D01*
G75*
G02*
X132351000Y-150424000I0J-100000D01*
G01*
X132351000Y-151699000D01*
G75*
G02*
X132251000Y-151799000I-100000J0D01*
G01*
X132051000Y-151799000D01*
G75*
G02*
X131951000Y-151699000I0J100000D01*
G01*
X131951000Y-150424000D01*
G75*
G02*
X132051000Y-150324000I100000J0D01*
G01*
G37*
G36*
G01*
X132701000Y-150324000D02*
X132901000Y-150324000D01*
G75*
G02*
X133001000Y-150424000I0J-100000D01*
G01*
X133001000Y-151699000D01*
G75*
G02*
X132901000Y-151799000I-100000J0D01*
G01*
X132701000Y-151799000D01*
G75*
G02*
X132601000Y-151699000I0J100000D01*
G01*
X132601000Y-150424000D01*
G75*
G02*
X132701000Y-150324000I100000J0D01*
G01*
G37*
G36*
G01*
X133351000Y-150324000D02*
X133551000Y-150324000D01*
G75*
G02*
X133651000Y-150424000I0J-100000D01*
G01*
X133651000Y-151699000D01*
G75*
G02*
X133551000Y-151799000I-100000J0D01*
G01*
X133351000Y-151799000D01*
G75*
G02*
X133251000Y-151699000I0J100000D01*
G01*
X133251000Y-150424000D01*
G75*
G02*
X133351000Y-150324000I100000J0D01*
G01*
G37*
G36*
G01*
X134001000Y-150324000D02*
X134201000Y-150324000D01*
G75*
G02*
X134301000Y-150424000I0J-100000D01*
G01*
X134301000Y-151699000D01*
G75*
G02*
X134201000Y-151799000I-100000J0D01*
G01*
X134001000Y-151799000D01*
G75*
G02*
X133901000Y-151699000I0J100000D01*
G01*
X133901000Y-150424000D01*
G75*
G02*
X134001000Y-150324000I100000J0D01*
G01*
G37*
G36*
G01*
X134651000Y-150324000D02*
X134851000Y-150324000D01*
G75*
G02*
X134951000Y-150424000I0J-100000D01*
G01*
X134951000Y-151699000D01*
G75*
G02*
X134851000Y-151799000I-100000J0D01*
G01*
X134651000Y-151799000D01*
G75*
G02*
X134551000Y-151699000I0J100000D01*
G01*
X134551000Y-150424000D01*
G75*
G02*
X134651000Y-150324000I100000J0D01*
G01*
G37*
G36*
G01*
X96260000Y-145024000D02*
X96010000Y-145024000D01*
G75*
G02*
X95885000Y-144899000I0J125000D01*
G01*
X95885000Y-143249000D01*
G75*
G02*
X96010000Y-143124000I125000J0D01*
G01*
X96260000Y-143124000D01*
G75*
G02*
X96385000Y-143249000I0J-125000D01*
G01*
X96385000Y-144899000D01*
G75*
G02*
X96260000Y-145024000I-125000J0D01*
G01*
G37*
G36*
G01*
X96910000Y-145024000D02*
X96660000Y-145024000D01*
G75*
G02*
X96535000Y-144899000I0J125000D01*
G01*
X96535000Y-143249000D01*
G75*
G02*
X96660000Y-143124000I125000J0D01*
G01*
X96910000Y-143124000D01*
G75*
G02*
X97035000Y-143249000I0J-125000D01*
G01*
X97035000Y-144899000D01*
G75*
G02*
X96910000Y-145024000I-125000J0D01*
G01*
G37*
G36*
G01*
X97560000Y-145024000D02*
X97310000Y-145024000D01*
G75*
G02*
X97185000Y-144899000I0J125000D01*
G01*
X97185000Y-143249000D01*
G75*
G02*
X97310000Y-143124000I125000J0D01*
G01*
X97560000Y-143124000D01*
G75*
G02*
X97685000Y-143249000I0J-125000D01*
G01*
X97685000Y-144899000D01*
G75*
G02*
X97560000Y-145024000I-125000J0D01*
G01*
G37*
G36*
G01*
X98210000Y-145024000D02*
X97960000Y-145024000D01*
G75*
G02*
X97835000Y-144899000I0J125000D01*
G01*
X97835000Y-143249000D01*
G75*
G02*
X97960000Y-143124000I125000J0D01*
G01*
X98210000Y-143124000D01*
G75*
G02*
X98335000Y-143249000I0J-125000D01*
G01*
X98335000Y-144899000D01*
G75*
G02*
X98210000Y-145024000I-125000J0D01*
G01*
G37*
G36*
G01*
X98860000Y-145024000D02*
X98610000Y-145024000D01*
G75*
G02*
X98485000Y-144899000I0J125000D01*
G01*
X98485000Y-143249000D01*
G75*
G02*
X98610000Y-143124000I125000J0D01*
G01*
X98860000Y-143124000D01*
G75*
G02*
X98985000Y-143249000I0J-125000D01*
G01*
X98985000Y-144899000D01*
G75*
G02*
X98860000Y-145024000I-125000J0D01*
G01*
G37*
G36*
G01*
X99510000Y-145024000D02*
X99260000Y-145024000D01*
G75*
G02*
X99135000Y-144899000I0J125000D01*
G01*
X99135000Y-143249000D01*
G75*
G02*
X99260000Y-143124000I125000J0D01*
G01*
X99510000Y-143124000D01*
G75*
G02*
X99635000Y-143249000I0J-125000D01*
G01*
X99635000Y-144899000D01*
G75*
G02*
X99510000Y-145024000I-125000J0D01*
G01*
G37*
G36*
G01*
X100160000Y-145024000D02*
X99910000Y-145024000D01*
G75*
G02*
X99785000Y-144899000I0J125000D01*
G01*
X99785000Y-143249000D01*
G75*
G02*
X99910000Y-143124000I125000J0D01*
G01*
X100160000Y-143124000D01*
G75*
G02*
X100285000Y-143249000I0J-125000D01*
G01*
X100285000Y-144899000D01*
G75*
G02*
X100160000Y-145024000I-125000J0D01*
G01*
G37*
G36*
G01*
X100810000Y-145024000D02*
X100560000Y-145024000D01*
G75*
G02*
X100435000Y-144899000I0J125000D01*
G01*
X100435000Y-143249000D01*
G75*
G02*
X100560000Y-143124000I125000J0D01*
G01*
X100810000Y-143124000D01*
G75*
G02*
X100935000Y-143249000I0J-125000D01*
G01*
X100935000Y-144899000D01*
G75*
G02*
X100810000Y-145024000I-125000J0D01*
G01*
G37*
G36*
G01*
X101460000Y-145024000D02*
X101210000Y-145024000D01*
G75*
G02*
X101085000Y-144899000I0J125000D01*
G01*
X101085000Y-143249000D01*
G75*
G02*
X101210000Y-143124000I125000J0D01*
G01*
X101460000Y-143124000D01*
G75*
G02*
X101585000Y-143249000I0J-125000D01*
G01*
X101585000Y-144899000D01*
G75*
G02*
X101460000Y-145024000I-125000J0D01*
G01*
G37*
G36*
G01*
X102110000Y-145024000D02*
X101860000Y-145024000D01*
G75*
G02*
X101735000Y-144899000I0J125000D01*
G01*
X101735000Y-143249000D01*
G75*
G02*
X101860000Y-143124000I125000J0D01*
G01*
X102110000Y-143124000D01*
G75*
G02*
X102235000Y-143249000I0J-125000D01*
G01*
X102235000Y-144899000D01*
G75*
G02*
X102110000Y-145024000I-125000J0D01*
G01*
G37*
G36*
G01*
X102110000Y-152024000D02*
X101860000Y-152024000D01*
G75*
G02*
X101735000Y-151899000I0J125000D01*
G01*
X101735000Y-150249000D01*
G75*
G02*
X101860000Y-150124000I125000J0D01*
G01*
X102110000Y-150124000D01*
G75*
G02*
X102235000Y-150249000I0J-125000D01*
G01*
X102235000Y-151899000D01*
G75*
G02*
X102110000Y-152024000I-125000J0D01*
G01*
G37*
G36*
G01*
X101460000Y-152024000D02*
X101210000Y-152024000D01*
G75*
G02*
X101085000Y-151899000I0J125000D01*
G01*
X101085000Y-150249000D01*
G75*
G02*
X101210000Y-150124000I125000J0D01*
G01*
X101460000Y-150124000D01*
G75*
G02*
X101585000Y-150249000I0J-125000D01*
G01*
X101585000Y-151899000D01*
G75*
G02*
X101460000Y-152024000I-125000J0D01*
G01*
G37*
G36*
G01*
X100810000Y-152024000D02*
X100560000Y-152024000D01*
G75*
G02*
X100435000Y-151899000I0J125000D01*
G01*
X100435000Y-150249000D01*
G75*
G02*
X100560000Y-150124000I125000J0D01*
G01*
X100810000Y-150124000D01*
G75*
G02*
X100935000Y-150249000I0J-125000D01*
G01*
X100935000Y-151899000D01*
G75*
G02*
X100810000Y-152024000I-125000J0D01*
G01*
G37*
G36*
G01*
X100160000Y-152024000D02*
X99910000Y-152024000D01*
G75*
G02*
X99785000Y-151899000I0J125000D01*
G01*
X99785000Y-150249000D01*
G75*
G02*
X99910000Y-150124000I125000J0D01*
G01*
X100160000Y-150124000D01*
G75*
G02*
X100285000Y-150249000I0J-125000D01*
G01*
X100285000Y-151899000D01*
G75*
G02*
X100160000Y-152024000I-125000J0D01*
G01*
G37*
G36*
G01*
X99510000Y-152024000D02*
X99260000Y-152024000D01*
G75*
G02*
X99135000Y-151899000I0J125000D01*
G01*
X99135000Y-150249000D01*
G75*
G02*
X99260000Y-150124000I125000J0D01*
G01*
X99510000Y-150124000D01*
G75*
G02*
X99635000Y-150249000I0J-125000D01*
G01*
X99635000Y-151899000D01*
G75*
G02*
X99510000Y-152024000I-125000J0D01*
G01*
G37*
G36*
G01*
X98860000Y-152024000D02*
X98610000Y-152024000D01*
G75*
G02*
X98485000Y-151899000I0J125000D01*
G01*
X98485000Y-150249000D01*
G75*
G02*
X98610000Y-150124000I125000J0D01*
G01*
X98860000Y-150124000D01*
G75*
G02*
X98985000Y-150249000I0J-125000D01*
G01*
X98985000Y-151899000D01*
G75*
G02*
X98860000Y-152024000I-125000J0D01*
G01*
G37*
G36*
G01*
X98210000Y-152024000D02*
X97960000Y-152024000D01*
G75*
G02*
X97835000Y-151899000I0J125000D01*
G01*
X97835000Y-150249000D01*
G75*
G02*
X97960000Y-150124000I125000J0D01*
G01*
X98210000Y-150124000D01*
G75*
G02*
X98335000Y-150249000I0J-125000D01*
G01*
X98335000Y-151899000D01*
G75*
G02*
X98210000Y-152024000I-125000J0D01*
G01*
G37*
G36*
G01*
X97560000Y-152024000D02*
X97310000Y-152024000D01*
G75*
G02*
X97185000Y-151899000I0J125000D01*
G01*
X97185000Y-150249000D01*
G75*
G02*
X97310000Y-150124000I125000J0D01*
G01*
X97560000Y-150124000D01*
G75*
G02*
X97685000Y-150249000I0J-125000D01*
G01*
X97685000Y-151899000D01*
G75*
G02*
X97560000Y-152024000I-125000J0D01*
G01*
G37*
G36*
G01*
X96910000Y-152024000D02*
X96660000Y-152024000D01*
G75*
G02*
X96535000Y-151899000I0J125000D01*
G01*
X96535000Y-150249000D01*
G75*
G02*
X96660000Y-150124000I125000J0D01*
G01*
X96910000Y-150124000D01*
G75*
G02*
X97035000Y-150249000I0J-125000D01*
G01*
X97035000Y-151899000D01*
G75*
G02*
X96910000Y-152024000I-125000J0D01*
G01*
G37*
G36*
G01*
X96260000Y-152024000D02*
X96010000Y-152024000D01*
G75*
G02*
X95885000Y-151899000I0J125000D01*
G01*
X95885000Y-150249000D01*
G75*
G02*
X96010000Y-150124000I125000J0D01*
G01*
X96260000Y-150124000D01*
G75*
G02*
X96385000Y-150249000I0J-125000D01*
G01*
X96385000Y-151899000D01*
G75*
G02*
X96260000Y-152024000I-125000J0D01*
G01*
G37*
G36*
G01*
X88386000Y-145024000D02*
X88136000Y-145024000D01*
G75*
G02*
X88011000Y-144899000I0J125000D01*
G01*
X88011000Y-143249000D01*
G75*
G02*
X88136000Y-143124000I125000J0D01*
G01*
X88386000Y-143124000D01*
G75*
G02*
X88511000Y-143249000I0J-125000D01*
G01*
X88511000Y-144899000D01*
G75*
G02*
X88386000Y-145024000I-125000J0D01*
G01*
G37*
G36*
G01*
X89036000Y-145024000D02*
X88786000Y-145024000D01*
G75*
G02*
X88661000Y-144899000I0J125000D01*
G01*
X88661000Y-143249000D01*
G75*
G02*
X88786000Y-143124000I125000J0D01*
G01*
X89036000Y-143124000D01*
G75*
G02*
X89161000Y-143249000I0J-125000D01*
G01*
X89161000Y-144899000D01*
G75*
G02*
X89036000Y-145024000I-125000J0D01*
G01*
G37*
G36*
G01*
X89686000Y-145024000D02*
X89436000Y-145024000D01*
G75*
G02*
X89311000Y-144899000I0J125000D01*
G01*
X89311000Y-143249000D01*
G75*
G02*
X89436000Y-143124000I125000J0D01*
G01*
X89686000Y-143124000D01*
G75*
G02*
X89811000Y-143249000I0J-125000D01*
G01*
X89811000Y-144899000D01*
G75*
G02*
X89686000Y-145024000I-125000J0D01*
G01*
G37*
G36*
G01*
X90336000Y-145024000D02*
X90086000Y-145024000D01*
G75*
G02*
X89961000Y-144899000I0J125000D01*
G01*
X89961000Y-143249000D01*
G75*
G02*
X90086000Y-143124000I125000J0D01*
G01*
X90336000Y-143124000D01*
G75*
G02*
X90461000Y-143249000I0J-125000D01*
G01*
X90461000Y-144899000D01*
G75*
G02*
X90336000Y-145024000I-125000J0D01*
G01*
G37*
G36*
G01*
X90986000Y-145024000D02*
X90736000Y-145024000D01*
G75*
G02*
X90611000Y-144899000I0J125000D01*
G01*
X90611000Y-143249000D01*
G75*
G02*
X90736000Y-143124000I125000J0D01*
G01*
X90986000Y-143124000D01*
G75*
G02*
X91111000Y-143249000I0J-125000D01*
G01*
X91111000Y-144899000D01*
G75*
G02*
X90986000Y-145024000I-125000J0D01*
G01*
G37*
G36*
G01*
X91636000Y-145024000D02*
X91386000Y-145024000D01*
G75*
G02*
X91261000Y-144899000I0J125000D01*
G01*
X91261000Y-143249000D01*
G75*
G02*
X91386000Y-143124000I125000J0D01*
G01*
X91636000Y-143124000D01*
G75*
G02*
X91761000Y-143249000I0J-125000D01*
G01*
X91761000Y-144899000D01*
G75*
G02*
X91636000Y-145024000I-125000J0D01*
G01*
G37*
G36*
G01*
X92286000Y-145024000D02*
X92036000Y-145024000D01*
G75*
G02*
X91911000Y-144899000I0J125000D01*
G01*
X91911000Y-143249000D01*
G75*
G02*
X92036000Y-143124000I125000J0D01*
G01*
X92286000Y-143124000D01*
G75*
G02*
X92411000Y-143249000I0J-125000D01*
G01*
X92411000Y-144899000D01*
G75*
G02*
X92286000Y-145024000I-125000J0D01*
G01*
G37*
G36*
G01*
X92936000Y-145024000D02*
X92686000Y-145024000D01*
G75*
G02*
X92561000Y-144899000I0J125000D01*
G01*
X92561000Y-143249000D01*
G75*
G02*
X92686000Y-143124000I125000J0D01*
G01*
X92936000Y-143124000D01*
G75*
G02*
X93061000Y-143249000I0J-125000D01*
G01*
X93061000Y-144899000D01*
G75*
G02*
X92936000Y-145024000I-125000J0D01*
G01*
G37*
G36*
G01*
X93586000Y-145024000D02*
X93336000Y-145024000D01*
G75*
G02*
X93211000Y-144899000I0J125000D01*
G01*
X93211000Y-143249000D01*
G75*
G02*
X93336000Y-143124000I125000J0D01*
G01*
X93586000Y-143124000D01*
G75*
G02*
X93711000Y-143249000I0J-125000D01*
G01*
X93711000Y-144899000D01*
G75*
G02*
X93586000Y-145024000I-125000J0D01*
G01*
G37*
G36*
G01*
X94236000Y-145024000D02*
X93986000Y-145024000D01*
G75*
G02*
X93861000Y-144899000I0J125000D01*
G01*
X93861000Y-143249000D01*
G75*
G02*
X93986000Y-143124000I125000J0D01*
G01*
X94236000Y-143124000D01*
G75*
G02*
X94361000Y-143249000I0J-125000D01*
G01*
X94361000Y-144899000D01*
G75*
G02*
X94236000Y-145024000I-125000J0D01*
G01*
G37*
G36*
G01*
X94236000Y-152024000D02*
X93986000Y-152024000D01*
G75*
G02*
X93861000Y-151899000I0J125000D01*
G01*
X93861000Y-150249000D01*
G75*
G02*
X93986000Y-150124000I125000J0D01*
G01*
X94236000Y-150124000D01*
G75*
G02*
X94361000Y-150249000I0J-125000D01*
G01*
X94361000Y-151899000D01*
G75*
G02*
X94236000Y-152024000I-125000J0D01*
G01*
G37*
G36*
G01*
X93586000Y-152024000D02*
X93336000Y-152024000D01*
G75*
G02*
X93211000Y-151899000I0J125000D01*
G01*
X93211000Y-150249000D01*
G75*
G02*
X93336000Y-150124000I125000J0D01*
G01*
X93586000Y-150124000D01*
G75*
G02*
X93711000Y-150249000I0J-125000D01*
G01*
X93711000Y-151899000D01*
G75*
G02*
X93586000Y-152024000I-125000J0D01*
G01*
G37*
G36*
G01*
X92936000Y-152024000D02*
X92686000Y-152024000D01*
G75*
G02*
X92561000Y-151899000I0J125000D01*
G01*
X92561000Y-150249000D01*
G75*
G02*
X92686000Y-150124000I125000J0D01*
G01*
X92936000Y-150124000D01*
G75*
G02*
X93061000Y-150249000I0J-125000D01*
G01*
X93061000Y-151899000D01*
G75*
G02*
X92936000Y-152024000I-125000J0D01*
G01*
G37*
G36*
G01*
X92286000Y-152024000D02*
X92036000Y-152024000D01*
G75*
G02*
X91911000Y-151899000I0J125000D01*
G01*
X91911000Y-150249000D01*
G75*
G02*
X92036000Y-150124000I125000J0D01*
G01*
X92286000Y-150124000D01*
G75*
G02*
X92411000Y-150249000I0J-125000D01*
G01*
X92411000Y-151899000D01*
G75*
G02*
X92286000Y-152024000I-125000J0D01*
G01*
G37*
G36*
G01*
X91636000Y-152024000D02*
X91386000Y-152024000D01*
G75*
G02*
X91261000Y-151899000I0J125000D01*
G01*
X91261000Y-150249000D01*
G75*
G02*
X91386000Y-150124000I125000J0D01*
G01*
X91636000Y-150124000D01*
G75*
G02*
X91761000Y-150249000I0J-125000D01*
G01*
X91761000Y-151899000D01*
G75*
G02*
X91636000Y-152024000I-125000J0D01*
G01*
G37*
G36*
G01*
X90986000Y-152024000D02*
X90736000Y-152024000D01*
G75*
G02*
X90611000Y-151899000I0J125000D01*
G01*
X90611000Y-150249000D01*
G75*
G02*
X90736000Y-150124000I125000J0D01*
G01*
X90986000Y-150124000D01*
G75*
G02*
X91111000Y-150249000I0J-125000D01*
G01*
X91111000Y-151899000D01*
G75*
G02*
X90986000Y-152024000I-125000J0D01*
G01*
G37*
G36*
G01*
X90336000Y-152024000D02*
X90086000Y-152024000D01*
G75*
G02*
X89961000Y-151899000I0J125000D01*
G01*
X89961000Y-150249000D01*
G75*
G02*
X90086000Y-150124000I125000J0D01*
G01*
X90336000Y-150124000D01*
G75*
G02*
X90461000Y-150249000I0J-125000D01*
G01*
X90461000Y-151899000D01*
G75*
G02*
X90336000Y-152024000I-125000J0D01*
G01*
G37*
G36*
G01*
X89686000Y-152024000D02*
X89436000Y-152024000D01*
G75*
G02*
X89311000Y-151899000I0J125000D01*
G01*
X89311000Y-150249000D01*
G75*
G02*
X89436000Y-150124000I125000J0D01*
G01*
X89686000Y-150124000D01*
G75*
G02*
X89811000Y-150249000I0J-125000D01*
G01*
X89811000Y-151899000D01*
G75*
G02*
X89686000Y-152024000I-125000J0D01*
G01*
G37*
G36*
G01*
X89036000Y-152024000D02*
X88786000Y-152024000D01*
G75*
G02*
X88661000Y-151899000I0J125000D01*
G01*
X88661000Y-150249000D01*
G75*
G02*
X88786000Y-150124000I125000J0D01*
G01*
X89036000Y-150124000D01*
G75*
G02*
X89161000Y-150249000I0J-125000D01*
G01*
X89161000Y-151899000D01*
G75*
G02*
X89036000Y-152024000I-125000J0D01*
G01*
G37*
G36*
G01*
X88386000Y-152024000D02*
X88136000Y-152024000D01*
G75*
G02*
X88011000Y-151899000I0J125000D01*
G01*
X88011000Y-150249000D01*
G75*
G02*
X88136000Y-150124000I125000J0D01*
G01*
X88386000Y-150124000D01*
G75*
G02*
X88511000Y-150249000I0J-125000D01*
G01*
X88511000Y-151899000D01*
G75*
G02*
X88386000Y-152024000I-125000J0D01*
G01*
G37*
D10*
X108966000Y-156972000D03*
X111506000Y-156972000D03*
X114046000Y-156972000D03*
X116586000Y-156972000D03*
X119126000Y-156972000D03*
X121666000Y-156972000D03*
X108966000Y-154432000D03*
X111506000Y-154432000D03*
X114046000Y-154432000D03*
X116586000Y-154432000D03*
X119126000Y-154432000D03*
X121666000Y-154432000D03*
X122936000Y-131572000D03*
X122936000Y-129032000D03*
X122936000Y-126492000D03*
X122936000Y-123952000D03*
X122936000Y-121412000D03*
X122936000Y-118872000D03*
X107696000Y-123952000D03*
X107696000Y-121412000D03*
X107696000Y-118872000D03*
X125476000Y-118872000D03*
X125476000Y-121412000D03*
X125476000Y-123952000D03*
X125476000Y-126492000D03*
X125476000Y-129032000D03*
X125476000Y-131572000D03*
X125476000Y-134112000D03*
X125476000Y-136652000D03*
X125476000Y-139192000D03*
X125476000Y-141732000D03*
X125476000Y-144272000D03*
X125476000Y-146812000D03*
X125476000Y-149352000D03*
X125476000Y-151892000D03*
X105156000Y-151892000D03*
X105156000Y-149352000D03*
X105156000Y-146812000D03*
X105156000Y-144272000D03*
X105156000Y-141732000D03*
X105156000Y-139192000D03*
X105156000Y-136652000D03*
X105156000Y-134112000D03*
X105156000Y-131572000D03*
X105156000Y-129032000D03*
X105156000Y-126492000D03*
X105156000Y-123952000D03*
X105156000Y-121412000D03*
X105156000Y-118872000D03*
G36*
G01*
X133708000Y-138895000D02*
X134008000Y-138895000D01*
G75*
G02*
X134158000Y-139045000I0J-150000D01*
G01*
X134158000Y-140495000D01*
G75*
G02*
X134008000Y-140645000I-150000J0D01*
G01*
X133708000Y-140645000D01*
G75*
G02*
X133558000Y-140495000I0J150000D01*
G01*
X133558000Y-139045000D01*
G75*
G02*
X133708000Y-138895000I150000J0D01*
G01*
G37*
G36*
G01*
X132438000Y-138895000D02*
X132738000Y-138895000D01*
G75*
G02*
X132888000Y-139045000I0J-150000D01*
G01*
X132888000Y-140495000D01*
G75*
G02*
X132738000Y-140645000I-150000J0D01*
G01*
X132438000Y-140645000D01*
G75*
G02*
X132288000Y-140495000I0J150000D01*
G01*
X132288000Y-139045000D01*
G75*
G02*
X132438000Y-138895000I150000J0D01*
G01*
G37*
G36*
G01*
X131168000Y-138895000D02*
X131468000Y-138895000D01*
G75*
G02*
X131618000Y-139045000I0J-150000D01*
G01*
X131618000Y-140495000D01*
G75*
G02*
X131468000Y-140645000I-150000J0D01*
G01*
X131168000Y-140645000D01*
G75*
G02*
X131018000Y-140495000I0J150000D01*
G01*
X131018000Y-139045000D01*
G75*
G02*
X131168000Y-138895000I150000J0D01*
G01*
G37*
G36*
G01*
X129898000Y-138895000D02*
X130198000Y-138895000D01*
G75*
G02*
X130348000Y-139045000I0J-150000D01*
G01*
X130348000Y-140495000D01*
G75*
G02*
X130198000Y-140645000I-150000J0D01*
G01*
X129898000Y-140645000D01*
G75*
G02*
X129748000Y-140495000I0J150000D01*
G01*
X129748000Y-139045000D01*
G75*
G02*
X129898000Y-138895000I150000J0D01*
G01*
G37*
G36*
G01*
X129898000Y-133745000D02*
X130198000Y-133745000D01*
G75*
G02*
X130348000Y-133895000I0J-150000D01*
G01*
X130348000Y-135345000D01*
G75*
G02*
X130198000Y-135495000I-150000J0D01*
G01*
X129898000Y-135495000D01*
G75*
G02*
X129748000Y-135345000I0J150000D01*
G01*
X129748000Y-133895000D01*
G75*
G02*
X129898000Y-133745000I150000J0D01*
G01*
G37*
G36*
G01*
X131168000Y-133745000D02*
X131468000Y-133745000D01*
G75*
G02*
X131618000Y-133895000I0J-150000D01*
G01*
X131618000Y-135345000D01*
G75*
G02*
X131468000Y-135495000I-150000J0D01*
G01*
X131168000Y-135495000D01*
G75*
G02*
X131018000Y-135345000I0J150000D01*
G01*
X131018000Y-133895000D01*
G75*
G02*
X131168000Y-133745000I150000J0D01*
G01*
G37*
G36*
G01*
X132438000Y-133745000D02*
X132738000Y-133745000D01*
G75*
G02*
X132888000Y-133895000I0J-150000D01*
G01*
X132888000Y-135345000D01*
G75*
G02*
X132738000Y-135495000I-150000J0D01*
G01*
X132438000Y-135495000D01*
G75*
G02*
X132288000Y-135345000I0J150000D01*
G01*
X132288000Y-133895000D01*
G75*
G02*
X132438000Y-133745000I150000J0D01*
G01*
G37*
G36*
G01*
X133708000Y-133745000D02*
X134008000Y-133745000D01*
G75*
G02*
X134158000Y-133895000I0J-150000D01*
G01*
X134158000Y-135345000D01*
G75*
G02*
X134008000Y-135495000I-150000J0D01*
G01*
X133708000Y-135495000D01*
G75*
G02*
X133558000Y-135345000I0J150000D01*
G01*
X133558000Y-133895000D01*
G75*
G02*
X133708000Y-133745000I150000J0D01*
G01*
G37*
D11*
X129868000Y-146792000D03*
D12*
X132768000Y-145542000D03*
D11*
X129868000Y-144292000D03*
G36*
G01*
X134345000Y-147237000D02*
X134895000Y-147237000D01*
G75*
G02*
X135095000Y-147437000I0J-200000D01*
G01*
X135095000Y-147837000D01*
G75*
G02*
X134895000Y-148037000I-200000J0D01*
G01*
X134345000Y-148037000D01*
G75*
G02*
X134145000Y-147837000I0J200000D01*
G01*
X134145000Y-147437000D01*
G75*
G02*
X134345000Y-147237000I200000J0D01*
G01*
G37*
G36*
G01*
X134345000Y-145587000D02*
X134895000Y-145587000D01*
G75*
G02*
X135095000Y-145787000I0J-200000D01*
G01*
X135095000Y-146187000D01*
G75*
G02*
X134895000Y-146387000I-200000J0D01*
G01*
X134345000Y-146387000D01*
G75*
G02*
X134145000Y-146187000I0J200000D01*
G01*
X134145000Y-145787000D01*
G75*
G02*
X134345000Y-145587000I200000J0D01*
G01*
G37*
G36*
G01*
X134345000Y-143935000D02*
X134895000Y-143935000D01*
G75*
G02*
X135095000Y-144135000I0J-200000D01*
G01*
X135095000Y-144535000D01*
G75*
G02*
X134895000Y-144735000I-200000J0D01*
G01*
X134345000Y-144735000D01*
G75*
G02*
X134145000Y-144535000I0J200000D01*
G01*
X134145000Y-144135000D01*
G75*
G02*
X134345000Y-143935000I200000J0D01*
G01*
G37*
G36*
G01*
X134345000Y-142285000D02*
X134895000Y-142285000D01*
G75*
G02*
X135095000Y-142485000I0J-200000D01*
G01*
X135095000Y-142885000D01*
G75*
G02*
X134895000Y-143085000I-200000J0D01*
G01*
X134345000Y-143085000D01*
G75*
G02*
X134145000Y-142885000I0J200000D01*
G01*
X134145000Y-142485000D01*
G75*
G02*
X134345000Y-142285000I200000J0D01*
G01*
G37*
G36*
G01*
X129115000Y-131043000D02*
X129115000Y-131593000D01*
G75*
G02*
X128915000Y-131793000I-200000J0D01*
G01*
X128515000Y-131793000D01*
G75*
G02*
X128315000Y-131593000I0J200000D01*
G01*
X128315000Y-131043000D01*
G75*
G02*
X128515000Y-130843000I200000J0D01*
G01*
X128915000Y-130843000D01*
G75*
G02*
X129115000Y-131043000I0J-200000D01*
G01*
G37*
G36*
G01*
X130765000Y-131043000D02*
X130765000Y-131593000D01*
G75*
G02*
X130565000Y-131793000I-200000J0D01*
G01*
X130165000Y-131793000D01*
G75*
G02*
X129965000Y-131593000I0J200000D01*
G01*
X129965000Y-131043000D01*
G75*
G02*
X130165000Y-130843000I200000J0D01*
G01*
X130565000Y-130843000D01*
G75*
G02*
X130765000Y-131043000I0J-200000D01*
G01*
G37*
G36*
G01*
X91611000Y-122195000D02*
X91611000Y-121645000D01*
G75*
G02*
X91811000Y-121445000I200000J0D01*
G01*
X92211000Y-121445000D01*
G75*
G02*
X92411000Y-121645000I0J-200000D01*
G01*
X92411000Y-122195000D01*
G75*
G02*
X92211000Y-122395000I-200000J0D01*
G01*
X91811000Y-122395000D01*
G75*
G02*
X91611000Y-122195000I0J200000D01*
G01*
G37*
G36*
G01*
X89961000Y-122195000D02*
X89961000Y-121645000D01*
G75*
G02*
X90161000Y-121445000I200000J0D01*
G01*
X90561000Y-121445000D01*
G75*
G02*
X90761000Y-121645000I0J-200000D01*
G01*
X90761000Y-122195000D01*
G75*
G02*
X90561000Y-122395000I-200000J0D01*
G01*
X90161000Y-122395000D01*
G75*
G02*
X89961000Y-122195000I0J200000D01*
G01*
G37*
G36*
G01*
X92119000Y-103907000D02*
X92119000Y-103357000D01*
G75*
G02*
X92319000Y-103157000I200000J0D01*
G01*
X92719000Y-103157000D01*
G75*
G02*
X92919000Y-103357000I0J-200000D01*
G01*
X92919000Y-103907000D01*
G75*
G02*
X92719000Y-104107000I-200000J0D01*
G01*
X92319000Y-104107000D01*
G75*
G02*
X92119000Y-103907000I0J200000D01*
G01*
G37*
G36*
G01*
X90469000Y-103907000D02*
X90469000Y-103357000D01*
G75*
G02*
X90669000Y-103157000I200000J0D01*
G01*
X91069000Y-103157000D01*
G75*
G02*
X91269000Y-103357000I0J-200000D01*
G01*
X91269000Y-103907000D01*
G75*
G02*
X91069000Y-104107000I-200000J0D01*
G01*
X90669000Y-104107000D01*
G75*
G02*
X90469000Y-103907000I0J200000D01*
G01*
G37*
G36*
G01*
X94825000Y-103357000D02*
X94825000Y-103907000D01*
G75*
G02*
X94625000Y-104107000I-200000J0D01*
G01*
X94225000Y-104107000D01*
G75*
G02*
X94025000Y-103907000I0J200000D01*
G01*
X94025000Y-103357000D01*
G75*
G02*
X94225000Y-103157000I200000J0D01*
G01*
X94625000Y-103157000D01*
G75*
G02*
X94825000Y-103357000I0J-200000D01*
G01*
G37*
G36*
G01*
X96475000Y-103357000D02*
X96475000Y-103907000D01*
G75*
G02*
X96275000Y-104107000I-200000J0D01*
G01*
X95875000Y-104107000D01*
G75*
G02*
X95675000Y-103907000I0J200000D01*
G01*
X95675000Y-103357000D01*
G75*
G02*
X95875000Y-103157000I200000J0D01*
G01*
X96275000Y-103157000D01*
G75*
G02*
X96475000Y-103357000I0J-200000D01*
G01*
G37*
D13*
X92430000Y-115976000D03*
X92430000Y-114876000D03*
X92430000Y-113776000D03*
X92430000Y-112676000D03*
X92430000Y-111576000D03*
X92430000Y-110476000D03*
X92430000Y-109376000D03*
X92430000Y-108276000D03*
D14*
X98130000Y-105901000D03*
X98130000Y-119651000D03*
X89830000Y-119651000D03*
X89830000Y-105901000D03*
D15*
X96701500Y-97967800D03*
X89226500Y-97967800D03*
D16*
X92964000Y-97967800D03*
D17*
X92314000Y-100642800D03*
D18*
X88789000Y-97967800D03*
X97139000Y-97967800D03*
D19*
X90739000Y-100967800D03*
D17*
X91664000Y-100642800D03*
X92964000Y-100642800D03*
X93614000Y-100642800D03*
X94264000Y-100642800D03*
D19*
X95189000Y-100967800D03*
G36*
G01*
X124897000Y-158754000D02*
X124897000Y-159254000D01*
G75*
G02*
X124672000Y-159479000I-225000J0D01*
G01*
X124222000Y-159479000D01*
G75*
G02*
X123997000Y-159254000I0J225000D01*
G01*
X123997000Y-158754000D01*
G75*
G02*
X124222000Y-158529000I225000J0D01*
G01*
X124672000Y-158529000D01*
G75*
G02*
X124897000Y-158754000I0J-225000D01*
G01*
G37*
G36*
G01*
X126447000Y-158754000D02*
X126447000Y-159254000D01*
G75*
G02*
X126222000Y-159479000I-225000J0D01*
G01*
X125772000Y-159479000D01*
G75*
G02*
X125547000Y-159254000I0J225000D01*
G01*
X125547000Y-158754000D01*
G75*
G02*
X125772000Y-158529000I225000J0D01*
G01*
X126222000Y-158529000D01*
G75*
G02*
X126447000Y-158754000I0J-225000D01*
G01*
G37*
G36*
G01*
X133421000Y-149348000D02*
X133421000Y-148848000D01*
G75*
G02*
X133646000Y-148623000I225000J0D01*
G01*
X134096000Y-148623000D01*
G75*
G02*
X134321000Y-148848000I0J-225000D01*
G01*
X134321000Y-149348000D01*
G75*
G02*
X134096000Y-149573000I-225000J0D01*
G01*
X133646000Y-149573000D01*
G75*
G02*
X133421000Y-149348000I0J225000D01*
G01*
G37*
G36*
G01*
X131871000Y-149348000D02*
X131871000Y-148848000D01*
G75*
G02*
X132096000Y-148623000I225000J0D01*
G01*
X132546000Y-148623000D01*
G75*
G02*
X132771000Y-148848000I0J-225000D01*
G01*
X132771000Y-149348000D01*
G75*
G02*
X132546000Y-149573000I-225000J0D01*
G01*
X132096000Y-149573000D01*
G75*
G02*
X131871000Y-149348000I0J225000D01*
G01*
G37*
G36*
G01*
X96516000Y-140899000D02*
X96016000Y-140899000D01*
G75*
G02*
X95791000Y-140674000I0J225000D01*
G01*
X95791000Y-140224000D01*
G75*
G02*
X96016000Y-139999000I225000J0D01*
G01*
X96516000Y-139999000D01*
G75*
G02*
X96741000Y-140224000I0J-225000D01*
G01*
X96741000Y-140674000D01*
G75*
G02*
X96516000Y-140899000I-225000J0D01*
G01*
G37*
G36*
G01*
X96516000Y-142449000D02*
X96016000Y-142449000D01*
G75*
G02*
X95791000Y-142224000I0J225000D01*
G01*
X95791000Y-141774000D01*
G75*
G02*
X96016000Y-141549000I225000J0D01*
G01*
X96516000Y-141549000D01*
G75*
G02*
X96741000Y-141774000I0J-225000D01*
G01*
X96741000Y-142224000D01*
G75*
G02*
X96516000Y-142449000I-225000J0D01*
G01*
G37*
G36*
G01*
X88896000Y-140645000D02*
X88396000Y-140645000D01*
G75*
G02*
X88171000Y-140420000I0J225000D01*
G01*
X88171000Y-139970000D01*
G75*
G02*
X88396000Y-139745000I225000J0D01*
G01*
X88896000Y-139745000D01*
G75*
G02*
X89121000Y-139970000I0J-225000D01*
G01*
X89121000Y-140420000D01*
G75*
G02*
X88896000Y-140645000I-225000J0D01*
G01*
G37*
G36*
G01*
X88896000Y-142195000D02*
X88396000Y-142195000D01*
G75*
G02*
X88171000Y-141970000I0J225000D01*
G01*
X88171000Y-141520000D01*
G75*
G02*
X88396000Y-141295000I225000J0D01*
G01*
X88896000Y-141295000D01*
G75*
G02*
X89121000Y-141520000I0J-225000D01*
G01*
X89121000Y-141970000D01*
G75*
G02*
X88896000Y-142195000I-225000J0D01*
G01*
G37*
G36*
G01*
X130993000Y-141736000D02*
X130993000Y-142236000D01*
G75*
G02*
X130768000Y-142461000I-225000J0D01*
G01*
X130318000Y-142461000D01*
G75*
G02*
X130093000Y-142236000I0J225000D01*
G01*
X130093000Y-141736000D01*
G75*
G02*
X130318000Y-141511000I225000J0D01*
G01*
X130768000Y-141511000D01*
G75*
G02*
X130993000Y-141736000I0J-225000D01*
G01*
G37*
G36*
G01*
X132543000Y-141736000D02*
X132543000Y-142236000D01*
G75*
G02*
X132318000Y-142461000I-225000J0D01*
G01*
X131868000Y-142461000D01*
G75*
G02*
X131643000Y-142236000I0J225000D01*
G01*
X131643000Y-141736000D01*
G75*
G02*
X131868000Y-141511000I225000J0D01*
G01*
X132318000Y-141511000D01*
G75*
G02*
X132543000Y-141736000I0J-225000D01*
G01*
G37*
G36*
G01*
X133167000Y-131568000D02*
X133167000Y-131068000D01*
G75*
G02*
X133392000Y-130843000I225000J0D01*
G01*
X133842000Y-130843000D01*
G75*
G02*
X134067000Y-131068000I0J-225000D01*
G01*
X134067000Y-131568000D01*
G75*
G02*
X133842000Y-131793000I-225000J0D01*
G01*
X133392000Y-131793000D01*
G75*
G02*
X133167000Y-131568000I0J225000D01*
G01*
G37*
G36*
G01*
X131617000Y-131568000D02*
X131617000Y-131068000D01*
G75*
G02*
X131842000Y-130843000I225000J0D01*
G01*
X132292000Y-130843000D01*
G75*
G02*
X132517000Y-131068000I0J-225000D01*
G01*
X132517000Y-131568000D01*
G75*
G02*
X132292000Y-131793000I-225000J0D01*
G01*
X131842000Y-131793000D01*
G75*
G02*
X131617000Y-131568000I0J225000D01*
G01*
G37*
D20*
X134690000Y-165100000D03*
D21*
X132990000Y-165100000D03*
X131490000Y-165100000D03*
X129990000Y-165100000D03*
X128490000Y-165100000D03*
X126990000Y-165100000D03*
X125490000Y-165100000D03*
X123990000Y-165100000D03*
X122490000Y-165100000D03*
X120990000Y-165100000D03*
X119490000Y-165100000D03*
X117990000Y-165100000D03*
X116490000Y-165100000D03*
X114990000Y-165100000D03*
X113490000Y-165100000D03*
X111990000Y-165100000D03*
X110490000Y-165100000D03*
X108990000Y-165100000D03*
X107490000Y-165100000D03*
X105990000Y-165100000D03*
X104490000Y-165100000D03*
X102990000Y-165100000D03*
X101490000Y-165100000D03*
X99990000Y-165100000D03*
X98490000Y-165100000D03*
X96990000Y-165100000D03*
X95490000Y-165100000D03*
X93990000Y-165100000D03*
X92490000Y-165100000D03*
X90990000Y-165100000D03*
X89490000Y-165100000D03*
D20*
X87790000Y-165100000D03*
M02*
