G04 #@! TF.GenerationSoftware,KiCad,Pcbnew,(5.1.10)-1*
G04 #@! TF.CreationDate,2022-09-08T14:44:35+02:00*
G04 #@! TF.ProjectId,gbCartridge,67624361-7274-4726-9964-67652e6b6963,rev?*
G04 #@! TF.SameCoordinates,Original*
G04 #@! TF.FileFunction,Copper,L2,Bot*
G04 #@! TF.FilePolarity,Positive*
%FSLAX46Y46*%
G04 Gerber Fmt 4.6, Leading zero omitted, Abs format (unit mm)*
G04 Created by KiCad (PCBNEW (5.1.10)-1) date 2022-09-08 14:44:35*
%MOMM*%
%LPD*%
G01*
G04 APERTURE LIST*
G04 #@! TA.AperFunction,ComponentPad*
%ADD10C,1.524000*%
G04 #@! TD*
G04 #@! TA.AperFunction,ComponentPad*
%ADD11O,1.000000X1.900000*%
G04 #@! TD*
G04 #@! TA.AperFunction,ComponentPad*
%ADD12O,1.050000X1.250000*%
G04 #@! TD*
G04 #@! TA.AperFunction,ViaPad*
%ADD13C,0.800000*%
G04 #@! TD*
G04 #@! TA.AperFunction,ViaPad*
%ADD14C,1.200000*%
G04 #@! TD*
G04 #@! TA.AperFunction,Conductor*
%ADD15C,1.500000*%
G04 #@! TD*
G04 #@! TA.AperFunction,Conductor*
%ADD16C,0.250000*%
G04 #@! TD*
G04 #@! TA.AperFunction,Conductor*
%ADD17C,0.500000*%
G04 #@! TD*
G04 #@! TA.AperFunction,Conductor*
%ADD18C,1.000000*%
G04 #@! TD*
G04 #@! TA.AperFunction,Conductor*
%ADD19C,0.254000*%
G04 #@! TD*
G04 #@! TA.AperFunction,Conductor*
%ADD20C,0.100000*%
G04 #@! TD*
G04 APERTURE END LIST*
D10*
X108966000Y-156972000D03*
X111506000Y-156972000D03*
X114046000Y-156972000D03*
X116586000Y-156972000D03*
X119126000Y-156972000D03*
X121666000Y-156972000D03*
X108966000Y-154432000D03*
X111506000Y-154432000D03*
X114046000Y-154432000D03*
X116586000Y-154432000D03*
X119126000Y-154432000D03*
X121666000Y-154432000D03*
X122936000Y-131572000D03*
X122936000Y-129032000D03*
X122936000Y-126492000D03*
X122936000Y-123952000D03*
X122936000Y-121412000D03*
X122936000Y-118872000D03*
X107696000Y-123952000D03*
X107696000Y-121412000D03*
X107696000Y-118872000D03*
X125476000Y-118872000D03*
X125476000Y-121412000D03*
X125476000Y-123952000D03*
X125476000Y-126492000D03*
X125476000Y-129032000D03*
X125476000Y-131572000D03*
X125476000Y-134112000D03*
X125476000Y-136652000D03*
X125476000Y-139192000D03*
X125476000Y-141732000D03*
X125476000Y-144272000D03*
X125476000Y-146812000D03*
X125476000Y-149352000D03*
X125476000Y-151892000D03*
X105156000Y-151892000D03*
X105156000Y-149352000D03*
X105156000Y-146812000D03*
X105156000Y-144272000D03*
X105156000Y-141732000D03*
X105156000Y-139192000D03*
X105156000Y-136652000D03*
X105156000Y-134112000D03*
X105156000Y-131572000D03*
X105156000Y-129032000D03*
X105156000Y-126492000D03*
X105156000Y-123952000D03*
X105156000Y-121412000D03*
X105156000Y-118872000D03*
D11*
X88789000Y-97967800D03*
X97139000Y-97967800D03*
D12*
X90739000Y-100967800D03*
X95189000Y-100967800D03*
D13*
X133858000Y-146050000D03*
X133858000Y-133096000D03*
D14*
X134366000Y-160528000D03*
D13*
X130048000Y-155194000D03*
X133858000Y-143764000D03*
X98552000Y-152908000D03*
X98658720Y-141904364D03*
X98933000Y-130937000D03*
X93726000Y-126746000D03*
X93726000Y-137541000D03*
X93726000Y-148463000D03*
X100838000Y-108077000D03*
X91948000Y-111506000D03*
X89154000Y-128143000D03*
X98425000Y-128143000D03*
X88900000Y-120015000D03*
X98425000Y-121285000D03*
X89535000Y-106045000D03*
D14*
X87884000Y-161036000D03*
X128270000Y-128016000D03*
D13*
X127254000Y-156718000D03*
X131318000Y-137668000D03*
X132842000Y-160782000D03*
X128778000Y-143764000D03*
X91313000Y-136017000D03*
X93599000Y-136017000D03*
X93472000Y-154051000D03*
X90173962Y-157349038D03*
X124968000Y-153670000D03*
X101727000Y-154686000D03*
X101727000Y-143637000D03*
X101727000Y-132969000D03*
X88011000Y-113665000D03*
X87630000Y-121920000D03*
X89027000Y-103886000D03*
X92075000Y-114808000D03*
X103632000Y-114808000D03*
X92202000Y-112649000D03*
X103632000Y-112649000D03*
X121559000Y-137795000D03*
X113391000Y-137795000D03*
X135335000Y-123698000D03*
X132080000Y-161544000D03*
X129540000Y-145288000D03*
X129540000Y-149352000D03*
X100457000Y-148463000D03*
X100457000Y-137668000D03*
X100457000Y-126746000D03*
D15*
X127254000Y-129032000D02*
X128270000Y-128016000D01*
X87884000Y-161036000D02*
X127254000Y-161036000D01*
X127254000Y-155448000D02*
X127254000Y-154432000D01*
X127254000Y-156718000D02*
X127254000Y-155448000D01*
X127254000Y-161036000D02*
X127254000Y-156718000D01*
X127254000Y-137668000D02*
X127254000Y-129032000D01*
D16*
X131318000Y-137668000D02*
X127254000Y-137668000D01*
D15*
X127254000Y-154432000D02*
X127254000Y-137668000D01*
D16*
X128778000Y-156718000D02*
X128778000Y-149606000D01*
X132842000Y-160782000D02*
X128778000Y-156718000D01*
X128778000Y-149606000D02*
X128778000Y-143764000D01*
X91313000Y-136017000D02*
X93599000Y-136017000D01*
X93472000Y-154051000D02*
X90170000Y-157353000D01*
D17*
X124263999Y-125164001D02*
X125476000Y-123952000D01*
X124263999Y-151326001D02*
X124263999Y-125164001D01*
X124263999Y-152965999D02*
X124968000Y-153670000D01*
X124263999Y-151326001D02*
X124263999Y-152965999D01*
D18*
X108966000Y-156972000D02*
X104013000Y-156972000D01*
X104013000Y-156972000D02*
X101727000Y-154686000D01*
X101727000Y-154686000D02*
X101727000Y-143637000D01*
X101727000Y-143637000D02*
X101727000Y-132969000D01*
X108966000Y-156972000D02*
X108966000Y-158369000D01*
X108966000Y-158369000D02*
X108204000Y-159131000D01*
X108204000Y-159131000D02*
X89027000Y-159131000D01*
X89027000Y-159131000D02*
X89027000Y-157144478D01*
X87630000Y-121920000D02*
X87630000Y-114046000D01*
X87630000Y-114046000D02*
X88011000Y-113665000D01*
D17*
X87630000Y-105283000D02*
X89027000Y-103886000D01*
X87630000Y-114046000D02*
X87630000Y-105283000D01*
D18*
X89027000Y-157144478D02*
X89027000Y-153162000D01*
X87630000Y-151765000D02*
X88265000Y-152400000D01*
X87630000Y-121920000D02*
X87630000Y-151765000D01*
X89027000Y-153162000D02*
X88265000Y-152400000D01*
D16*
X92075000Y-114808000D02*
X103632000Y-114808000D01*
X92202000Y-112649000D02*
X103632000Y-112649000D01*
X121559000Y-137795000D02*
X113391000Y-137795000D01*
X135382000Y-123698000D02*
X135609990Y-123925990D01*
X135335000Y-123698000D02*
X135382000Y-123698000D01*
X135609990Y-123925990D02*
X135609990Y-149098000D01*
X135609990Y-149098000D02*
X135609990Y-161544000D01*
X132080000Y-161544000D02*
X135609990Y-161544000D01*
X129540000Y-145288000D02*
X129540000Y-149352000D01*
X100457000Y-137668000D02*
X100457000Y-148463000D01*
X100457000Y-126746000D02*
X100457000Y-137668000D01*
D19*
X127864001Y-97179954D02*
X127864000Y-114267581D01*
X127860807Y-114300000D01*
X127873550Y-114429383D01*
X127911290Y-114553793D01*
X127972575Y-114668450D01*
X127981744Y-114679622D01*
X128055052Y-114768948D01*
X128155550Y-114851425D01*
X128270207Y-114912710D01*
X128394617Y-114950450D01*
X128524000Y-114963193D01*
X128556419Y-114960000D01*
X135230001Y-114960000D01*
X135230001Y-122663609D01*
X135033102Y-122702774D01*
X134844744Y-122780795D01*
X134675226Y-122894063D01*
X134531063Y-123038226D01*
X134417795Y-123207744D01*
X134339774Y-123396102D01*
X134300000Y-123596061D01*
X134300000Y-123799939D01*
X134339774Y-123999898D01*
X134417795Y-124188256D01*
X134531063Y-124357774D01*
X134675226Y-124501937D01*
X134844744Y-124615205D01*
X134849990Y-124617378D01*
X134849991Y-149060658D01*
X134849990Y-149060668D01*
X134849991Y-160784000D01*
X133877000Y-160784000D01*
X133877000Y-160680061D01*
X133837226Y-160480102D01*
X133759205Y-160291744D01*
X133645937Y-160122226D01*
X133501774Y-159978063D01*
X133332256Y-159864795D01*
X133143898Y-159786774D01*
X132943939Y-159747000D01*
X132881802Y-159747000D01*
X129538000Y-156403199D01*
X129538000Y-150387000D01*
X129641939Y-150387000D01*
X129841898Y-150347226D01*
X130030256Y-150269205D01*
X130199774Y-150155937D01*
X130343937Y-150011774D01*
X130457205Y-149842256D01*
X130535226Y-149653898D01*
X130575000Y-149453939D01*
X130575000Y-149250061D01*
X130535226Y-149050102D01*
X130457205Y-148861744D01*
X130343937Y-148692226D01*
X130300000Y-148648289D01*
X130300000Y-145991711D01*
X130343937Y-145947774D01*
X130457205Y-145778256D01*
X130535226Y-145589898D01*
X130575000Y-145389939D01*
X130575000Y-145186061D01*
X130535226Y-144986102D01*
X130457205Y-144797744D01*
X130343937Y-144628226D01*
X130199774Y-144484063D01*
X130030256Y-144370795D01*
X129841898Y-144292774D01*
X129689697Y-144262500D01*
X129695205Y-144254256D01*
X129773226Y-144065898D01*
X129813000Y-143865939D01*
X129813000Y-143662061D01*
X129773226Y-143462102D01*
X129695205Y-143273744D01*
X129581937Y-143104226D01*
X129437774Y-142960063D01*
X129268256Y-142846795D01*
X129079898Y-142768774D01*
X128879939Y-142729000D01*
X128676061Y-142729000D01*
X128639000Y-142736372D01*
X128639000Y-138428000D01*
X130614289Y-138428000D01*
X130658226Y-138471937D01*
X130827744Y-138585205D01*
X131016102Y-138663226D01*
X131216061Y-138703000D01*
X131419939Y-138703000D01*
X131619898Y-138663226D01*
X131808256Y-138585205D01*
X131977774Y-138471937D01*
X132121937Y-138327774D01*
X132235205Y-138158256D01*
X132313226Y-137969898D01*
X132353000Y-137769939D01*
X132353000Y-137566061D01*
X132313226Y-137366102D01*
X132235205Y-137177744D01*
X132121937Y-137008226D01*
X131977774Y-136864063D01*
X131808256Y-136750795D01*
X131619898Y-136672774D01*
X131419939Y-136633000D01*
X131216061Y-136633000D01*
X131016102Y-136672774D01*
X130827744Y-136750795D01*
X130658226Y-136864063D01*
X130614289Y-136908000D01*
X128639000Y-136908000D01*
X128639000Y-129605685D01*
X129297452Y-128947234D01*
X129427156Y-128789189D01*
X129555764Y-128548581D01*
X129634960Y-128287508D01*
X129661700Y-128016000D01*
X129634960Y-127744493D01*
X129555764Y-127483420D01*
X129427156Y-127242812D01*
X129254081Y-127031919D01*
X129043188Y-126858844D01*
X128802580Y-126730236D01*
X128541507Y-126651040D01*
X128270000Y-126624300D01*
X127998492Y-126651040D01*
X127737419Y-126730236D01*
X127496811Y-126858844D01*
X127338766Y-126988548D01*
X126373485Y-127953830D01*
X126366535Y-127946880D01*
X126137727Y-127793995D01*
X126066057Y-127764308D01*
X126079023Y-127759636D01*
X126194980Y-127697656D01*
X126261960Y-127457565D01*
X125476000Y-126671605D01*
X125461858Y-126685748D01*
X125282253Y-126506143D01*
X125296395Y-126492000D01*
X125655605Y-126492000D01*
X126441565Y-127277960D01*
X126681656Y-127210980D01*
X126798756Y-126961952D01*
X126865023Y-126694865D01*
X126877910Y-126419983D01*
X126836922Y-126147867D01*
X126743636Y-125888977D01*
X126681656Y-125773020D01*
X126441565Y-125706040D01*
X125655605Y-126492000D01*
X125296395Y-126492000D01*
X125282253Y-126477858D01*
X125461858Y-126298253D01*
X125476000Y-126312395D01*
X126261960Y-125526435D01*
X126194980Y-125286344D01*
X126059240Y-125222515D01*
X126137727Y-125190005D01*
X126366535Y-125037120D01*
X126561120Y-124842535D01*
X126714005Y-124613727D01*
X126819314Y-124359490D01*
X126873000Y-124089592D01*
X126873000Y-123814408D01*
X126819314Y-123544510D01*
X126714005Y-123290273D01*
X126561120Y-123061465D01*
X126366535Y-122866880D01*
X126137727Y-122713995D01*
X126060485Y-122682000D01*
X126137727Y-122650005D01*
X126366535Y-122497120D01*
X126561120Y-122302535D01*
X126714005Y-122073727D01*
X126819314Y-121819490D01*
X126873000Y-121549592D01*
X126873000Y-121274408D01*
X126819314Y-121004510D01*
X126714005Y-120750273D01*
X126561120Y-120521465D01*
X126366535Y-120326880D01*
X126137727Y-120173995D01*
X126060485Y-120142000D01*
X126137727Y-120110005D01*
X126366535Y-119957120D01*
X126561120Y-119762535D01*
X126714005Y-119533727D01*
X126819314Y-119279490D01*
X126873000Y-119009592D01*
X126873000Y-118734408D01*
X126819314Y-118464510D01*
X126714005Y-118210273D01*
X126561120Y-117981465D01*
X126366535Y-117786880D01*
X126137727Y-117633995D01*
X125883490Y-117528686D01*
X125613592Y-117475000D01*
X125338408Y-117475000D01*
X125068510Y-117528686D01*
X124814273Y-117633995D01*
X124585465Y-117786880D01*
X124390880Y-117981465D01*
X124237995Y-118210273D01*
X124208308Y-118281943D01*
X124203636Y-118268977D01*
X124141656Y-118153020D01*
X123901565Y-118086040D01*
X123115605Y-118872000D01*
X123901565Y-119657960D01*
X124141656Y-119590980D01*
X124205485Y-119455240D01*
X124237995Y-119533727D01*
X124390880Y-119762535D01*
X124585465Y-119957120D01*
X124814273Y-120110005D01*
X124891515Y-120142000D01*
X124814273Y-120173995D01*
X124585465Y-120326880D01*
X124390880Y-120521465D01*
X124237995Y-120750273D01*
X124206000Y-120827515D01*
X124174005Y-120750273D01*
X124021120Y-120521465D01*
X123826535Y-120326880D01*
X123597727Y-120173995D01*
X123526057Y-120144308D01*
X123539023Y-120139636D01*
X123654980Y-120077656D01*
X123721960Y-119837565D01*
X122936000Y-119051605D01*
X122150040Y-119837565D01*
X122217020Y-120077656D01*
X122352760Y-120141485D01*
X122274273Y-120173995D01*
X122045465Y-120326880D01*
X121850880Y-120521465D01*
X121697995Y-120750273D01*
X121592686Y-121004510D01*
X121539000Y-121274408D01*
X121539000Y-121549592D01*
X121592686Y-121819490D01*
X121697995Y-122073727D01*
X121850880Y-122302535D01*
X122045465Y-122497120D01*
X122274273Y-122650005D01*
X122351515Y-122682000D01*
X122274273Y-122713995D01*
X122045465Y-122866880D01*
X121850880Y-123061465D01*
X121697995Y-123290273D01*
X121592686Y-123544510D01*
X121539000Y-123814408D01*
X121539000Y-124089592D01*
X121592686Y-124359490D01*
X121697995Y-124613727D01*
X121850880Y-124842535D01*
X122045465Y-125037120D01*
X122274273Y-125190005D01*
X122351515Y-125222000D01*
X122274273Y-125253995D01*
X122045465Y-125406880D01*
X121850880Y-125601465D01*
X121697995Y-125830273D01*
X121592686Y-126084510D01*
X121539000Y-126354408D01*
X121539000Y-126629592D01*
X121592686Y-126899490D01*
X121697995Y-127153727D01*
X121850880Y-127382535D01*
X122045465Y-127577120D01*
X122274273Y-127730005D01*
X122351515Y-127762000D01*
X122274273Y-127793995D01*
X122045465Y-127946880D01*
X121850880Y-128141465D01*
X121697995Y-128370273D01*
X121592686Y-128624510D01*
X121539000Y-128894408D01*
X121539000Y-129169592D01*
X121592686Y-129439490D01*
X121697995Y-129693727D01*
X121850880Y-129922535D01*
X122045465Y-130117120D01*
X122274273Y-130270005D01*
X122351515Y-130302000D01*
X122274273Y-130333995D01*
X122045465Y-130486880D01*
X121850880Y-130681465D01*
X121697995Y-130910273D01*
X121592686Y-131164510D01*
X121539000Y-131434408D01*
X121539000Y-131709592D01*
X121592686Y-131979490D01*
X121697995Y-132233727D01*
X121850880Y-132462535D01*
X122045465Y-132657120D01*
X122274273Y-132810005D01*
X122528510Y-132915314D01*
X122798408Y-132969000D01*
X123073592Y-132969000D01*
X123343490Y-132915314D01*
X123379000Y-132900605D01*
X123378999Y-151282524D01*
X123378999Y-151282525D01*
X123379000Y-152922520D01*
X123374718Y-152965999D01*
X123391804Y-153139489D01*
X123442411Y-153306312D01*
X123524589Y-153460058D01*
X123607467Y-153561045D01*
X123607470Y-153561048D01*
X123635183Y-153594816D01*
X123668950Y-153622528D01*
X123961465Y-153915043D01*
X123972774Y-153971898D01*
X124050795Y-154160256D01*
X124164063Y-154329774D01*
X124308226Y-154473937D01*
X124477744Y-154587205D01*
X124666102Y-154665226D01*
X124866061Y-154705000D01*
X125069939Y-154705000D01*
X125269898Y-154665226D01*
X125458256Y-154587205D01*
X125627774Y-154473937D01*
X125771937Y-154329774D01*
X125869000Y-154184509D01*
X125869000Y-156786036D01*
X125869001Y-156786046D01*
X125869000Y-159651000D01*
X109289131Y-159651000D01*
X109729140Y-159210992D01*
X109772449Y-159175449D01*
X109914284Y-159002623D01*
X110019676Y-158805447D01*
X110084577Y-158591499D01*
X110101000Y-158424752D01*
X110106491Y-158369000D01*
X110101000Y-158313248D01*
X110101000Y-157937565D01*
X110720040Y-157937565D01*
X110787020Y-158177656D01*
X111036048Y-158294756D01*
X111303135Y-158361023D01*
X111578017Y-158373910D01*
X111850133Y-158332922D01*
X112109023Y-158239636D01*
X112224980Y-158177656D01*
X112291960Y-157937565D01*
X111506000Y-157151605D01*
X110720040Y-157937565D01*
X110101000Y-157937565D01*
X110101000Y-157787884D01*
X110204005Y-157633727D01*
X110233692Y-157562057D01*
X110238364Y-157575023D01*
X110300344Y-157690980D01*
X110540435Y-157757960D01*
X111326395Y-156972000D01*
X110540435Y-156186040D01*
X110300344Y-156253020D01*
X110236515Y-156388760D01*
X110204005Y-156310273D01*
X110051120Y-156081465D01*
X109856535Y-155886880D01*
X109627727Y-155733995D01*
X109550485Y-155702000D01*
X109627727Y-155670005D01*
X109856535Y-155517120D01*
X109976090Y-155397565D01*
X110720040Y-155397565D01*
X110787020Y-155637656D01*
X110917644Y-155699079D01*
X110902977Y-155704364D01*
X110787020Y-155766344D01*
X110720040Y-156006435D01*
X111506000Y-156792395D01*
X112291960Y-156006435D01*
X112224980Y-155766344D01*
X112094356Y-155704921D01*
X112109023Y-155699636D01*
X112224980Y-155637656D01*
X112291960Y-155397565D01*
X111506000Y-154611605D01*
X110720040Y-155397565D01*
X109976090Y-155397565D01*
X110051120Y-155322535D01*
X110204005Y-155093727D01*
X110233692Y-155022057D01*
X110238364Y-155035023D01*
X110300344Y-155150980D01*
X110540435Y-155217960D01*
X111326395Y-154432000D01*
X111685605Y-154432000D01*
X112471565Y-155217960D01*
X112711656Y-155150980D01*
X112775485Y-155015240D01*
X112807995Y-155093727D01*
X112960880Y-155322535D01*
X113155465Y-155517120D01*
X113384273Y-155670005D01*
X113461515Y-155702000D01*
X113384273Y-155733995D01*
X113155465Y-155886880D01*
X112960880Y-156081465D01*
X112807995Y-156310273D01*
X112778308Y-156381943D01*
X112773636Y-156368977D01*
X112711656Y-156253020D01*
X112471565Y-156186040D01*
X111685605Y-156972000D01*
X112471565Y-157757960D01*
X112711656Y-157690980D01*
X112775485Y-157555240D01*
X112807995Y-157633727D01*
X112960880Y-157862535D01*
X113155465Y-158057120D01*
X113384273Y-158210005D01*
X113638510Y-158315314D01*
X113908408Y-158369000D01*
X114183592Y-158369000D01*
X114453490Y-158315314D01*
X114707727Y-158210005D01*
X114936535Y-158057120D01*
X115131120Y-157862535D01*
X115284005Y-157633727D01*
X115316000Y-157556485D01*
X115347995Y-157633727D01*
X115500880Y-157862535D01*
X115695465Y-158057120D01*
X115924273Y-158210005D01*
X116178510Y-158315314D01*
X116448408Y-158369000D01*
X116723592Y-158369000D01*
X116993490Y-158315314D01*
X117247727Y-158210005D01*
X117476535Y-158057120D01*
X117671120Y-157862535D01*
X117824005Y-157633727D01*
X117856000Y-157556485D01*
X117887995Y-157633727D01*
X118040880Y-157862535D01*
X118235465Y-158057120D01*
X118464273Y-158210005D01*
X118718510Y-158315314D01*
X118988408Y-158369000D01*
X119263592Y-158369000D01*
X119533490Y-158315314D01*
X119787727Y-158210005D01*
X120016535Y-158057120D01*
X120211120Y-157862535D01*
X120364005Y-157633727D01*
X120396000Y-157556485D01*
X120427995Y-157633727D01*
X120580880Y-157862535D01*
X120775465Y-158057120D01*
X121004273Y-158210005D01*
X121258510Y-158315314D01*
X121528408Y-158369000D01*
X121803592Y-158369000D01*
X122073490Y-158315314D01*
X122327727Y-158210005D01*
X122556535Y-158057120D01*
X122751120Y-157862535D01*
X122904005Y-157633727D01*
X123009314Y-157379490D01*
X123063000Y-157109592D01*
X123063000Y-156834408D01*
X123009314Y-156564510D01*
X122904005Y-156310273D01*
X122751120Y-156081465D01*
X122556535Y-155886880D01*
X122327727Y-155733995D01*
X122250485Y-155702000D01*
X122327727Y-155670005D01*
X122556535Y-155517120D01*
X122751120Y-155322535D01*
X122904005Y-155093727D01*
X123009314Y-154839490D01*
X123063000Y-154569592D01*
X123063000Y-154294408D01*
X123009314Y-154024510D01*
X122904005Y-153770273D01*
X122751120Y-153541465D01*
X122556535Y-153346880D01*
X122327727Y-153193995D01*
X122073490Y-153088686D01*
X121803592Y-153035000D01*
X121528408Y-153035000D01*
X121258510Y-153088686D01*
X121004273Y-153193995D01*
X120775465Y-153346880D01*
X120580880Y-153541465D01*
X120427995Y-153770273D01*
X120396000Y-153847515D01*
X120364005Y-153770273D01*
X120211120Y-153541465D01*
X120016535Y-153346880D01*
X119787727Y-153193995D01*
X119533490Y-153088686D01*
X119263592Y-153035000D01*
X118988408Y-153035000D01*
X118718510Y-153088686D01*
X118464273Y-153193995D01*
X118235465Y-153346880D01*
X118040880Y-153541465D01*
X117887995Y-153770273D01*
X117856000Y-153847515D01*
X117824005Y-153770273D01*
X117671120Y-153541465D01*
X117476535Y-153346880D01*
X117247727Y-153193995D01*
X116993490Y-153088686D01*
X116723592Y-153035000D01*
X116448408Y-153035000D01*
X116178510Y-153088686D01*
X115924273Y-153193995D01*
X115695465Y-153346880D01*
X115500880Y-153541465D01*
X115347995Y-153770273D01*
X115316000Y-153847515D01*
X115284005Y-153770273D01*
X115131120Y-153541465D01*
X114936535Y-153346880D01*
X114707727Y-153193995D01*
X114453490Y-153088686D01*
X114183592Y-153035000D01*
X113908408Y-153035000D01*
X113638510Y-153088686D01*
X113384273Y-153193995D01*
X113155465Y-153346880D01*
X112960880Y-153541465D01*
X112807995Y-153770273D01*
X112778308Y-153841943D01*
X112773636Y-153828977D01*
X112711656Y-153713020D01*
X112471565Y-153646040D01*
X111685605Y-154432000D01*
X111326395Y-154432000D01*
X110540435Y-153646040D01*
X110300344Y-153713020D01*
X110236515Y-153848760D01*
X110204005Y-153770273D01*
X110051120Y-153541465D01*
X109976090Y-153466435D01*
X110720040Y-153466435D01*
X111506000Y-154252395D01*
X112291960Y-153466435D01*
X112224980Y-153226344D01*
X111975952Y-153109244D01*
X111708865Y-153042977D01*
X111433983Y-153030090D01*
X111161867Y-153071078D01*
X110902977Y-153164364D01*
X110787020Y-153226344D01*
X110720040Y-153466435D01*
X109976090Y-153466435D01*
X109856535Y-153346880D01*
X109627727Y-153193995D01*
X109373490Y-153088686D01*
X109103592Y-153035000D01*
X108828408Y-153035000D01*
X108558510Y-153088686D01*
X108304273Y-153193995D01*
X108075465Y-153346880D01*
X107880880Y-153541465D01*
X107727995Y-153770273D01*
X107622686Y-154024510D01*
X107569000Y-154294408D01*
X107569000Y-154569592D01*
X107622686Y-154839490D01*
X107727995Y-155093727D01*
X107880880Y-155322535D01*
X108075465Y-155517120D01*
X108304273Y-155670005D01*
X108381515Y-155702000D01*
X108304273Y-155733995D01*
X108150116Y-155837000D01*
X104483132Y-155837000D01*
X102862000Y-154215869D01*
X102862000Y-132913248D01*
X102845577Y-132746501D01*
X102780676Y-132532553D01*
X102675284Y-132335377D01*
X102533449Y-132162551D01*
X102360623Y-132020716D01*
X102163447Y-131915324D01*
X101949499Y-131850423D01*
X101727000Y-131828509D01*
X101504502Y-131850423D01*
X101290554Y-131915324D01*
X101217000Y-131954639D01*
X101217000Y-127449711D01*
X101260937Y-127405774D01*
X101374205Y-127236256D01*
X101452226Y-127047898D01*
X101492000Y-126847939D01*
X101492000Y-126644061D01*
X101452226Y-126444102D01*
X101374205Y-126255744D01*
X101260937Y-126086226D01*
X101116774Y-125942063D01*
X100947256Y-125828795D01*
X100758898Y-125750774D01*
X100558939Y-125711000D01*
X100355061Y-125711000D01*
X100155102Y-125750774D01*
X99966744Y-125828795D01*
X99797226Y-125942063D01*
X99653063Y-126086226D01*
X99539795Y-126255744D01*
X99461774Y-126444102D01*
X99422000Y-126644061D01*
X99422000Y-126847939D01*
X99461774Y-127047898D01*
X99539795Y-127236256D01*
X99653063Y-127405774D01*
X99697000Y-127449711D01*
X99697001Y-136964288D01*
X99653063Y-137008226D01*
X99539795Y-137177744D01*
X99461774Y-137366102D01*
X99422000Y-137566061D01*
X99422000Y-137769939D01*
X99461774Y-137969898D01*
X99539795Y-138158256D01*
X99653063Y-138327774D01*
X99697000Y-138371711D01*
X99697001Y-147759288D01*
X99653063Y-147803226D01*
X99539795Y-147972744D01*
X99461774Y-148161102D01*
X99422000Y-148361061D01*
X99422000Y-148564939D01*
X99461774Y-148764898D01*
X99539795Y-148953256D01*
X99653063Y-149122774D01*
X99797226Y-149266937D01*
X99966744Y-149380205D01*
X100155102Y-149458226D01*
X100355061Y-149498000D01*
X100558939Y-149498000D01*
X100592000Y-149491424D01*
X100592000Y-154630248D01*
X100586509Y-154686000D01*
X100592000Y-154741751D01*
X100608423Y-154908498D01*
X100673324Y-155122446D01*
X100778716Y-155319623D01*
X100920551Y-155492449D01*
X100963865Y-155527996D01*
X103171009Y-157735141D01*
X103206551Y-157778449D01*
X103379377Y-157920284D01*
X103521033Y-157996000D01*
X90986460Y-157996000D01*
X91091167Y-157839294D01*
X91169188Y-157650936D01*
X91208962Y-157450977D01*
X91208962Y-157388839D01*
X93511802Y-155086000D01*
X93573939Y-155086000D01*
X93773898Y-155046226D01*
X93962256Y-154968205D01*
X94131774Y-154854937D01*
X94275937Y-154710774D01*
X94389205Y-154541256D01*
X94467226Y-154352898D01*
X94507000Y-154152939D01*
X94507000Y-153949061D01*
X94467226Y-153749102D01*
X94389205Y-153560744D01*
X94275937Y-153391226D01*
X94131774Y-153247063D01*
X93962256Y-153133795D01*
X93773898Y-153055774D01*
X93573939Y-153016000D01*
X93370061Y-153016000D01*
X93170102Y-153055774D01*
X92981744Y-153133795D01*
X92812226Y-153247063D01*
X92668063Y-153391226D01*
X92554795Y-153560744D01*
X92476774Y-153749102D01*
X92437000Y-153949061D01*
X92437000Y-154011198D01*
X90162000Y-156286199D01*
X90162000Y-153217752D01*
X90167491Y-153162000D01*
X90145577Y-152939501D01*
X90080676Y-152725553D01*
X89975284Y-152528377D01*
X89868989Y-152398857D01*
X89833449Y-152355551D01*
X89790140Y-152320008D01*
X89106993Y-151636862D01*
X89106989Y-151636857D01*
X88765000Y-151294868D01*
X88765000Y-135915061D01*
X90278000Y-135915061D01*
X90278000Y-136118939D01*
X90317774Y-136318898D01*
X90395795Y-136507256D01*
X90509063Y-136676774D01*
X90653226Y-136820937D01*
X90822744Y-136934205D01*
X91011102Y-137012226D01*
X91211061Y-137052000D01*
X91414939Y-137052000D01*
X91614898Y-137012226D01*
X91803256Y-136934205D01*
X91972774Y-136820937D01*
X92016711Y-136777000D01*
X92895289Y-136777000D01*
X92939226Y-136820937D01*
X93108744Y-136934205D01*
X93297102Y-137012226D01*
X93497061Y-137052000D01*
X93700939Y-137052000D01*
X93900898Y-137012226D01*
X94089256Y-136934205D01*
X94258774Y-136820937D01*
X94402937Y-136676774D01*
X94516205Y-136507256D01*
X94594226Y-136318898D01*
X94634000Y-136118939D01*
X94634000Y-135915061D01*
X94594226Y-135715102D01*
X94516205Y-135526744D01*
X94402937Y-135357226D01*
X94258774Y-135213063D01*
X94089256Y-135099795D01*
X93900898Y-135021774D01*
X93700939Y-134982000D01*
X93497061Y-134982000D01*
X93297102Y-135021774D01*
X93108744Y-135099795D01*
X92939226Y-135213063D01*
X92895289Y-135257000D01*
X92016711Y-135257000D01*
X91972774Y-135213063D01*
X91803256Y-135099795D01*
X91614898Y-135021774D01*
X91414939Y-134982000D01*
X91211061Y-134982000D01*
X91011102Y-135021774D01*
X90822744Y-135099795D01*
X90653226Y-135213063D01*
X90509063Y-135357226D01*
X90395795Y-135526744D01*
X90317774Y-135715102D01*
X90278000Y-135915061D01*
X88765000Y-135915061D01*
X88765000Y-118734408D01*
X103759000Y-118734408D01*
X103759000Y-119009592D01*
X103812686Y-119279490D01*
X103917995Y-119533727D01*
X104070880Y-119762535D01*
X104265465Y-119957120D01*
X104494273Y-120110005D01*
X104571515Y-120142000D01*
X104494273Y-120173995D01*
X104265465Y-120326880D01*
X104070880Y-120521465D01*
X103917995Y-120750273D01*
X103812686Y-121004510D01*
X103759000Y-121274408D01*
X103759000Y-121549592D01*
X103812686Y-121819490D01*
X103917995Y-122073727D01*
X104070880Y-122302535D01*
X104265465Y-122497120D01*
X104494273Y-122650005D01*
X104571515Y-122682000D01*
X104494273Y-122713995D01*
X104265465Y-122866880D01*
X104070880Y-123061465D01*
X103917995Y-123290273D01*
X103812686Y-123544510D01*
X103759000Y-123814408D01*
X103759000Y-124089592D01*
X103812686Y-124359490D01*
X103917995Y-124613727D01*
X104070880Y-124842535D01*
X104265465Y-125037120D01*
X104494273Y-125190005D01*
X104571515Y-125222000D01*
X104494273Y-125253995D01*
X104265465Y-125406880D01*
X104070880Y-125601465D01*
X103917995Y-125830273D01*
X103812686Y-126084510D01*
X103759000Y-126354408D01*
X103759000Y-126629592D01*
X103812686Y-126899490D01*
X103917995Y-127153727D01*
X104070880Y-127382535D01*
X104265465Y-127577120D01*
X104494273Y-127730005D01*
X104571515Y-127762000D01*
X104494273Y-127793995D01*
X104265465Y-127946880D01*
X104070880Y-128141465D01*
X103917995Y-128370273D01*
X103812686Y-128624510D01*
X103759000Y-128894408D01*
X103759000Y-129169592D01*
X103812686Y-129439490D01*
X103917995Y-129693727D01*
X104070880Y-129922535D01*
X104265465Y-130117120D01*
X104494273Y-130270005D01*
X104571515Y-130302000D01*
X104494273Y-130333995D01*
X104265465Y-130486880D01*
X104070880Y-130681465D01*
X103917995Y-130910273D01*
X103812686Y-131164510D01*
X103759000Y-131434408D01*
X103759000Y-131709592D01*
X103812686Y-131979490D01*
X103917995Y-132233727D01*
X104070880Y-132462535D01*
X104265465Y-132657120D01*
X104494273Y-132810005D01*
X104571515Y-132842000D01*
X104494273Y-132873995D01*
X104265465Y-133026880D01*
X104070880Y-133221465D01*
X103917995Y-133450273D01*
X103812686Y-133704510D01*
X103759000Y-133974408D01*
X103759000Y-134249592D01*
X103812686Y-134519490D01*
X103917995Y-134773727D01*
X104070880Y-135002535D01*
X104265465Y-135197120D01*
X104494273Y-135350005D01*
X104571515Y-135382000D01*
X104494273Y-135413995D01*
X104265465Y-135566880D01*
X104070880Y-135761465D01*
X103917995Y-135990273D01*
X103812686Y-136244510D01*
X103759000Y-136514408D01*
X103759000Y-136789592D01*
X103812686Y-137059490D01*
X103917995Y-137313727D01*
X104070880Y-137542535D01*
X104265465Y-137737120D01*
X104494273Y-137890005D01*
X104571515Y-137922000D01*
X104494273Y-137953995D01*
X104265465Y-138106880D01*
X104070880Y-138301465D01*
X103917995Y-138530273D01*
X103812686Y-138784510D01*
X103759000Y-139054408D01*
X103759000Y-139329592D01*
X103812686Y-139599490D01*
X103917995Y-139853727D01*
X104070880Y-140082535D01*
X104265465Y-140277120D01*
X104494273Y-140430005D01*
X104571515Y-140462000D01*
X104494273Y-140493995D01*
X104265465Y-140646880D01*
X104070880Y-140841465D01*
X103917995Y-141070273D01*
X103812686Y-141324510D01*
X103759000Y-141594408D01*
X103759000Y-141869592D01*
X103812686Y-142139490D01*
X103917995Y-142393727D01*
X104070880Y-142622535D01*
X104265465Y-142817120D01*
X104494273Y-142970005D01*
X104571515Y-143002000D01*
X104494273Y-143033995D01*
X104265465Y-143186880D01*
X104070880Y-143381465D01*
X103917995Y-143610273D01*
X103812686Y-143864510D01*
X103759000Y-144134408D01*
X103759000Y-144409592D01*
X103812686Y-144679490D01*
X103917995Y-144933727D01*
X104070880Y-145162535D01*
X104265465Y-145357120D01*
X104494273Y-145510005D01*
X104571515Y-145542000D01*
X104494273Y-145573995D01*
X104265465Y-145726880D01*
X104070880Y-145921465D01*
X103917995Y-146150273D01*
X103812686Y-146404510D01*
X103759000Y-146674408D01*
X103759000Y-146949592D01*
X103812686Y-147219490D01*
X103917995Y-147473727D01*
X104070880Y-147702535D01*
X104265465Y-147897120D01*
X104494273Y-148050005D01*
X104571515Y-148082000D01*
X104494273Y-148113995D01*
X104265465Y-148266880D01*
X104070880Y-148461465D01*
X103917995Y-148690273D01*
X103812686Y-148944510D01*
X103759000Y-149214408D01*
X103759000Y-149489592D01*
X103812686Y-149759490D01*
X103917995Y-150013727D01*
X104070880Y-150242535D01*
X104265465Y-150437120D01*
X104494273Y-150590005D01*
X104571515Y-150622000D01*
X104494273Y-150653995D01*
X104265465Y-150806880D01*
X104070880Y-151001465D01*
X103917995Y-151230273D01*
X103812686Y-151484510D01*
X103759000Y-151754408D01*
X103759000Y-152029592D01*
X103812686Y-152299490D01*
X103917995Y-152553727D01*
X104070880Y-152782535D01*
X104265465Y-152977120D01*
X104494273Y-153130005D01*
X104748510Y-153235314D01*
X105018408Y-153289000D01*
X105293592Y-153289000D01*
X105563490Y-153235314D01*
X105817727Y-153130005D01*
X106046535Y-152977120D01*
X106241120Y-152782535D01*
X106394005Y-152553727D01*
X106499314Y-152299490D01*
X106553000Y-152029592D01*
X106553000Y-151754408D01*
X106499314Y-151484510D01*
X106394005Y-151230273D01*
X106241120Y-151001465D01*
X106046535Y-150806880D01*
X105817727Y-150653995D01*
X105740485Y-150622000D01*
X105817727Y-150590005D01*
X106046535Y-150437120D01*
X106241120Y-150242535D01*
X106394005Y-150013727D01*
X106499314Y-149759490D01*
X106553000Y-149489592D01*
X106553000Y-149214408D01*
X106499314Y-148944510D01*
X106394005Y-148690273D01*
X106241120Y-148461465D01*
X106046535Y-148266880D01*
X105817727Y-148113995D01*
X105740485Y-148082000D01*
X105817727Y-148050005D01*
X106046535Y-147897120D01*
X106241120Y-147702535D01*
X106394005Y-147473727D01*
X106499314Y-147219490D01*
X106553000Y-146949592D01*
X106553000Y-146674408D01*
X106499314Y-146404510D01*
X106394005Y-146150273D01*
X106241120Y-145921465D01*
X106046535Y-145726880D01*
X105817727Y-145573995D01*
X105740485Y-145542000D01*
X105817727Y-145510005D01*
X106046535Y-145357120D01*
X106241120Y-145162535D01*
X106394005Y-144933727D01*
X106499314Y-144679490D01*
X106553000Y-144409592D01*
X106553000Y-144134408D01*
X106499314Y-143864510D01*
X106394005Y-143610273D01*
X106241120Y-143381465D01*
X106046535Y-143186880D01*
X105817727Y-143033995D01*
X105740485Y-143002000D01*
X105817727Y-142970005D01*
X106046535Y-142817120D01*
X106241120Y-142622535D01*
X106394005Y-142393727D01*
X106499314Y-142139490D01*
X106553000Y-141869592D01*
X106553000Y-141594408D01*
X106499314Y-141324510D01*
X106394005Y-141070273D01*
X106241120Y-140841465D01*
X106046535Y-140646880D01*
X105817727Y-140493995D01*
X105740485Y-140462000D01*
X105817727Y-140430005D01*
X106046535Y-140277120D01*
X106241120Y-140082535D01*
X106394005Y-139853727D01*
X106499314Y-139599490D01*
X106553000Y-139329592D01*
X106553000Y-139054408D01*
X106499314Y-138784510D01*
X106394005Y-138530273D01*
X106241120Y-138301465D01*
X106046535Y-138106880D01*
X105817727Y-137953995D01*
X105740485Y-137922000D01*
X105817727Y-137890005D01*
X106046535Y-137737120D01*
X106090594Y-137693061D01*
X112356000Y-137693061D01*
X112356000Y-137896939D01*
X112395774Y-138096898D01*
X112473795Y-138285256D01*
X112587063Y-138454774D01*
X112731226Y-138598937D01*
X112900744Y-138712205D01*
X113089102Y-138790226D01*
X113289061Y-138830000D01*
X113492939Y-138830000D01*
X113692898Y-138790226D01*
X113881256Y-138712205D01*
X114050774Y-138598937D01*
X114094711Y-138555000D01*
X120855289Y-138555000D01*
X120899226Y-138598937D01*
X121068744Y-138712205D01*
X121257102Y-138790226D01*
X121457061Y-138830000D01*
X121660939Y-138830000D01*
X121860898Y-138790226D01*
X122049256Y-138712205D01*
X122218774Y-138598937D01*
X122362937Y-138454774D01*
X122476205Y-138285256D01*
X122554226Y-138096898D01*
X122594000Y-137896939D01*
X122594000Y-137693061D01*
X122554226Y-137493102D01*
X122476205Y-137304744D01*
X122362937Y-137135226D01*
X122218774Y-136991063D01*
X122049256Y-136877795D01*
X121860898Y-136799774D01*
X121660939Y-136760000D01*
X121457061Y-136760000D01*
X121257102Y-136799774D01*
X121068744Y-136877795D01*
X120899226Y-136991063D01*
X120855289Y-137035000D01*
X114094711Y-137035000D01*
X114050774Y-136991063D01*
X113881256Y-136877795D01*
X113692898Y-136799774D01*
X113492939Y-136760000D01*
X113289061Y-136760000D01*
X113089102Y-136799774D01*
X112900744Y-136877795D01*
X112731226Y-136991063D01*
X112587063Y-137135226D01*
X112473795Y-137304744D01*
X112395774Y-137493102D01*
X112356000Y-137693061D01*
X106090594Y-137693061D01*
X106241120Y-137542535D01*
X106394005Y-137313727D01*
X106499314Y-137059490D01*
X106553000Y-136789592D01*
X106553000Y-136514408D01*
X106499314Y-136244510D01*
X106394005Y-135990273D01*
X106241120Y-135761465D01*
X106046535Y-135566880D01*
X105817727Y-135413995D01*
X105740485Y-135382000D01*
X105817727Y-135350005D01*
X106046535Y-135197120D01*
X106241120Y-135002535D01*
X106394005Y-134773727D01*
X106499314Y-134519490D01*
X106553000Y-134249592D01*
X106553000Y-133974408D01*
X106499314Y-133704510D01*
X106394005Y-133450273D01*
X106241120Y-133221465D01*
X106046535Y-133026880D01*
X105817727Y-132873995D01*
X105740485Y-132842000D01*
X105817727Y-132810005D01*
X106046535Y-132657120D01*
X106241120Y-132462535D01*
X106394005Y-132233727D01*
X106499314Y-131979490D01*
X106553000Y-131709592D01*
X106553000Y-131434408D01*
X106499314Y-131164510D01*
X106394005Y-130910273D01*
X106241120Y-130681465D01*
X106046535Y-130486880D01*
X105817727Y-130333995D01*
X105740485Y-130302000D01*
X105817727Y-130270005D01*
X106046535Y-130117120D01*
X106241120Y-129922535D01*
X106394005Y-129693727D01*
X106499314Y-129439490D01*
X106553000Y-129169592D01*
X106553000Y-128894408D01*
X106499314Y-128624510D01*
X106394005Y-128370273D01*
X106241120Y-128141465D01*
X106046535Y-127946880D01*
X105817727Y-127793995D01*
X105740485Y-127762000D01*
X105817727Y-127730005D01*
X106046535Y-127577120D01*
X106241120Y-127382535D01*
X106394005Y-127153727D01*
X106499314Y-126899490D01*
X106553000Y-126629592D01*
X106553000Y-126354408D01*
X106499314Y-126084510D01*
X106394005Y-125830273D01*
X106241120Y-125601465D01*
X106046535Y-125406880D01*
X105817727Y-125253995D01*
X105740485Y-125222000D01*
X105817727Y-125190005D01*
X106046535Y-125037120D01*
X106241120Y-124842535D01*
X106394005Y-124613727D01*
X106426000Y-124536485D01*
X106457995Y-124613727D01*
X106610880Y-124842535D01*
X106805465Y-125037120D01*
X107034273Y-125190005D01*
X107288510Y-125295314D01*
X107558408Y-125349000D01*
X107833592Y-125349000D01*
X108103490Y-125295314D01*
X108357727Y-125190005D01*
X108586535Y-125037120D01*
X108781120Y-124842535D01*
X108934005Y-124613727D01*
X109039314Y-124359490D01*
X109093000Y-124089592D01*
X109093000Y-123814408D01*
X109039314Y-123544510D01*
X108934005Y-123290273D01*
X108781120Y-123061465D01*
X108586535Y-122866880D01*
X108357727Y-122713995D01*
X108286057Y-122684308D01*
X108299023Y-122679636D01*
X108414980Y-122617656D01*
X108481960Y-122377565D01*
X107696000Y-121591605D01*
X106910040Y-122377565D01*
X106977020Y-122617656D01*
X107112760Y-122681485D01*
X107034273Y-122713995D01*
X106805465Y-122866880D01*
X106610880Y-123061465D01*
X106457995Y-123290273D01*
X106426000Y-123367515D01*
X106394005Y-123290273D01*
X106241120Y-123061465D01*
X106046535Y-122866880D01*
X105817727Y-122713995D01*
X105740485Y-122682000D01*
X105817727Y-122650005D01*
X106046535Y-122497120D01*
X106241120Y-122302535D01*
X106394005Y-122073727D01*
X106423692Y-122002057D01*
X106428364Y-122015023D01*
X106490344Y-122130980D01*
X106730435Y-122197960D01*
X107516395Y-121412000D01*
X107875605Y-121412000D01*
X108661565Y-122197960D01*
X108901656Y-122130980D01*
X109018756Y-121881952D01*
X109085023Y-121614865D01*
X109097910Y-121339983D01*
X109056922Y-121067867D01*
X108963636Y-120808977D01*
X108901656Y-120693020D01*
X108661565Y-120626040D01*
X107875605Y-121412000D01*
X107516395Y-121412000D01*
X106730435Y-120626040D01*
X106490344Y-120693020D01*
X106426515Y-120828760D01*
X106394005Y-120750273D01*
X106241120Y-120521465D01*
X106046535Y-120326880D01*
X105817727Y-120173995D01*
X105740485Y-120142000D01*
X105817727Y-120110005D01*
X106046535Y-119957120D01*
X106241120Y-119762535D01*
X106394005Y-119533727D01*
X106426000Y-119456485D01*
X106457995Y-119533727D01*
X106610880Y-119762535D01*
X106805465Y-119957120D01*
X107034273Y-120110005D01*
X107105943Y-120139692D01*
X107092977Y-120144364D01*
X106977020Y-120206344D01*
X106910040Y-120446435D01*
X107696000Y-121232395D01*
X108481960Y-120446435D01*
X108414980Y-120206344D01*
X108279240Y-120142515D01*
X108357727Y-120110005D01*
X108586535Y-119957120D01*
X108781120Y-119762535D01*
X108934005Y-119533727D01*
X109039314Y-119279490D01*
X109093000Y-119009592D01*
X109093000Y-118944017D01*
X121534090Y-118944017D01*
X121575078Y-119216133D01*
X121668364Y-119475023D01*
X121730344Y-119590980D01*
X121970435Y-119657960D01*
X122756395Y-118872000D01*
X121970435Y-118086040D01*
X121730344Y-118153020D01*
X121613244Y-118402048D01*
X121546977Y-118669135D01*
X121534090Y-118944017D01*
X109093000Y-118944017D01*
X109093000Y-118734408D01*
X109039314Y-118464510D01*
X108934005Y-118210273D01*
X108781120Y-117981465D01*
X108706090Y-117906435D01*
X122150040Y-117906435D01*
X122936000Y-118692395D01*
X123721960Y-117906435D01*
X123654980Y-117666344D01*
X123405952Y-117549244D01*
X123138865Y-117482977D01*
X122863983Y-117470090D01*
X122591867Y-117511078D01*
X122332977Y-117604364D01*
X122217020Y-117666344D01*
X122150040Y-117906435D01*
X108706090Y-117906435D01*
X108586535Y-117786880D01*
X108357727Y-117633995D01*
X108103490Y-117528686D01*
X107833592Y-117475000D01*
X107558408Y-117475000D01*
X107288510Y-117528686D01*
X107034273Y-117633995D01*
X106805465Y-117786880D01*
X106610880Y-117981465D01*
X106457995Y-118210273D01*
X106426000Y-118287515D01*
X106394005Y-118210273D01*
X106241120Y-117981465D01*
X106046535Y-117786880D01*
X105817727Y-117633995D01*
X105563490Y-117528686D01*
X105293592Y-117475000D01*
X105018408Y-117475000D01*
X104748510Y-117528686D01*
X104494273Y-117633995D01*
X104265465Y-117786880D01*
X104070880Y-117981465D01*
X103917995Y-118210273D01*
X103812686Y-118464510D01*
X103759000Y-118734408D01*
X88765000Y-118734408D01*
X88765000Y-114706061D01*
X91040000Y-114706061D01*
X91040000Y-114909939D01*
X91079774Y-115109898D01*
X91157795Y-115298256D01*
X91271063Y-115467774D01*
X91415226Y-115611937D01*
X91584744Y-115725205D01*
X91773102Y-115803226D01*
X91973061Y-115843000D01*
X92176939Y-115843000D01*
X92376898Y-115803226D01*
X92565256Y-115725205D01*
X92734774Y-115611937D01*
X92778711Y-115568000D01*
X102928289Y-115568000D01*
X102972226Y-115611937D01*
X103141744Y-115725205D01*
X103330102Y-115803226D01*
X103530061Y-115843000D01*
X103733939Y-115843000D01*
X103933898Y-115803226D01*
X104122256Y-115725205D01*
X104291774Y-115611937D01*
X104435937Y-115467774D01*
X104549205Y-115298256D01*
X104627226Y-115109898D01*
X104667000Y-114909939D01*
X104667000Y-114706061D01*
X104627226Y-114506102D01*
X104549205Y-114317744D01*
X104435937Y-114148226D01*
X104291774Y-114004063D01*
X104122256Y-113890795D01*
X103933898Y-113812774D01*
X103733939Y-113773000D01*
X103530061Y-113773000D01*
X103330102Y-113812774D01*
X103141744Y-113890795D01*
X102972226Y-114004063D01*
X102928289Y-114048000D01*
X92778711Y-114048000D01*
X92734774Y-114004063D01*
X92565256Y-113890795D01*
X92376898Y-113812774D01*
X92176939Y-113773000D01*
X91973061Y-113773000D01*
X91773102Y-113812774D01*
X91584744Y-113890795D01*
X91415226Y-114004063D01*
X91271063Y-114148226D01*
X91157795Y-114317744D01*
X91079774Y-114506102D01*
X91040000Y-114706061D01*
X88765000Y-114706061D01*
X88765000Y-114516131D01*
X88852988Y-114428143D01*
X88959283Y-114298623D01*
X89064675Y-114101447D01*
X89129576Y-113887500D01*
X89151490Y-113665001D01*
X89129576Y-113442502D01*
X89064675Y-113228554D01*
X88959283Y-113031378D01*
X88817448Y-112858552D01*
X88644622Y-112716717D01*
X88515000Y-112647433D01*
X88515000Y-112547061D01*
X91167000Y-112547061D01*
X91167000Y-112750939D01*
X91206774Y-112950898D01*
X91284795Y-113139256D01*
X91398063Y-113308774D01*
X91542226Y-113452937D01*
X91711744Y-113566205D01*
X91900102Y-113644226D01*
X92100061Y-113684000D01*
X92303939Y-113684000D01*
X92503898Y-113644226D01*
X92692256Y-113566205D01*
X92861774Y-113452937D01*
X92905711Y-113409000D01*
X102928289Y-113409000D01*
X102972226Y-113452937D01*
X103141744Y-113566205D01*
X103330102Y-113644226D01*
X103530061Y-113684000D01*
X103733939Y-113684000D01*
X103933898Y-113644226D01*
X104122256Y-113566205D01*
X104291774Y-113452937D01*
X104435937Y-113308774D01*
X104549205Y-113139256D01*
X104627226Y-112950898D01*
X104667000Y-112750939D01*
X104667000Y-112547061D01*
X104627226Y-112347102D01*
X104549205Y-112158744D01*
X104435937Y-111989226D01*
X104291774Y-111845063D01*
X104122256Y-111731795D01*
X103933898Y-111653774D01*
X103733939Y-111614000D01*
X103530061Y-111614000D01*
X103330102Y-111653774D01*
X103141744Y-111731795D01*
X102972226Y-111845063D01*
X102928289Y-111889000D01*
X92905711Y-111889000D01*
X92861774Y-111845063D01*
X92692256Y-111731795D01*
X92503898Y-111653774D01*
X92303939Y-111614000D01*
X92100061Y-111614000D01*
X91900102Y-111653774D01*
X91711744Y-111731795D01*
X91542226Y-111845063D01*
X91398063Y-111989226D01*
X91284795Y-112158744D01*
X91206774Y-112347102D01*
X91167000Y-112547061D01*
X88515000Y-112547061D01*
X88515000Y-105649578D01*
X89272044Y-104892535D01*
X89328898Y-104881226D01*
X89517256Y-104803205D01*
X89686774Y-104689937D01*
X89830937Y-104545774D01*
X89944205Y-104376256D01*
X90022226Y-104187898D01*
X90062000Y-103987939D01*
X90062000Y-103784061D01*
X90022226Y-103584102D01*
X89944205Y-103395744D01*
X89830937Y-103226226D01*
X89686774Y-103082063D01*
X89517256Y-102968795D01*
X89328898Y-102890774D01*
X89128939Y-102851000D01*
X88925061Y-102851000D01*
X88725102Y-102890774D01*
X88536744Y-102968795D01*
X88367226Y-103082063D01*
X88223063Y-103226226D01*
X88109795Y-103395744D01*
X88031774Y-103584102D01*
X88020465Y-103640956D01*
X87274000Y-104387422D01*
X87274000Y-101275700D01*
X89598965Y-101275700D01*
X89661430Y-101494115D01*
X89765305Y-101696147D01*
X89906599Y-101874032D01*
X90079881Y-102020934D01*
X90278493Y-102131208D01*
X90433190Y-102186764D01*
X90612000Y-102060963D01*
X90612000Y-101094800D01*
X90866000Y-101094800D01*
X90866000Y-102060963D01*
X91044810Y-102186764D01*
X91199507Y-102131208D01*
X91398119Y-102020934D01*
X91571401Y-101874032D01*
X91712695Y-101696147D01*
X91816570Y-101494115D01*
X91879035Y-101275700D01*
X94048965Y-101275700D01*
X94111430Y-101494115D01*
X94215305Y-101696147D01*
X94356599Y-101874032D01*
X94529881Y-102020934D01*
X94728493Y-102131208D01*
X94883190Y-102186764D01*
X95062000Y-102060963D01*
X95062000Y-101094800D01*
X95316000Y-101094800D01*
X95316000Y-102060963D01*
X95494810Y-102186764D01*
X95649507Y-102131208D01*
X95848119Y-102020934D01*
X96021401Y-101874032D01*
X96162695Y-101696147D01*
X96266570Y-101494115D01*
X96329035Y-101275700D01*
X96188772Y-101094800D01*
X95316000Y-101094800D01*
X95062000Y-101094800D01*
X94189228Y-101094800D01*
X94048965Y-101275700D01*
X91879035Y-101275700D01*
X91738772Y-101094800D01*
X90866000Y-101094800D01*
X90612000Y-101094800D01*
X89739228Y-101094800D01*
X89598965Y-101275700D01*
X87274000Y-101275700D01*
X87274000Y-100659900D01*
X89598965Y-100659900D01*
X89739228Y-100840800D01*
X90612000Y-100840800D01*
X90612000Y-99874637D01*
X90866000Y-99874637D01*
X90866000Y-100840800D01*
X91738772Y-100840800D01*
X91879035Y-100659900D01*
X94048965Y-100659900D01*
X94189228Y-100840800D01*
X95062000Y-100840800D01*
X95062000Y-99874637D01*
X95316000Y-99874637D01*
X95316000Y-100840800D01*
X96188772Y-100840800D01*
X96329035Y-100659900D01*
X96266570Y-100441485D01*
X96162695Y-100239453D01*
X96021401Y-100061568D01*
X95848119Y-99914666D01*
X95649507Y-99804392D01*
X95494810Y-99748836D01*
X95316000Y-99874637D01*
X95062000Y-99874637D01*
X94883190Y-99748836D01*
X94728493Y-99804392D01*
X94529881Y-99914666D01*
X94356599Y-100061568D01*
X94215305Y-100239453D01*
X94111430Y-100441485D01*
X94048965Y-100659900D01*
X91879035Y-100659900D01*
X91816570Y-100441485D01*
X91712695Y-100239453D01*
X91571401Y-100061568D01*
X91398119Y-99914666D01*
X91199507Y-99804392D01*
X91044810Y-99748836D01*
X90866000Y-99874637D01*
X90612000Y-99874637D01*
X90433190Y-99748836D01*
X90278493Y-99804392D01*
X90079881Y-99914666D01*
X89906599Y-100061568D01*
X89765305Y-100239453D01*
X89661430Y-100441485D01*
X89598965Y-100659900D01*
X87274000Y-100659900D01*
X87274000Y-98094800D01*
X87654000Y-98094800D01*
X87654000Y-98544800D01*
X87700585Y-98763787D01*
X87788997Y-98969478D01*
X87915839Y-99153969D01*
X88076236Y-99310169D01*
X88264024Y-99432076D01*
X88487126Y-99511919D01*
X88662000Y-99385754D01*
X88662000Y-98094800D01*
X87654000Y-98094800D01*
X87274000Y-98094800D01*
X87274000Y-97179442D01*
X87699039Y-97179082D01*
X87654000Y-97390800D01*
X87654000Y-97840800D01*
X88662000Y-97840800D01*
X88662000Y-97820800D01*
X88916000Y-97820800D01*
X88916000Y-97840800D01*
X88936000Y-97840800D01*
X88936000Y-98094800D01*
X88916000Y-98094800D01*
X88916000Y-99385754D01*
X89090874Y-99511919D01*
X89313976Y-99432076D01*
X89501764Y-99310169D01*
X89662161Y-99153969D01*
X89789003Y-98969478D01*
X89822509Y-98891526D01*
X89855009Y-98924254D01*
X89862421Y-98930299D01*
X89927064Y-98982273D01*
X89979040Y-99016285D01*
X90030484Y-99050984D01*
X90038928Y-99055474D01*
X90038931Y-99055476D01*
X90038935Y-99055477D01*
X90112434Y-99093903D01*
X90169999Y-99117160D01*
X90227232Y-99141219D01*
X90236388Y-99143983D01*
X90315960Y-99167402D01*
X90376949Y-99179036D01*
X90437757Y-99191519D01*
X90447276Y-99192452D01*
X90447281Y-99192453D01*
X90447287Y-99192453D01*
X90529880Y-99199970D01*
X90591968Y-99199537D01*
X90654057Y-99199970D01*
X90663576Y-99199037D01*
X90746066Y-99190366D01*
X90806891Y-99177880D01*
X90867857Y-99166250D01*
X90877013Y-99163486D01*
X90956249Y-99138959D01*
X91013469Y-99114906D01*
X91071052Y-99091641D01*
X91079497Y-99087151D01*
X91152460Y-99047700D01*
X91203936Y-99012979D01*
X91255877Y-98978990D01*
X91263289Y-98972946D01*
X91327200Y-98920074D01*
X91370935Y-98876033D01*
X91415311Y-98832576D01*
X91421408Y-98825207D01*
X91473832Y-98760928D01*
X91508210Y-98709184D01*
X91543263Y-98657990D01*
X91547812Y-98649577D01*
X91586752Y-98576341D01*
X91610413Y-98518934D01*
X91634867Y-98461880D01*
X91637695Y-98452743D01*
X91637697Y-98452739D01*
X91637699Y-98452731D01*
X91661669Y-98373339D01*
X91673723Y-98312463D01*
X91686637Y-98251705D01*
X91687637Y-98242193D01*
X91695731Y-98159643D01*
X91695731Y-98159637D01*
X91699000Y-98126447D01*
X91699000Y-97202800D01*
X94229001Y-97202800D01*
X94229000Y-98126446D01*
X94232311Y-98160062D01*
X94232311Y-98165580D01*
X94233310Y-98175092D01*
X94237257Y-98210284D01*
X94238912Y-98227082D01*
X94239277Y-98228284D01*
X94242556Y-98257520D01*
X94255470Y-98318273D01*
X94267523Y-98379147D01*
X94270351Y-98388282D01*
X94270352Y-98388288D01*
X94270354Y-98388293D01*
X94295431Y-98467347D01*
X94319898Y-98524432D01*
X94343550Y-98581816D01*
X94348099Y-98590230D01*
X94388059Y-98662916D01*
X94423164Y-98714185D01*
X94457489Y-98765849D01*
X94463585Y-98773219D01*
X94516901Y-98836758D01*
X94561240Y-98880178D01*
X94605009Y-98924254D01*
X94612421Y-98930299D01*
X94677064Y-98982273D01*
X94729040Y-99016285D01*
X94780484Y-99050984D01*
X94788928Y-99055474D01*
X94788931Y-99055476D01*
X94788935Y-99055477D01*
X94862434Y-99093903D01*
X94919999Y-99117160D01*
X94977232Y-99141219D01*
X94986388Y-99143983D01*
X95065960Y-99167402D01*
X95126949Y-99179036D01*
X95187757Y-99191519D01*
X95197276Y-99192452D01*
X95197281Y-99192453D01*
X95197287Y-99192453D01*
X95279880Y-99199970D01*
X95341968Y-99199537D01*
X95404057Y-99199970D01*
X95413576Y-99199037D01*
X95496066Y-99190366D01*
X95556891Y-99177880D01*
X95617857Y-99166250D01*
X95627013Y-99163486D01*
X95706249Y-99138959D01*
X95763469Y-99114906D01*
X95821052Y-99091641D01*
X95829497Y-99087151D01*
X95902460Y-99047700D01*
X95953936Y-99012979D01*
X96005877Y-98978990D01*
X96013289Y-98972946D01*
X96077200Y-98920074D01*
X96105509Y-98891567D01*
X96138997Y-98969478D01*
X96265839Y-99153969D01*
X96426236Y-99310169D01*
X96614024Y-99432076D01*
X96837126Y-99511919D01*
X97012000Y-99385754D01*
X97012000Y-98094800D01*
X97266000Y-98094800D01*
X97266000Y-99385754D01*
X97440874Y-99511919D01*
X97663976Y-99432076D01*
X97851764Y-99310169D01*
X98012161Y-99153969D01*
X98139003Y-98969478D01*
X98227415Y-98763787D01*
X98274000Y-98544800D01*
X98274000Y-98094800D01*
X97266000Y-98094800D01*
X97012000Y-98094800D01*
X96992000Y-98094800D01*
X96992000Y-97840800D01*
X97012000Y-97840800D01*
X97012000Y-97820800D01*
X97266000Y-97820800D01*
X97266000Y-97840800D01*
X98274000Y-97840800D01*
X98274000Y-97390800D01*
X98228711Y-97177904D01*
X127864001Y-97179954D01*
G04 #@! TA.AperFunction,Conductor*
D20*
G36*
X127864001Y-97179954D02*
G01*
X127864000Y-114267581D01*
X127860807Y-114300000D01*
X127873550Y-114429383D01*
X127911290Y-114553793D01*
X127972575Y-114668450D01*
X127981744Y-114679622D01*
X128055052Y-114768948D01*
X128155550Y-114851425D01*
X128270207Y-114912710D01*
X128394617Y-114950450D01*
X128524000Y-114963193D01*
X128556419Y-114960000D01*
X135230001Y-114960000D01*
X135230001Y-122663609D01*
X135033102Y-122702774D01*
X134844744Y-122780795D01*
X134675226Y-122894063D01*
X134531063Y-123038226D01*
X134417795Y-123207744D01*
X134339774Y-123396102D01*
X134300000Y-123596061D01*
X134300000Y-123799939D01*
X134339774Y-123999898D01*
X134417795Y-124188256D01*
X134531063Y-124357774D01*
X134675226Y-124501937D01*
X134844744Y-124615205D01*
X134849990Y-124617378D01*
X134849991Y-149060658D01*
X134849990Y-149060668D01*
X134849991Y-160784000D01*
X133877000Y-160784000D01*
X133877000Y-160680061D01*
X133837226Y-160480102D01*
X133759205Y-160291744D01*
X133645937Y-160122226D01*
X133501774Y-159978063D01*
X133332256Y-159864795D01*
X133143898Y-159786774D01*
X132943939Y-159747000D01*
X132881802Y-159747000D01*
X129538000Y-156403199D01*
X129538000Y-150387000D01*
X129641939Y-150387000D01*
X129841898Y-150347226D01*
X130030256Y-150269205D01*
X130199774Y-150155937D01*
X130343937Y-150011774D01*
X130457205Y-149842256D01*
X130535226Y-149653898D01*
X130575000Y-149453939D01*
X130575000Y-149250061D01*
X130535226Y-149050102D01*
X130457205Y-148861744D01*
X130343937Y-148692226D01*
X130300000Y-148648289D01*
X130300000Y-145991711D01*
X130343937Y-145947774D01*
X130457205Y-145778256D01*
X130535226Y-145589898D01*
X130575000Y-145389939D01*
X130575000Y-145186061D01*
X130535226Y-144986102D01*
X130457205Y-144797744D01*
X130343937Y-144628226D01*
X130199774Y-144484063D01*
X130030256Y-144370795D01*
X129841898Y-144292774D01*
X129689697Y-144262500D01*
X129695205Y-144254256D01*
X129773226Y-144065898D01*
X129813000Y-143865939D01*
X129813000Y-143662061D01*
X129773226Y-143462102D01*
X129695205Y-143273744D01*
X129581937Y-143104226D01*
X129437774Y-142960063D01*
X129268256Y-142846795D01*
X129079898Y-142768774D01*
X128879939Y-142729000D01*
X128676061Y-142729000D01*
X128639000Y-142736372D01*
X128639000Y-138428000D01*
X130614289Y-138428000D01*
X130658226Y-138471937D01*
X130827744Y-138585205D01*
X131016102Y-138663226D01*
X131216061Y-138703000D01*
X131419939Y-138703000D01*
X131619898Y-138663226D01*
X131808256Y-138585205D01*
X131977774Y-138471937D01*
X132121937Y-138327774D01*
X132235205Y-138158256D01*
X132313226Y-137969898D01*
X132353000Y-137769939D01*
X132353000Y-137566061D01*
X132313226Y-137366102D01*
X132235205Y-137177744D01*
X132121937Y-137008226D01*
X131977774Y-136864063D01*
X131808256Y-136750795D01*
X131619898Y-136672774D01*
X131419939Y-136633000D01*
X131216061Y-136633000D01*
X131016102Y-136672774D01*
X130827744Y-136750795D01*
X130658226Y-136864063D01*
X130614289Y-136908000D01*
X128639000Y-136908000D01*
X128639000Y-129605685D01*
X129297452Y-128947234D01*
X129427156Y-128789189D01*
X129555764Y-128548581D01*
X129634960Y-128287508D01*
X129661700Y-128016000D01*
X129634960Y-127744493D01*
X129555764Y-127483420D01*
X129427156Y-127242812D01*
X129254081Y-127031919D01*
X129043188Y-126858844D01*
X128802580Y-126730236D01*
X128541507Y-126651040D01*
X128270000Y-126624300D01*
X127998492Y-126651040D01*
X127737419Y-126730236D01*
X127496811Y-126858844D01*
X127338766Y-126988548D01*
X126373485Y-127953830D01*
X126366535Y-127946880D01*
X126137727Y-127793995D01*
X126066057Y-127764308D01*
X126079023Y-127759636D01*
X126194980Y-127697656D01*
X126261960Y-127457565D01*
X125476000Y-126671605D01*
X125461858Y-126685748D01*
X125282253Y-126506143D01*
X125296395Y-126492000D01*
X125655605Y-126492000D01*
X126441565Y-127277960D01*
X126681656Y-127210980D01*
X126798756Y-126961952D01*
X126865023Y-126694865D01*
X126877910Y-126419983D01*
X126836922Y-126147867D01*
X126743636Y-125888977D01*
X126681656Y-125773020D01*
X126441565Y-125706040D01*
X125655605Y-126492000D01*
X125296395Y-126492000D01*
X125282253Y-126477858D01*
X125461858Y-126298253D01*
X125476000Y-126312395D01*
X126261960Y-125526435D01*
X126194980Y-125286344D01*
X126059240Y-125222515D01*
X126137727Y-125190005D01*
X126366535Y-125037120D01*
X126561120Y-124842535D01*
X126714005Y-124613727D01*
X126819314Y-124359490D01*
X126873000Y-124089592D01*
X126873000Y-123814408D01*
X126819314Y-123544510D01*
X126714005Y-123290273D01*
X126561120Y-123061465D01*
X126366535Y-122866880D01*
X126137727Y-122713995D01*
X126060485Y-122682000D01*
X126137727Y-122650005D01*
X126366535Y-122497120D01*
X126561120Y-122302535D01*
X126714005Y-122073727D01*
X126819314Y-121819490D01*
X126873000Y-121549592D01*
X126873000Y-121274408D01*
X126819314Y-121004510D01*
X126714005Y-120750273D01*
X126561120Y-120521465D01*
X126366535Y-120326880D01*
X126137727Y-120173995D01*
X126060485Y-120142000D01*
X126137727Y-120110005D01*
X126366535Y-119957120D01*
X126561120Y-119762535D01*
X126714005Y-119533727D01*
X126819314Y-119279490D01*
X126873000Y-119009592D01*
X126873000Y-118734408D01*
X126819314Y-118464510D01*
X126714005Y-118210273D01*
X126561120Y-117981465D01*
X126366535Y-117786880D01*
X126137727Y-117633995D01*
X125883490Y-117528686D01*
X125613592Y-117475000D01*
X125338408Y-117475000D01*
X125068510Y-117528686D01*
X124814273Y-117633995D01*
X124585465Y-117786880D01*
X124390880Y-117981465D01*
X124237995Y-118210273D01*
X124208308Y-118281943D01*
X124203636Y-118268977D01*
X124141656Y-118153020D01*
X123901565Y-118086040D01*
X123115605Y-118872000D01*
X123901565Y-119657960D01*
X124141656Y-119590980D01*
X124205485Y-119455240D01*
X124237995Y-119533727D01*
X124390880Y-119762535D01*
X124585465Y-119957120D01*
X124814273Y-120110005D01*
X124891515Y-120142000D01*
X124814273Y-120173995D01*
X124585465Y-120326880D01*
X124390880Y-120521465D01*
X124237995Y-120750273D01*
X124206000Y-120827515D01*
X124174005Y-120750273D01*
X124021120Y-120521465D01*
X123826535Y-120326880D01*
X123597727Y-120173995D01*
X123526057Y-120144308D01*
X123539023Y-120139636D01*
X123654980Y-120077656D01*
X123721960Y-119837565D01*
X122936000Y-119051605D01*
X122150040Y-119837565D01*
X122217020Y-120077656D01*
X122352760Y-120141485D01*
X122274273Y-120173995D01*
X122045465Y-120326880D01*
X121850880Y-120521465D01*
X121697995Y-120750273D01*
X121592686Y-121004510D01*
X121539000Y-121274408D01*
X121539000Y-121549592D01*
X121592686Y-121819490D01*
X121697995Y-122073727D01*
X121850880Y-122302535D01*
X122045465Y-122497120D01*
X122274273Y-122650005D01*
X122351515Y-122682000D01*
X122274273Y-122713995D01*
X122045465Y-122866880D01*
X121850880Y-123061465D01*
X121697995Y-123290273D01*
X121592686Y-123544510D01*
X121539000Y-123814408D01*
X121539000Y-124089592D01*
X121592686Y-124359490D01*
X121697995Y-124613727D01*
X121850880Y-124842535D01*
X122045465Y-125037120D01*
X122274273Y-125190005D01*
X122351515Y-125222000D01*
X122274273Y-125253995D01*
X122045465Y-125406880D01*
X121850880Y-125601465D01*
X121697995Y-125830273D01*
X121592686Y-126084510D01*
X121539000Y-126354408D01*
X121539000Y-126629592D01*
X121592686Y-126899490D01*
X121697995Y-127153727D01*
X121850880Y-127382535D01*
X122045465Y-127577120D01*
X122274273Y-127730005D01*
X122351515Y-127762000D01*
X122274273Y-127793995D01*
X122045465Y-127946880D01*
X121850880Y-128141465D01*
X121697995Y-128370273D01*
X121592686Y-128624510D01*
X121539000Y-128894408D01*
X121539000Y-129169592D01*
X121592686Y-129439490D01*
X121697995Y-129693727D01*
X121850880Y-129922535D01*
X122045465Y-130117120D01*
X122274273Y-130270005D01*
X122351515Y-130302000D01*
X122274273Y-130333995D01*
X122045465Y-130486880D01*
X121850880Y-130681465D01*
X121697995Y-130910273D01*
X121592686Y-131164510D01*
X121539000Y-131434408D01*
X121539000Y-131709592D01*
X121592686Y-131979490D01*
X121697995Y-132233727D01*
X121850880Y-132462535D01*
X122045465Y-132657120D01*
X122274273Y-132810005D01*
X122528510Y-132915314D01*
X122798408Y-132969000D01*
X123073592Y-132969000D01*
X123343490Y-132915314D01*
X123379000Y-132900605D01*
X123378999Y-151282524D01*
X123378999Y-151282525D01*
X123379000Y-152922520D01*
X123374718Y-152965999D01*
X123391804Y-153139489D01*
X123442411Y-153306312D01*
X123524589Y-153460058D01*
X123607467Y-153561045D01*
X123607470Y-153561048D01*
X123635183Y-153594816D01*
X123668950Y-153622528D01*
X123961465Y-153915043D01*
X123972774Y-153971898D01*
X124050795Y-154160256D01*
X124164063Y-154329774D01*
X124308226Y-154473937D01*
X124477744Y-154587205D01*
X124666102Y-154665226D01*
X124866061Y-154705000D01*
X125069939Y-154705000D01*
X125269898Y-154665226D01*
X125458256Y-154587205D01*
X125627774Y-154473937D01*
X125771937Y-154329774D01*
X125869000Y-154184509D01*
X125869000Y-156786036D01*
X125869001Y-156786046D01*
X125869000Y-159651000D01*
X109289131Y-159651000D01*
X109729140Y-159210992D01*
X109772449Y-159175449D01*
X109914284Y-159002623D01*
X110019676Y-158805447D01*
X110084577Y-158591499D01*
X110101000Y-158424752D01*
X110106491Y-158369000D01*
X110101000Y-158313248D01*
X110101000Y-157937565D01*
X110720040Y-157937565D01*
X110787020Y-158177656D01*
X111036048Y-158294756D01*
X111303135Y-158361023D01*
X111578017Y-158373910D01*
X111850133Y-158332922D01*
X112109023Y-158239636D01*
X112224980Y-158177656D01*
X112291960Y-157937565D01*
X111506000Y-157151605D01*
X110720040Y-157937565D01*
X110101000Y-157937565D01*
X110101000Y-157787884D01*
X110204005Y-157633727D01*
X110233692Y-157562057D01*
X110238364Y-157575023D01*
X110300344Y-157690980D01*
X110540435Y-157757960D01*
X111326395Y-156972000D01*
X110540435Y-156186040D01*
X110300344Y-156253020D01*
X110236515Y-156388760D01*
X110204005Y-156310273D01*
X110051120Y-156081465D01*
X109856535Y-155886880D01*
X109627727Y-155733995D01*
X109550485Y-155702000D01*
X109627727Y-155670005D01*
X109856535Y-155517120D01*
X109976090Y-155397565D01*
X110720040Y-155397565D01*
X110787020Y-155637656D01*
X110917644Y-155699079D01*
X110902977Y-155704364D01*
X110787020Y-155766344D01*
X110720040Y-156006435D01*
X111506000Y-156792395D01*
X112291960Y-156006435D01*
X112224980Y-155766344D01*
X112094356Y-155704921D01*
X112109023Y-155699636D01*
X112224980Y-155637656D01*
X112291960Y-155397565D01*
X111506000Y-154611605D01*
X110720040Y-155397565D01*
X109976090Y-155397565D01*
X110051120Y-155322535D01*
X110204005Y-155093727D01*
X110233692Y-155022057D01*
X110238364Y-155035023D01*
X110300344Y-155150980D01*
X110540435Y-155217960D01*
X111326395Y-154432000D01*
X111685605Y-154432000D01*
X112471565Y-155217960D01*
X112711656Y-155150980D01*
X112775485Y-155015240D01*
X112807995Y-155093727D01*
X112960880Y-155322535D01*
X113155465Y-155517120D01*
X113384273Y-155670005D01*
X113461515Y-155702000D01*
X113384273Y-155733995D01*
X113155465Y-155886880D01*
X112960880Y-156081465D01*
X112807995Y-156310273D01*
X112778308Y-156381943D01*
X112773636Y-156368977D01*
X112711656Y-156253020D01*
X112471565Y-156186040D01*
X111685605Y-156972000D01*
X112471565Y-157757960D01*
X112711656Y-157690980D01*
X112775485Y-157555240D01*
X112807995Y-157633727D01*
X112960880Y-157862535D01*
X113155465Y-158057120D01*
X113384273Y-158210005D01*
X113638510Y-158315314D01*
X113908408Y-158369000D01*
X114183592Y-158369000D01*
X114453490Y-158315314D01*
X114707727Y-158210005D01*
X114936535Y-158057120D01*
X115131120Y-157862535D01*
X115284005Y-157633727D01*
X115316000Y-157556485D01*
X115347995Y-157633727D01*
X115500880Y-157862535D01*
X115695465Y-158057120D01*
X115924273Y-158210005D01*
X116178510Y-158315314D01*
X116448408Y-158369000D01*
X116723592Y-158369000D01*
X116993490Y-158315314D01*
X117247727Y-158210005D01*
X117476535Y-158057120D01*
X117671120Y-157862535D01*
X117824005Y-157633727D01*
X117856000Y-157556485D01*
X117887995Y-157633727D01*
X118040880Y-157862535D01*
X118235465Y-158057120D01*
X118464273Y-158210005D01*
X118718510Y-158315314D01*
X118988408Y-158369000D01*
X119263592Y-158369000D01*
X119533490Y-158315314D01*
X119787727Y-158210005D01*
X120016535Y-158057120D01*
X120211120Y-157862535D01*
X120364005Y-157633727D01*
X120396000Y-157556485D01*
X120427995Y-157633727D01*
X120580880Y-157862535D01*
X120775465Y-158057120D01*
X121004273Y-158210005D01*
X121258510Y-158315314D01*
X121528408Y-158369000D01*
X121803592Y-158369000D01*
X122073490Y-158315314D01*
X122327727Y-158210005D01*
X122556535Y-158057120D01*
X122751120Y-157862535D01*
X122904005Y-157633727D01*
X123009314Y-157379490D01*
X123063000Y-157109592D01*
X123063000Y-156834408D01*
X123009314Y-156564510D01*
X122904005Y-156310273D01*
X122751120Y-156081465D01*
X122556535Y-155886880D01*
X122327727Y-155733995D01*
X122250485Y-155702000D01*
X122327727Y-155670005D01*
X122556535Y-155517120D01*
X122751120Y-155322535D01*
X122904005Y-155093727D01*
X123009314Y-154839490D01*
X123063000Y-154569592D01*
X123063000Y-154294408D01*
X123009314Y-154024510D01*
X122904005Y-153770273D01*
X122751120Y-153541465D01*
X122556535Y-153346880D01*
X122327727Y-153193995D01*
X122073490Y-153088686D01*
X121803592Y-153035000D01*
X121528408Y-153035000D01*
X121258510Y-153088686D01*
X121004273Y-153193995D01*
X120775465Y-153346880D01*
X120580880Y-153541465D01*
X120427995Y-153770273D01*
X120396000Y-153847515D01*
X120364005Y-153770273D01*
X120211120Y-153541465D01*
X120016535Y-153346880D01*
X119787727Y-153193995D01*
X119533490Y-153088686D01*
X119263592Y-153035000D01*
X118988408Y-153035000D01*
X118718510Y-153088686D01*
X118464273Y-153193995D01*
X118235465Y-153346880D01*
X118040880Y-153541465D01*
X117887995Y-153770273D01*
X117856000Y-153847515D01*
X117824005Y-153770273D01*
X117671120Y-153541465D01*
X117476535Y-153346880D01*
X117247727Y-153193995D01*
X116993490Y-153088686D01*
X116723592Y-153035000D01*
X116448408Y-153035000D01*
X116178510Y-153088686D01*
X115924273Y-153193995D01*
X115695465Y-153346880D01*
X115500880Y-153541465D01*
X115347995Y-153770273D01*
X115316000Y-153847515D01*
X115284005Y-153770273D01*
X115131120Y-153541465D01*
X114936535Y-153346880D01*
X114707727Y-153193995D01*
X114453490Y-153088686D01*
X114183592Y-153035000D01*
X113908408Y-153035000D01*
X113638510Y-153088686D01*
X113384273Y-153193995D01*
X113155465Y-153346880D01*
X112960880Y-153541465D01*
X112807995Y-153770273D01*
X112778308Y-153841943D01*
X112773636Y-153828977D01*
X112711656Y-153713020D01*
X112471565Y-153646040D01*
X111685605Y-154432000D01*
X111326395Y-154432000D01*
X110540435Y-153646040D01*
X110300344Y-153713020D01*
X110236515Y-153848760D01*
X110204005Y-153770273D01*
X110051120Y-153541465D01*
X109976090Y-153466435D01*
X110720040Y-153466435D01*
X111506000Y-154252395D01*
X112291960Y-153466435D01*
X112224980Y-153226344D01*
X111975952Y-153109244D01*
X111708865Y-153042977D01*
X111433983Y-153030090D01*
X111161867Y-153071078D01*
X110902977Y-153164364D01*
X110787020Y-153226344D01*
X110720040Y-153466435D01*
X109976090Y-153466435D01*
X109856535Y-153346880D01*
X109627727Y-153193995D01*
X109373490Y-153088686D01*
X109103592Y-153035000D01*
X108828408Y-153035000D01*
X108558510Y-153088686D01*
X108304273Y-153193995D01*
X108075465Y-153346880D01*
X107880880Y-153541465D01*
X107727995Y-153770273D01*
X107622686Y-154024510D01*
X107569000Y-154294408D01*
X107569000Y-154569592D01*
X107622686Y-154839490D01*
X107727995Y-155093727D01*
X107880880Y-155322535D01*
X108075465Y-155517120D01*
X108304273Y-155670005D01*
X108381515Y-155702000D01*
X108304273Y-155733995D01*
X108150116Y-155837000D01*
X104483132Y-155837000D01*
X102862000Y-154215869D01*
X102862000Y-132913248D01*
X102845577Y-132746501D01*
X102780676Y-132532553D01*
X102675284Y-132335377D01*
X102533449Y-132162551D01*
X102360623Y-132020716D01*
X102163447Y-131915324D01*
X101949499Y-131850423D01*
X101727000Y-131828509D01*
X101504502Y-131850423D01*
X101290554Y-131915324D01*
X101217000Y-131954639D01*
X101217000Y-127449711D01*
X101260937Y-127405774D01*
X101374205Y-127236256D01*
X101452226Y-127047898D01*
X101492000Y-126847939D01*
X101492000Y-126644061D01*
X101452226Y-126444102D01*
X101374205Y-126255744D01*
X101260937Y-126086226D01*
X101116774Y-125942063D01*
X100947256Y-125828795D01*
X100758898Y-125750774D01*
X100558939Y-125711000D01*
X100355061Y-125711000D01*
X100155102Y-125750774D01*
X99966744Y-125828795D01*
X99797226Y-125942063D01*
X99653063Y-126086226D01*
X99539795Y-126255744D01*
X99461774Y-126444102D01*
X99422000Y-126644061D01*
X99422000Y-126847939D01*
X99461774Y-127047898D01*
X99539795Y-127236256D01*
X99653063Y-127405774D01*
X99697000Y-127449711D01*
X99697001Y-136964288D01*
X99653063Y-137008226D01*
X99539795Y-137177744D01*
X99461774Y-137366102D01*
X99422000Y-137566061D01*
X99422000Y-137769939D01*
X99461774Y-137969898D01*
X99539795Y-138158256D01*
X99653063Y-138327774D01*
X99697000Y-138371711D01*
X99697001Y-147759288D01*
X99653063Y-147803226D01*
X99539795Y-147972744D01*
X99461774Y-148161102D01*
X99422000Y-148361061D01*
X99422000Y-148564939D01*
X99461774Y-148764898D01*
X99539795Y-148953256D01*
X99653063Y-149122774D01*
X99797226Y-149266937D01*
X99966744Y-149380205D01*
X100155102Y-149458226D01*
X100355061Y-149498000D01*
X100558939Y-149498000D01*
X100592000Y-149491424D01*
X100592000Y-154630248D01*
X100586509Y-154686000D01*
X100592000Y-154741751D01*
X100608423Y-154908498D01*
X100673324Y-155122446D01*
X100778716Y-155319623D01*
X100920551Y-155492449D01*
X100963865Y-155527996D01*
X103171009Y-157735141D01*
X103206551Y-157778449D01*
X103379377Y-157920284D01*
X103521033Y-157996000D01*
X90986460Y-157996000D01*
X91091167Y-157839294D01*
X91169188Y-157650936D01*
X91208962Y-157450977D01*
X91208962Y-157388839D01*
X93511802Y-155086000D01*
X93573939Y-155086000D01*
X93773898Y-155046226D01*
X93962256Y-154968205D01*
X94131774Y-154854937D01*
X94275937Y-154710774D01*
X94389205Y-154541256D01*
X94467226Y-154352898D01*
X94507000Y-154152939D01*
X94507000Y-153949061D01*
X94467226Y-153749102D01*
X94389205Y-153560744D01*
X94275937Y-153391226D01*
X94131774Y-153247063D01*
X93962256Y-153133795D01*
X93773898Y-153055774D01*
X93573939Y-153016000D01*
X93370061Y-153016000D01*
X93170102Y-153055774D01*
X92981744Y-153133795D01*
X92812226Y-153247063D01*
X92668063Y-153391226D01*
X92554795Y-153560744D01*
X92476774Y-153749102D01*
X92437000Y-153949061D01*
X92437000Y-154011198D01*
X90162000Y-156286199D01*
X90162000Y-153217752D01*
X90167491Y-153162000D01*
X90145577Y-152939501D01*
X90080676Y-152725553D01*
X89975284Y-152528377D01*
X89868989Y-152398857D01*
X89833449Y-152355551D01*
X89790140Y-152320008D01*
X89106993Y-151636862D01*
X89106989Y-151636857D01*
X88765000Y-151294868D01*
X88765000Y-135915061D01*
X90278000Y-135915061D01*
X90278000Y-136118939D01*
X90317774Y-136318898D01*
X90395795Y-136507256D01*
X90509063Y-136676774D01*
X90653226Y-136820937D01*
X90822744Y-136934205D01*
X91011102Y-137012226D01*
X91211061Y-137052000D01*
X91414939Y-137052000D01*
X91614898Y-137012226D01*
X91803256Y-136934205D01*
X91972774Y-136820937D01*
X92016711Y-136777000D01*
X92895289Y-136777000D01*
X92939226Y-136820937D01*
X93108744Y-136934205D01*
X93297102Y-137012226D01*
X93497061Y-137052000D01*
X93700939Y-137052000D01*
X93900898Y-137012226D01*
X94089256Y-136934205D01*
X94258774Y-136820937D01*
X94402937Y-136676774D01*
X94516205Y-136507256D01*
X94594226Y-136318898D01*
X94634000Y-136118939D01*
X94634000Y-135915061D01*
X94594226Y-135715102D01*
X94516205Y-135526744D01*
X94402937Y-135357226D01*
X94258774Y-135213063D01*
X94089256Y-135099795D01*
X93900898Y-135021774D01*
X93700939Y-134982000D01*
X93497061Y-134982000D01*
X93297102Y-135021774D01*
X93108744Y-135099795D01*
X92939226Y-135213063D01*
X92895289Y-135257000D01*
X92016711Y-135257000D01*
X91972774Y-135213063D01*
X91803256Y-135099795D01*
X91614898Y-135021774D01*
X91414939Y-134982000D01*
X91211061Y-134982000D01*
X91011102Y-135021774D01*
X90822744Y-135099795D01*
X90653226Y-135213063D01*
X90509063Y-135357226D01*
X90395795Y-135526744D01*
X90317774Y-135715102D01*
X90278000Y-135915061D01*
X88765000Y-135915061D01*
X88765000Y-118734408D01*
X103759000Y-118734408D01*
X103759000Y-119009592D01*
X103812686Y-119279490D01*
X103917995Y-119533727D01*
X104070880Y-119762535D01*
X104265465Y-119957120D01*
X104494273Y-120110005D01*
X104571515Y-120142000D01*
X104494273Y-120173995D01*
X104265465Y-120326880D01*
X104070880Y-120521465D01*
X103917995Y-120750273D01*
X103812686Y-121004510D01*
X103759000Y-121274408D01*
X103759000Y-121549592D01*
X103812686Y-121819490D01*
X103917995Y-122073727D01*
X104070880Y-122302535D01*
X104265465Y-122497120D01*
X104494273Y-122650005D01*
X104571515Y-122682000D01*
X104494273Y-122713995D01*
X104265465Y-122866880D01*
X104070880Y-123061465D01*
X103917995Y-123290273D01*
X103812686Y-123544510D01*
X103759000Y-123814408D01*
X103759000Y-124089592D01*
X103812686Y-124359490D01*
X103917995Y-124613727D01*
X104070880Y-124842535D01*
X104265465Y-125037120D01*
X104494273Y-125190005D01*
X104571515Y-125222000D01*
X104494273Y-125253995D01*
X104265465Y-125406880D01*
X104070880Y-125601465D01*
X103917995Y-125830273D01*
X103812686Y-126084510D01*
X103759000Y-126354408D01*
X103759000Y-126629592D01*
X103812686Y-126899490D01*
X103917995Y-127153727D01*
X104070880Y-127382535D01*
X104265465Y-127577120D01*
X104494273Y-127730005D01*
X104571515Y-127762000D01*
X104494273Y-127793995D01*
X104265465Y-127946880D01*
X104070880Y-128141465D01*
X103917995Y-128370273D01*
X103812686Y-128624510D01*
X103759000Y-128894408D01*
X103759000Y-129169592D01*
X103812686Y-129439490D01*
X103917995Y-129693727D01*
X104070880Y-129922535D01*
X104265465Y-130117120D01*
X104494273Y-130270005D01*
X104571515Y-130302000D01*
X104494273Y-130333995D01*
X104265465Y-130486880D01*
X104070880Y-130681465D01*
X103917995Y-130910273D01*
X103812686Y-131164510D01*
X103759000Y-131434408D01*
X103759000Y-131709592D01*
X103812686Y-131979490D01*
X103917995Y-132233727D01*
X104070880Y-132462535D01*
X104265465Y-132657120D01*
X104494273Y-132810005D01*
X104571515Y-132842000D01*
X104494273Y-132873995D01*
X104265465Y-133026880D01*
X104070880Y-133221465D01*
X103917995Y-133450273D01*
X103812686Y-133704510D01*
X103759000Y-133974408D01*
X103759000Y-134249592D01*
X103812686Y-134519490D01*
X103917995Y-134773727D01*
X104070880Y-135002535D01*
X104265465Y-135197120D01*
X104494273Y-135350005D01*
X104571515Y-135382000D01*
X104494273Y-135413995D01*
X104265465Y-135566880D01*
X104070880Y-135761465D01*
X103917995Y-135990273D01*
X103812686Y-136244510D01*
X103759000Y-136514408D01*
X103759000Y-136789592D01*
X103812686Y-137059490D01*
X103917995Y-137313727D01*
X104070880Y-137542535D01*
X104265465Y-137737120D01*
X104494273Y-137890005D01*
X104571515Y-137922000D01*
X104494273Y-137953995D01*
X104265465Y-138106880D01*
X104070880Y-138301465D01*
X103917995Y-138530273D01*
X103812686Y-138784510D01*
X103759000Y-139054408D01*
X103759000Y-139329592D01*
X103812686Y-139599490D01*
X103917995Y-139853727D01*
X104070880Y-140082535D01*
X104265465Y-140277120D01*
X104494273Y-140430005D01*
X104571515Y-140462000D01*
X104494273Y-140493995D01*
X104265465Y-140646880D01*
X104070880Y-140841465D01*
X103917995Y-141070273D01*
X103812686Y-141324510D01*
X103759000Y-141594408D01*
X103759000Y-141869592D01*
X103812686Y-142139490D01*
X103917995Y-142393727D01*
X104070880Y-142622535D01*
X104265465Y-142817120D01*
X104494273Y-142970005D01*
X104571515Y-143002000D01*
X104494273Y-143033995D01*
X104265465Y-143186880D01*
X104070880Y-143381465D01*
X103917995Y-143610273D01*
X103812686Y-143864510D01*
X103759000Y-144134408D01*
X103759000Y-144409592D01*
X103812686Y-144679490D01*
X103917995Y-144933727D01*
X104070880Y-145162535D01*
X104265465Y-145357120D01*
X104494273Y-145510005D01*
X104571515Y-145542000D01*
X104494273Y-145573995D01*
X104265465Y-145726880D01*
X104070880Y-145921465D01*
X103917995Y-146150273D01*
X103812686Y-146404510D01*
X103759000Y-146674408D01*
X103759000Y-146949592D01*
X103812686Y-147219490D01*
X103917995Y-147473727D01*
X104070880Y-147702535D01*
X104265465Y-147897120D01*
X104494273Y-148050005D01*
X104571515Y-148082000D01*
X104494273Y-148113995D01*
X104265465Y-148266880D01*
X104070880Y-148461465D01*
X103917995Y-148690273D01*
X103812686Y-148944510D01*
X103759000Y-149214408D01*
X103759000Y-149489592D01*
X103812686Y-149759490D01*
X103917995Y-150013727D01*
X104070880Y-150242535D01*
X104265465Y-150437120D01*
X104494273Y-150590005D01*
X104571515Y-150622000D01*
X104494273Y-150653995D01*
X104265465Y-150806880D01*
X104070880Y-151001465D01*
X103917995Y-151230273D01*
X103812686Y-151484510D01*
X103759000Y-151754408D01*
X103759000Y-152029592D01*
X103812686Y-152299490D01*
X103917995Y-152553727D01*
X104070880Y-152782535D01*
X104265465Y-152977120D01*
X104494273Y-153130005D01*
X104748510Y-153235314D01*
X105018408Y-153289000D01*
X105293592Y-153289000D01*
X105563490Y-153235314D01*
X105817727Y-153130005D01*
X106046535Y-152977120D01*
X106241120Y-152782535D01*
X106394005Y-152553727D01*
X106499314Y-152299490D01*
X106553000Y-152029592D01*
X106553000Y-151754408D01*
X106499314Y-151484510D01*
X106394005Y-151230273D01*
X106241120Y-151001465D01*
X106046535Y-150806880D01*
X105817727Y-150653995D01*
X105740485Y-150622000D01*
X105817727Y-150590005D01*
X106046535Y-150437120D01*
X106241120Y-150242535D01*
X106394005Y-150013727D01*
X106499314Y-149759490D01*
X106553000Y-149489592D01*
X106553000Y-149214408D01*
X106499314Y-148944510D01*
X106394005Y-148690273D01*
X106241120Y-148461465D01*
X106046535Y-148266880D01*
X105817727Y-148113995D01*
X105740485Y-148082000D01*
X105817727Y-148050005D01*
X106046535Y-147897120D01*
X106241120Y-147702535D01*
X106394005Y-147473727D01*
X106499314Y-147219490D01*
X106553000Y-146949592D01*
X106553000Y-146674408D01*
X106499314Y-146404510D01*
X106394005Y-146150273D01*
X106241120Y-145921465D01*
X106046535Y-145726880D01*
X105817727Y-145573995D01*
X105740485Y-145542000D01*
X105817727Y-145510005D01*
X106046535Y-145357120D01*
X106241120Y-145162535D01*
X106394005Y-144933727D01*
X106499314Y-144679490D01*
X106553000Y-144409592D01*
X106553000Y-144134408D01*
X106499314Y-143864510D01*
X106394005Y-143610273D01*
X106241120Y-143381465D01*
X106046535Y-143186880D01*
X105817727Y-143033995D01*
X105740485Y-143002000D01*
X105817727Y-142970005D01*
X106046535Y-142817120D01*
X106241120Y-142622535D01*
X106394005Y-142393727D01*
X106499314Y-142139490D01*
X106553000Y-141869592D01*
X106553000Y-141594408D01*
X106499314Y-141324510D01*
X106394005Y-141070273D01*
X106241120Y-140841465D01*
X106046535Y-140646880D01*
X105817727Y-140493995D01*
X105740485Y-140462000D01*
X105817727Y-140430005D01*
X106046535Y-140277120D01*
X106241120Y-140082535D01*
X106394005Y-139853727D01*
X106499314Y-139599490D01*
X106553000Y-139329592D01*
X106553000Y-139054408D01*
X106499314Y-138784510D01*
X106394005Y-138530273D01*
X106241120Y-138301465D01*
X106046535Y-138106880D01*
X105817727Y-137953995D01*
X105740485Y-137922000D01*
X105817727Y-137890005D01*
X106046535Y-137737120D01*
X106090594Y-137693061D01*
X112356000Y-137693061D01*
X112356000Y-137896939D01*
X112395774Y-138096898D01*
X112473795Y-138285256D01*
X112587063Y-138454774D01*
X112731226Y-138598937D01*
X112900744Y-138712205D01*
X113089102Y-138790226D01*
X113289061Y-138830000D01*
X113492939Y-138830000D01*
X113692898Y-138790226D01*
X113881256Y-138712205D01*
X114050774Y-138598937D01*
X114094711Y-138555000D01*
X120855289Y-138555000D01*
X120899226Y-138598937D01*
X121068744Y-138712205D01*
X121257102Y-138790226D01*
X121457061Y-138830000D01*
X121660939Y-138830000D01*
X121860898Y-138790226D01*
X122049256Y-138712205D01*
X122218774Y-138598937D01*
X122362937Y-138454774D01*
X122476205Y-138285256D01*
X122554226Y-138096898D01*
X122594000Y-137896939D01*
X122594000Y-137693061D01*
X122554226Y-137493102D01*
X122476205Y-137304744D01*
X122362937Y-137135226D01*
X122218774Y-136991063D01*
X122049256Y-136877795D01*
X121860898Y-136799774D01*
X121660939Y-136760000D01*
X121457061Y-136760000D01*
X121257102Y-136799774D01*
X121068744Y-136877795D01*
X120899226Y-136991063D01*
X120855289Y-137035000D01*
X114094711Y-137035000D01*
X114050774Y-136991063D01*
X113881256Y-136877795D01*
X113692898Y-136799774D01*
X113492939Y-136760000D01*
X113289061Y-136760000D01*
X113089102Y-136799774D01*
X112900744Y-136877795D01*
X112731226Y-136991063D01*
X112587063Y-137135226D01*
X112473795Y-137304744D01*
X112395774Y-137493102D01*
X112356000Y-137693061D01*
X106090594Y-137693061D01*
X106241120Y-137542535D01*
X106394005Y-137313727D01*
X106499314Y-137059490D01*
X106553000Y-136789592D01*
X106553000Y-136514408D01*
X106499314Y-136244510D01*
X106394005Y-135990273D01*
X106241120Y-135761465D01*
X106046535Y-135566880D01*
X105817727Y-135413995D01*
X105740485Y-135382000D01*
X105817727Y-135350005D01*
X106046535Y-135197120D01*
X106241120Y-135002535D01*
X106394005Y-134773727D01*
X106499314Y-134519490D01*
X106553000Y-134249592D01*
X106553000Y-133974408D01*
X106499314Y-133704510D01*
X106394005Y-133450273D01*
X106241120Y-133221465D01*
X106046535Y-133026880D01*
X105817727Y-132873995D01*
X105740485Y-132842000D01*
X105817727Y-132810005D01*
X106046535Y-132657120D01*
X106241120Y-132462535D01*
X106394005Y-132233727D01*
X106499314Y-131979490D01*
X106553000Y-131709592D01*
X106553000Y-131434408D01*
X106499314Y-131164510D01*
X106394005Y-130910273D01*
X106241120Y-130681465D01*
X106046535Y-130486880D01*
X105817727Y-130333995D01*
X105740485Y-130302000D01*
X105817727Y-130270005D01*
X106046535Y-130117120D01*
X106241120Y-129922535D01*
X106394005Y-129693727D01*
X106499314Y-129439490D01*
X106553000Y-129169592D01*
X106553000Y-128894408D01*
X106499314Y-128624510D01*
X106394005Y-128370273D01*
X106241120Y-128141465D01*
X106046535Y-127946880D01*
X105817727Y-127793995D01*
X105740485Y-127762000D01*
X105817727Y-127730005D01*
X106046535Y-127577120D01*
X106241120Y-127382535D01*
X106394005Y-127153727D01*
X106499314Y-126899490D01*
X106553000Y-126629592D01*
X106553000Y-126354408D01*
X106499314Y-126084510D01*
X106394005Y-125830273D01*
X106241120Y-125601465D01*
X106046535Y-125406880D01*
X105817727Y-125253995D01*
X105740485Y-125222000D01*
X105817727Y-125190005D01*
X106046535Y-125037120D01*
X106241120Y-124842535D01*
X106394005Y-124613727D01*
X106426000Y-124536485D01*
X106457995Y-124613727D01*
X106610880Y-124842535D01*
X106805465Y-125037120D01*
X107034273Y-125190005D01*
X107288510Y-125295314D01*
X107558408Y-125349000D01*
X107833592Y-125349000D01*
X108103490Y-125295314D01*
X108357727Y-125190005D01*
X108586535Y-125037120D01*
X108781120Y-124842535D01*
X108934005Y-124613727D01*
X109039314Y-124359490D01*
X109093000Y-124089592D01*
X109093000Y-123814408D01*
X109039314Y-123544510D01*
X108934005Y-123290273D01*
X108781120Y-123061465D01*
X108586535Y-122866880D01*
X108357727Y-122713995D01*
X108286057Y-122684308D01*
X108299023Y-122679636D01*
X108414980Y-122617656D01*
X108481960Y-122377565D01*
X107696000Y-121591605D01*
X106910040Y-122377565D01*
X106977020Y-122617656D01*
X107112760Y-122681485D01*
X107034273Y-122713995D01*
X106805465Y-122866880D01*
X106610880Y-123061465D01*
X106457995Y-123290273D01*
X106426000Y-123367515D01*
X106394005Y-123290273D01*
X106241120Y-123061465D01*
X106046535Y-122866880D01*
X105817727Y-122713995D01*
X105740485Y-122682000D01*
X105817727Y-122650005D01*
X106046535Y-122497120D01*
X106241120Y-122302535D01*
X106394005Y-122073727D01*
X106423692Y-122002057D01*
X106428364Y-122015023D01*
X106490344Y-122130980D01*
X106730435Y-122197960D01*
X107516395Y-121412000D01*
X107875605Y-121412000D01*
X108661565Y-122197960D01*
X108901656Y-122130980D01*
X109018756Y-121881952D01*
X109085023Y-121614865D01*
X109097910Y-121339983D01*
X109056922Y-121067867D01*
X108963636Y-120808977D01*
X108901656Y-120693020D01*
X108661565Y-120626040D01*
X107875605Y-121412000D01*
X107516395Y-121412000D01*
X106730435Y-120626040D01*
X106490344Y-120693020D01*
X106426515Y-120828760D01*
X106394005Y-120750273D01*
X106241120Y-120521465D01*
X106046535Y-120326880D01*
X105817727Y-120173995D01*
X105740485Y-120142000D01*
X105817727Y-120110005D01*
X106046535Y-119957120D01*
X106241120Y-119762535D01*
X106394005Y-119533727D01*
X106426000Y-119456485D01*
X106457995Y-119533727D01*
X106610880Y-119762535D01*
X106805465Y-119957120D01*
X107034273Y-120110005D01*
X107105943Y-120139692D01*
X107092977Y-120144364D01*
X106977020Y-120206344D01*
X106910040Y-120446435D01*
X107696000Y-121232395D01*
X108481960Y-120446435D01*
X108414980Y-120206344D01*
X108279240Y-120142515D01*
X108357727Y-120110005D01*
X108586535Y-119957120D01*
X108781120Y-119762535D01*
X108934005Y-119533727D01*
X109039314Y-119279490D01*
X109093000Y-119009592D01*
X109093000Y-118944017D01*
X121534090Y-118944017D01*
X121575078Y-119216133D01*
X121668364Y-119475023D01*
X121730344Y-119590980D01*
X121970435Y-119657960D01*
X122756395Y-118872000D01*
X121970435Y-118086040D01*
X121730344Y-118153020D01*
X121613244Y-118402048D01*
X121546977Y-118669135D01*
X121534090Y-118944017D01*
X109093000Y-118944017D01*
X109093000Y-118734408D01*
X109039314Y-118464510D01*
X108934005Y-118210273D01*
X108781120Y-117981465D01*
X108706090Y-117906435D01*
X122150040Y-117906435D01*
X122936000Y-118692395D01*
X123721960Y-117906435D01*
X123654980Y-117666344D01*
X123405952Y-117549244D01*
X123138865Y-117482977D01*
X122863983Y-117470090D01*
X122591867Y-117511078D01*
X122332977Y-117604364D01*
X122217020Y-117666344D01*
X122150040Y-117906435D01*
X108706090Y-117906435D01*
X108586535Y-117786880D01*
X108357727Y-117633995D01*
X108103490Y-117528686D01*
X107833592Y-117475000D01*
X107558408Y-117475000D01*
X107288510Y-117528686D01*
X107034273Y-117633995D01*
X106805465Y-117786880D01*
X106610880Y-117981465D01*
X106457995Y-118210273D01*
X106426000Y-118287515D01*
X106394005Y-118210273D01*
X106241120Y-117981465D01*
X106046535Y-117786880D01*
X105817727Y-117633995D01*
X105563490Y-117528686D01*
X105293592Y-117475000D01*
X105018408Y-117475000D01*
X104748510Y-117528686D01*
X104494273Y-117633995D01*
X104265465Y-117786880D01*
X104070880Y-117981465D01*
X103917995Y-118210273D01*
X103812686Y-118464510D01*
X103759000Y-118734408D01*
X88765000Y-118734408D01*
X88765000Y-114706061D01*
X91040000Y-114706061D01*
X91040000Y-114909939D01*
X91079774Y-115109898D01*
X91157795Y-115298256D01*
X91271063Y-115467774D01*
X91415226Y-115611937D01*
X91584744Y-115725205D01*
X91773102Y-115803226D01*
X91973061Y-115843000D01*
X92176939Y-115843000D01*
X92376898Y-115803226D01*
X92565256Y-115725205D01*
X92734774Y-115611937D01*
X92778711Y-115568000D01*
X102928289Y-115568000D01*
X102972226Y-115611937D01*
X103141744Y-115725205D01*
X103330102Y-115803226D01*
X103530061Y-115843000D01*
X103733939Y-115843000D01*
X103933898Y-115803226D01*
X104122256Y-115725205D01*
X104291774Y-115611937D01*
X104435937Y-115467774D01*
X104549205Y-115298256D01*
X104627226Y-115109898D01*
X104667000Y-114909939D01*
X104667000Y-114706061D01*
X104627226Y-114506102D01*
X104549205Y-114317744D01*
X104435937Y-114148226D01*
X104291774Y-114004063D01*
X104122256Y-113890795D01*
X103933898Y-113812774D01*
X103733939Y-113773000D01*
X103530061Y-113773000D01*
X103330102Y-113812774D01*
X103141744Y-113890795D01*
X102972226Y-114004063D01*
X102928289Y-114048000D01*
X92778711Y-114048000D01*
X92734774Y-114004063D01*
X92565256Y-113890795D01*
X92376898Y-113812774D01*
X92176939Y-113773000D01*
X91973061Y-113773000D01*
X91773102Y-113812774D01*
X91584744Y-113890795D01*
X91415226Y-114004063D01*
X91271063Y-114148226D01*
X91157795Y-114317744D01*
X91079774Y-114506102D01*
X91040000Y-114706061D01*
X88765000Y-114706061D01*
X88765000Y-114516131D01*
X88852988Y-114428143D01*
X88959283Y-114298623D01*
X89064675Y-114101447D01*
X89129576Y-113887500D01*
X89151490Y-113665001D01*
X89129576Y-113442502D01*
X89064675Y-113228554D01*
X88959283Y-113031378D01*
X88817448Y-112858552D01*
X88644622Y-112716717D01*
X88515000Y-112647433D01*
X88515000Y-112547061D01*
X91167000Y-112547061D01*
X91167000Y-112750939D01*
X91206774Y-112950898D01*
X91284795Y-113139256D01*
X91398063Y-113308774D01*
X91542226Y-113452937D01*
X91711744Y-113566205D01*
X91900102Y-113644226D01*
X92100061Y-113684000D01*
X92303939Y-113684000D01*
X92503898Y-113644226D01*
X92692256Y-113566205D01*
X92861774Y-113452937D01*
X92905711Y-113409000D01*
X102928289Y-113409000D01*
X102972226Y-113452937D01*
X103141744Y-113566205D01*
X103330102Y-113644226D01*
X103530061Y-113684000D01*
X103733939Y-113684000D01*
X103933898Y-113644226D01*
X104122256Y-113566205D01*
X104291774Y-113452937D01*
X104435937Y-113308774D01*
X104549205Y-113139256D01*
X104627226Y-112950898D01*
X104667000Y-112750939D01*
X104667000Y-112547061D01*
X104627226Y-112347102D01*
X104549205Y-112158744D01*
X104435937Y-111989226D01*
X104291774Y-111845063D01*
X104122256Y-111731795D01*
X103933898Y-111653774D01*
X103733939Y-111614000D01*
X103530061Y-111614000D01*
X103330102Y-111653774D01*
X103141744Y-111731795D01*
X102972226Y-111845063D01*
X102928289Y-111889000D01*
X92905711Y-111889000D01*
X92861774Y-111845063D01*
X92692256Y-111731795D01*
X92503898Y-111653774D01*
X92303939Y-111614000D01*
X92100061Y-111614000D01*
X91900102Y-111653774D01*
X91711744Y-111731795D01*
X91542226Y-111845063D01*
X91398063Y-111989226D01*
X91284795Y-112158744D01*
X91206774Y-112347102D01*
X91167000Y-112547061D01*
X88515000Y-112547061D01*
X88515000Y-105649578D01*
X89272044Y-104892535D01*
X89328898Y-104881226D01*
X89517256Y-104803205D01*
X89686774Y-104689937D01*
X89830937Y-104545774D01*
X89944205Y-104376256D01*
X90022226Y-104187898D01*
X90062000Y-103987939D01*
X90062000Y-103784061D01*
X90022226Y-103584102D01*
X89944205Y-103395744D01*
X89830937Y-103226226D01*
X89686774Y-103082063D01*
X89517256Y-102968795D01*
X89328898Y-102890774D01*
X89128939Y-102851000D01*
X88925061Y-102851000D01*
X88725102Y-102890774D01*
X88536744Y-102968795D01*
X88367226Y-103082063D01*
X88223063Y-103226226D01*
X88109795Y-103395744D01*
X88031774Y-103584102D01*
X88020465Y-103640956D01*
X87274000Y-104387422D01*
X87274000Y-101275700D01*
X89598965Y-101275700D01*
X89661430Y-101494115D01*
X89765305Y-101696147D01*
X89906599Y-101874032D01*
X90079881Y-102020934D01*
X90278493Y-102131208D01*
X90433190Y-102186764D01*
X90612000Y-102060963D01*
X90612000Y-101094800D01*
X90866000Y-101094800D01*
X90866000Y-102060963D01*
X91044810Y-102186764D01*
X91199507Y-102131208D01*
X91398119Y-102020934D01*
X91571401Y-101874032D01*
X91712695Y-101696147D01*
X91816570Y-101494115D01*
X91879035Y-101275700D01*
X94048965Y-101275700D01*
X94111430Y-101494115D01*
X94215305Y-101696147D01*
X94356599Y-101874032D01*
X94529881Y-102020934D01*
X94728493Y-102131208D01*
X94883190Y-102186764D01*
X95062000Y-102060963D01*
X95062000Y-101094800D01*
X95316000Y-101094800D01*
X95316000Y-102060963D01*
X95494810Y-102186764D01*
X95649507Y-102131208D01*
X95848119Y-102020934D01*
X96021401Y-101874032D01*
X96162695Y-101696147D01*
X96266570Y-101494115D01*
X96329035Y-101275700D01*
X96188772Y-101094800D01*
X95316000Y-101094800D01*
X95062000Y-101094800D01*
X94189228Y-101094800D01*
X94048965Y-101275700D01*
X91879035Y-101275700D01*
X91738772Y-101094800D01*
X90866000Y-101094800D01*
X90612000Y-101094800D01*
X89739228Y-101094800D01*
X89598965Y-101275700D01*
X87274000Y-101275700D01*
X87274000Y-100659900D01*
X89598965Y-100659900D01*
X89739228Y-100840800D01*
X90612000Y-100840800D01*
X90612000Y-99874637D01*
X90866000Y-99874637D01*
X90866000Y-100840800D01*
X91738772Y-100840800D01*
X91879035Y-100659900D01*
X94048965Y-100659900D01*
X94189228Y-100840800D01*
X95062000Y-100840800D01*
X95062000Y-99874637D01*
X95316000Y-99874637D01*
X95316000Y-100840800D01*
X96188772Y-100840800D01*
X96329035Y-100659900D01*
X96266570Y-100441485D01*
X96162695Y-100239453D01*
X96021401Y-100061568D01*
X95848119Y-99914666D01*
X95649507Y-99804392D01*
X95494810Y-99748836D01*
X95316000Y-99874637D01*
X95062000Y-99874637D01*
X94883190Y-99748836D01*
X94728493Y-99804392D01*
X94529881Y-99914666D01*
X94356599Y-100061568D01*
X94215305Y-100239453D01*
X94111430Y-100441485D01*
X94048965Y-100659900D01*
X91879035Y-100659900D01*
X91816570Y-100441485D01*
X91712695Y-100239453D01*
X91571401Y-100061568D01*
X91398119Y-99914666D01*
X91199507Y-99804392D01*
X91044810Y-99748836D01*
X90866000Y-99874637D01*
X90612000Y-99874637D01*
X90433190Y-99748836D01*
X90278493Y-99804392D01*
X90079881Y-99914666D01*
X89906599Y-100061568D01*
X89765305Y-100239453D01*
X89661430Y-100441485D01*
X89598965Y-100659900D01*
X87274000Y-100659900D01*
X87274000Y-98094800D01*
X87654000Y-98094800D01*
X87654000Y-98544800D01*
X87700585Y-98763787D01*
X87788997Y-98969478D01*
X87915839Y-99153969D01*
X88076236Y-99310169D01*
X88264024Y-99432076D01*
X88487126Y-99511919D01*
X88662000Y-99385754D01*
X88662000Y-98094800D01*
X87654000Y-98094800D01*
X87274000Y-98094800D01*
X87274000Y-97179442D01*
X87699039Y-97179082D01*
X87654000Y-97390800D01*
X87654000Y-97840800D01*
X88662000Y-97840800D01*
X88662000Y-97820800D01*
X88916000Y-97820800D01*
X88916000Y-97840800D01*
X88936000Y-97840800D01*
X88936000Y-98094800D01*
X88916000Y-98094800D01*
X88916000Y-99385754D01*
X89090874Y-99511919D01*
X89313976Y-99432076D01*
X89501764Y-99310169D01*
X89662161Y-99153969D01*
X89789003Y-98969478D01*
X89822509Y-98891526D01*
X89855009Y-98924254D01*
X89862421Y-98930299D01*
X89927064Y-98982273D01*
X89979040Y-99016285D01*
X90030484Y-99050984D01*
X90038928Y-99055474D01*
X90038931Y-99055476D01*
X90038935Y-99055477D01*
X90112434Y-99093903D01*
X90169999Y-99117160D01*
X90227232Y-99141219D01*
X90236388Y-99143983D01*
X90315960Y-99167402D01*
X90376949Y-99179036D01*
X90437757Y-99191519D01*
X90447276Y-99192452D01*
X90447281Y-99192453D01*
X90447287Y-99192453D01*
X90529880Y-99199970D01*
X90591968Y-99199537D01*
X90654057Y-99199970D01*
X90663576Y-99199037D01*
X90746066Y-99190366D01*
X90806891Y-99177880D01*
X90867857Y-99166250D01*
X90877013Y-99163486D01*
X90956249Y-99138959D01*
X91013469Y-99114906D01*
X91071052Y-99091641D01*
X91079497Y-99087151D01*
X91152460Y-99047700D01*
X91203936Y-99012979D01*
X91255877Y-98978990D01*
X91263289Y-98972946D01*
X91327200Y-98920074D01*
X91370935Y-98876033D01*
X91415311Y-98832576D01*
X91421408Y-98825207D01*
X91473832Y-98760928D01*
X91508210Y-98709184D01*
X91543263Y-98657990D01*
X91547812Y-98649577D01*
X91586752Y-98576341D01*
X91610413Y-98518934D01*
X91634867Y-98461880D01*
X91637695Y-98452743D01*
X91637697Y-98452739D01*
X91637699Y-98452731D01*
X91661669Y-98373339D01*
X91673723Y-98312463D01*
X91686637Y-98251705D01*
X91687637Y-98242193D01*
X91695731Y-98159643D01*
X91695731Y-98159637D01*
X91699000Y-98126447D01*
X91699000Y-97202800D01*
X94229001Y-97202800D01*
X94229000Y-98126446D01*
X94232311Y-98160062D01*
X94232311Y-98165580D01*
X94233310Y-98175092D01*
X94237257Y-98210284D01*
X94238912Y-98227082D01*
X94239277Y-98228284D01*
X94242556Y-98257520D01*
X94255470Y-98318273D01*
X94267523Y-98379147D01*
X94270351Y-98388282D01*
X94270352Y-98388288D01*
X94270354Y-98388293D01*
X94295431Y-98467347D01*
X94319898Y-98524432D01*
X94343550Y-98581816D01*
X94348099Y-98590230D01*
X94388059Y-98662916D01*
X94423164Y-98714185D01*
X94457489Y-98765849D01*
X94463585Y-98773219D01*
X94516901Y-98836758D01*
X94561240Y-98880178D01*
X94605009Y-98924254D01*
X94612421Y-98930299D01*
X94677064Y-98982273D01*
X94729040Y-99016285D01*
X94780484Y-99050984D01*
X94788928Y-99055474D01*
X94788931Y-99055476D01*
X94788935Y-99055477D01*
X94862434Y-99093903D01*
X94919999Y-99117160D01*
X94977232Y-99141219D01*
X94986388Y-99143983D01*
X95065960Y-99167402D01*
X95126949Y-99179036D01*
X95187757Y-99191519D01*
X95197276Y-99192452D01*
X95197281Y-99192453D01*
X95197287Y-99192453D01*
X95279880Y-99199970D01*
X95341968Y-99199537D01*
X95404057Y-99199970D01*
X95413576Y-99199037D01*
X95496066Y-99190366D01*
X95556891Y-99177880D01*
X95617857Y-99166250D01*
X95627013Y-99163486D01*
X95706249Y-99138959D01*
X95763469Y-99114906D01*
X95821052Y-99091641D01*
X95829497Y-99087151D01*
X95902460Y-99047700D01*
X95953936Y-99012979D01*
X96005877Y-98978990D01*
X96013289Y-98972946D01*
X96077200Y-98920074D01*
X96105509Y-98891567D01*
X96138997Y-98969478D01*
X96265839Y-99153969D01*
X96426236Y-99310169D01*
X96614024Y-99432076D01*
X96837126Y-99511919D01*
X97012000Y-99385754D01*
X97012000Y-98094800D01*
X97266000Y-98094800D01*
X97266000Y-99385754D01*
X97440874Y-99511919D01*
X97663976Y-99432076D01*
X97851764Y-99310169D01*
X98012161Y-99153969D01*
X98139003Y-98969478D01*
X98227415Y-98763787D01*
X98274000Y-98544800D01*
X98274000Y-98094800D01*
X97266000Y-98094800D01*
X97012000Y-98094800D01*
X96992000Y-98094800D01*
X96992000Y-97840800D01*
X97012000Y-97840800D01*
X97012000Y-97820800D01*
X97266000Y-97820800D01*
X97266000Y-97840800D01*
X98274000Y-97840800D01*
X98274000Y-97390800D01*
X98228711Y-97177904D01*
X127864001Y-97179954D01*
G37*
G04 #@! TD.AperFunction*
M02*
