G04 #@! TF.GenerationSoftware,KiCad,Pcbnew,(5.1.10)-1*
G04 #@! TF.CreationDate,2022-08-09T16:26:35+02:00*
G04 #@! TF.ProjectId,gbCartridge,67624361-7274-4726-9964-67652e6b6963,rev?*
G04 #@! TF.SameCoordinates,Original*
G04 #@! TF.FileFunction,Legend,Top*
G04 #@! TF.FilePolarity,Positive*
%FSLAX46Y46*%
G04 Gerber Fmt 4.6, Leading zero omitted, Abs format (unit mm)*
G04 Created by KiCad (PCBNEW (5.1.10)-1) date 2022-08-09 16:26:35*
%MOMM*%
%LPD*%
G01*
G04 APERTURE LIST*
%ADD10C,0.120000*%
%ADD11C,0.150000*%
%ADD12C,1.524000*%
%ADD13R,1.600000X1.300000*%
%ADD14R,1.600000X2.000000*%
%ADD15R,1.500000X0.800000*%
%ADD16R,2.000000X1.450000*%
%ADD17R,0.875000X1.900000*%
%ADD18R,2.900000X1.900000*%
%ADD19R,0.400000X1.350000*%
%ADD20O,1.000000X1.900000*%
%ADD21O,1.050000X1.250000*%
%ADD22R,1.400000X6.000000*%
%ADD23R,1.000000X6.000000*%
G04 APERTURE END LIST*
D10*
X128538000Y-117884000D02*
X128538000Y-122094000D01*
X128538000Y-122094000D02*
X131558000Y-122094000D01*
X131558000Y-122094000D02*
X131558000Y-117884000D01*
X135211000Y-153924000D02*
X135211000Y-150324000D01*
X135211000Y-153924000D02*
X135211000Y-156124000D01*
X128441000Y-153924000D02*
X128441000Y-151724000D01*
X128441000Y-153924000D02*
X128441000Y-156124000D01*
X95625000Y-150334000D02*
X95625000Y-152024000D01*
X95350000Y-150334000D02*
X95625000Y-150334000D01*
X95350000Y-147574000D02*
X95350000Y-150334000D01*
X95350000Y-144814000D02*
X95625000Y-144814000D01*
X95350000Y-147574000D02*
X95350000Y-144814000D01*
X102770000Y-150334000D02*
X102495000Y-150334000D01*
X102770000Y-147574000D02*
X102770000Y-150334000D01*
X102770000Y-144814000D02*
X102495000Y-144814000D01*
X102770000Y-147574000D02*
X102770000Y-144814000D01*
X87751000Y-150334000D02*
X87751000Y-152024000D01*
X87476000Y-150334000D02*
X87751000Y-150334000D01*
X87476000Y-147574000D02*
X87476000Y-150334000D01*
X87476000Y-144814000D02*
X87751000Y-144814000D01*
X87476000Y-147574000D02*
X87476000Y-144814000D01*
X94896000Y-150334000D02*
X94621000Y-150334000D01*
X94896000Y-147574000D02*
X94896000Y-150334000D01*
X94896000Y-144814000D02*
X94621000Y-144814000D01*
X94896000Y-147574000D02*
X94896000Y-144814000D01*
X124460000Y-152908000D02*
X124460000Y-117856000D01*
X126492000Y-152908000D02*
X124460000Y-152908000D01*
X126492000Y-117856000D02*
X126492000Y-152908000D01*
X124460000Y-117856000D02*
X126492000Y-117856000D01*
X104140000Y-117856000D02*
X104140000Y-152908000D01*
X106172000Y-117856000D02*
X104140000Y-117856000D01*
X106172000Y-152908000D02*
X106172000Y-117856000D01*
X104140000Y-152908000D02*
X106172000Y-152908000D01*
X104902000Y-155956000D02*
X104902000Y-98552000D01*
X125730000Y-155956000D02*
X104902000Y-155956000D01*
X125730000Y-98552000D02*
X125730000Y-155956000D01*
X104902000Y-98552000D02*
X125730000Y-98552000D01*
X105918000Y-98552000D02*
G75*
G03*
X105918000Y-98552000I-1016000J0D01*
G01*
X126746000Y-98552000D02*
G75*
G03*
X126746000Y-98552000I-1016000J0D01*
G01*
X126746000Y-155956000D02*
G75*
G03*
X126746000Y-155956000I-1016000J0D01*
G01*
X105918000Y-155956000D02*
G75*
G03*
X105918000Y-155956000I-1016000J0D01*
G01*
X127762000Y-98552000D02*
X127762000Y-155956000D01*
X104902000Y-96520000D02*
X125730000Y-96520000D01*
X102870000Y-155956000D02*
X102870000Y-98552000D01*
X125730000Y-157988000D02*
X104902000Y-157988000D01*
X127762000Y-155956000D02*
G75*
G02*
X125730000Y-157988000I-2032000J0D01*
G01*
X102870000Y-98552000D02*
G75*
G02*
X104902000Y-96520000I2032000J0D01*
G01*
X104902000Y-157988000D02*
G75*
G02*
X102870000Y-155956000I0J2032000D01*
G01*
X125730000Y-96520000D02*
G75*
G02*
X127762000Y-98552000I0J-2032000D01*
G01*
X134513000Y-137195000D02*
X134513000Y-133745000D01*
X134513000Y-137195000D02*
X134513000Y-139145000D01*
X129393000Y-137195000D02*
X129393000Y-135245000D01*
X129393000Y-137195000D02*
X129393000Y-139145000D01*
X129448000Y-143022000D02*
X133188000Y-143022000D01*
X129448000Y-148062000D02*
X133188000Y-148062000D01*
X133188000Y-144302000D02*
X133188000Y-143022000D01*
X133188000Y-148062000D02*
X133188000Y-146782000D01*
X129448000Y-145902000D02*
X129448000Y-145182000D01*
X129448000Y-148062000D02*
X129448000Y-147682000D01*
X129448000Y-143402000D02*
X129448000Y-143022000D01*
X134097500Y-146574742D02*
X134097500Y-147049258D01*
X135142500Y-146574742D02*
X135142500Y-147049258D01*
X134097500Y-143272742D02*
X134097500Y-143747258D01*
X135142500Y-143272742D02*
X135142500Y-143747258D01*
X129777258Y-130795500D02*
X129302742Y-130795500D01*
X129777258Y-131840500D02*
X129302742Y-131840500D01*
X90948742Y-122442500D02*
X91423258Y-122442500D01*
X90948742Y-121397500D02*
X91423258Y-121397500D01*
X91456742Y-104154500D02*
X91931258Y-104154500D01*
X91456742Y-103109500D02*
X91931258Y-103109500D01*
X95487258Y-103109500D02*
X95012742Y-103109500D01*
X95487258Y-104154500D02*
X95012742Y-104154500D01*
X88170000Y-119686000D02*
X88570000Y-119686000D01*
X91090000Y-119686000D02*
X96870000Y-119686000D01*
X99390000Y-119686000D02*
X102090000Y-119686000D01*
X91090000Y-105866000D02*
X96870000Y-105866000D01*
X88170000Y-105866000D02*
X88570000Y-105866000D01*
X99390000Y-105866000D02*
X102090000Y-105866000D01*
X102090000Y-105866000D02*
X102090000Y-119686000D01*
X88170000Y-119686000D02*
X88170000Y-105866000D01*
X88170000Y-107276000D02*
X87170000Y-107276000D01*
X88170000Y-118276000D02*
X87170000Y-118276000D01*
X86670000Y-117776000D02*
X86670000Y-107776000D01*
X87270000Y-118276000D02*
X87470000Y-117476000D01*
X87470000Y-117476000D02*
X87770000Y-115776000D01*
X87770000Y-115776000D02*
X87870000Y-114976000D01*
X87870000Y-114976000D02*
X87970000Y-113676000D01*
X87970000Y-113676000D02*
X87970000Y-111876000D01*
X87970000Y-111876000D02*
X87870000Y-110576000D01*
X87870000Y-110576000D02*
X87670000Y-109076000D01*
X87670000Y-109076000D02*
X87370000Y-107776000D01*
X87370000Y-107776000D02*
X87270000Y-107276000D01*
X86670000Y-117776000D02*
G75*
G03*
X87170000Y-118276000I500000J0D01*
G01*
X87170000Y-107276000D02*
G75*
G03*
X86670000Y-107776000I0J-500000D01*
G01*
X96834000Y-96767800D02*
X96834000Y-96517800D01*
X89094000Y-96767800D02*
X89094000Y-96517800D01*
X89964000Y-101237800D02*
X89094000Y-101237800D01*
X96834000Y-101237800D02*
X96834000Y-99167800D01*
X89094000Y-101237800D02*
X89094000Y-99167800D01*
X96834000Y-101237800D02*
X95964000Y-101237800D01*
X91664000Y-101467800D02*
X91964000Y-101767800D01*
X91664000Y-101467800D02*
X91364000Y-101767800D01*
X91964000Y-101767800D02*
X91364000Y-101767800D01*
X125362580Y-158494000D02*
X125081420Y-158494000D01*
X125362580Y-159514000D02*
X125081420Y-159514000D01*
X132955420Y-149608000D02*
X133236580Y-149608000D01*
X132955420Y-148588000D02*
X133236580Y-148588000D01*
X96776000Y-141364580D02*
X96776000Y-141083420D01*
X95756000Y-141364580D02*
X95756000Y-141083420D01*
X89156000Y-141110580D02*
X89156000Y-140829420D01*
X88136000Y-141110580D02*
X88136000Y-140829420D01*
X131458580Y-141476000D02*
X131177420Y-141476000D01*
X131458580Y-142496000D02*
X131177420Y-142496000D01*
X132701420Y-131828000D02*
X132982580Y-131828000D01*
X132701420Y-130808000D02*
X132982580Y-130808000D01*
D11*
X131167142Y-116244666D02*
X131214761Y-116292285D01*
X131262380Y-116435142D01*
X131262380Y-116530380D01*
X131214761Y-116673238D01*
X131119523Y-116768476D01*
X131024285Y-116816095D01*
X130833809Y-116863714D01*
X130690952Y-116863714D01*
X130500476Y-116816095D01*
X130405238Y-116768476D01*
X130310000Y-116673238D01*
X130262380Y-116530380D01*
X130262380Y-116435142D01*
X130310000Y-116292285D01*
X130357619Y-116244666D01*
X131262380Y-115292285D02*
X131262380Y-115863714D01*
X131262380Y-115578000D02*
X130262380Y-115578000D01*
X130405238Y-115673238D01*
X130500476Y-115768476D01*
X130548095Y-115863714D01*
X131278380Y-158495904D02*
X132087904Y-158495904D01*
X132183142Y-158448285D01*
X132230761Y-158400666D01*
X132278380Y-158305428D01*
X132278380Y-158114952D01*
X132230761Y-158019714D01*
X132183142Y-157972095D01*
X132087904Y-157924476D01*
X131278380Y-157924476D01*
X131706952Y-157305428D02*
X131659333Y-157400666D01*
X131611714Y-157448285D01*
X131516476Y-157495904D01*
X131468857Y-157495904D01*
X131373619Y-157448285D01*
X131326000Y-157400666D01*
X131278380Y-157305428D01*
X131278380Y-157114952D01*
X131326000Y-157019714D01*
X131373619Y-156972095D01*
X131468857Y-156924476D01*
X131516476Y-156924476D01*
X131611714Y-156972095D01*
X131659333Y-157019714D01*
X131706952Y-157114952D01*
X131706952Y-157305428D01*
X131754571Y-157400666D01*
X131802190Y-157448285D01*
X131897428Y-157495904D01*
X132087904Y-157495904D01*
X132183142Y-157448285D01*
X132230761Y-157400666D01*
X132278380Y-157305428D01*
X132278380Y-157114952D01*
X132230761Y-157019714D01*
X132183142Y-156972095D01*
X132087904Y-156924476D01*
X131897428Y-156924476D01*
X131802190Y-156972095D01*
X131754571Y-157019714D01*
X131706952Y-157114952D01*
X98766380Y-154177904D02*
X99575904Y-154177904D01*
X99671142Y-154130285D01*
X99718761Y-154082666D01*
X99766380Y-153987428D01*
X99766380Y-153796952D01*
X99718761Y-153701714D01*
X99671142Y-153654095D01*
X99575904Y-153606476D01*
X98766380Y-153606476D01*
X98766380Y-152701714D02*
X98766380Y-152892190D01*
X98814000Y-152987428D01*
X98861619Y-153035047D01*
X99004476Y-153130285D01*
X99194952Y-153177904D01*
X99575904Y-153177904D01*
X99671142Y-153130285D01*
X99718761Y-153082666D01*
X99766380Y-152987428D01*
X99766380Y-152796952D01*
X99718761Y-152701714D01*
X99671142Y-152654095D01*
X99575904Y-152606476D01*
X99337809Y-152606476D01*
X99242571Y-152654095D01*
X99194952Y-152701714D01*
X99147333Y-152796952D01*
X99147333Y-152987428D01*
X99194952Y-153082666D01*
X99242571Y-153130285D01*
X99337809Y-153177904D01*
X91146380Y-154177904D02*
X91955904Y-154177904D01*
X92051142Y-154130285D01*
X92098761Y-154082666D01*
X92146380Y-153987428D01*
X92146380Y-153796952D01*
X92098761Y-153701714D01*
X92051142Y-153654095D01*
X91955904Y-153606476D01*
X91146380Y-153606476D01*
X91479714Y-152701714D02*
X92146380Y-152701714D01*
X91098761Y-152939809D02*
X91813047Y-153177904D01*
X91813047Y-152558857D01*
X114300095Y-125682380D02*
X114300095Y-126491904D01*
X114347714Y-126587142D01*
X114395333Y-126634761D01*
X114490571Y-126682380D01*
X114681047Y-126682380D01*
X114776285Y-126634761D01*
X114823904Y-126587142D01*
X114871523Y-126491904D01*
X114871523Y-125682380D01*
X115252476Y-125682380D02*
X115871523Y-125682380D01*
X115538190Y-126063333D01*
X115681047Y-126063333D01*
X115776285Y-126110952D01*
X115823904Y-126158571D01*
X115871523Y-126253809D01*
X115871523Y-126491904D01*
X115823904Y-126587142D01*
X115776285Y-126634761D01*
X115681047Y-126682380D01*
X115395333Y-126682380D01*
X115300095Y-126634761D01*
X115252476Y-126587142D01*
X134805380Y-137956904D02*
X135614904Y-137956904D01*
X135710142Y-137909285D01*
X135757761Y-137861666D01*
X135805380Y-137766428D01*
X135805380Y-137575952D01*
X135757761Y-137480714D01*
X135710142Y-137433095D01*
X135614904Y-137385476D01*
X134805380Y-137385476D01*
X134900619Y-136956904D02*
X134853000Y-136909285D01*
X134805380Y-136814047D01*
X134805380Y-136575952D01*
X134853000Y-136480714D01*
X134900619Y-136433095D01*
X134995857Y-136385476D01*
X135091095Y-136385476D01*
X135233952Y-136433095D01*
X135805380Y-137004523D01*
X135805380Y-136385476D01*
X128976380Y-146137238D02*
X128500190Y-146470571D01*
X128976380Y-146708666D02*
X127976380Y-146708666D01*
X127976380Y-146327714D01*
X128024000Y-146232476D01*
X128071619Y-146184857D01*
X128166857Y-146137238D01*
X128309714Y-146137238D01*
X128404952Y-146184857D01*
X128452571Y-146232476D01*
X128500190Y-146327714D01*
X128500190Y-146708666D01*
X127976380Y-145851523D02*
X128976380Y-145518190D01*
X127976380Y-145184857D01*
X128976380Y-144327714D02*
X128976380Y-144899142D01*
X128976380Y-144613428D02*
X127976380Y-144613428D01*
X128119238Y-144708666D01*
X128214476Y-144803904D01*
X128262095Y-144899142D01*
X135326380Y-149010666D02*
X134850190Y-149344000D01*
X135326380Y-149582095D02*
X134326380Y-149582095D01*
X134326380Y-149201142D01*
X134374000Y-149105904D01*
X134421619Y-149058285D01*
X134516857Y-149010666D01*
X134659714Y-149010666D01*
X134754952Y-149058285D01*
X134802571Y-149105904D01*
X134850190Y-149201142D01*
X134850190Y-149582095D01*
X134326380Y-148153523D02*
X134326380Y-148344000D01*
X134374000Y-148439238D01*
X134421619Y-148486857D01*
X134564476Y-148582095D01*
X134754952Y-148629714D01*
X135135904Y-148629714D01*
X135231142Y-148582095D01*
X135278761Y-148534476D01*
X135326380Y-148439238D01*
X135326380Y-148248761D01*
X135278761Y-148153523D01*
X135231142Y-148105904D01*
X135135904Y-148058285D01*
X134897809Y-148058285D01*
X134802571Y-148105904D01*
X134754952Y-148153523D01*
X134707333Y-148248761D01*
X134707333Y-148439238D01*
X134754952Y-148534476D01*
X134802571Y-148582095D01*
X134897809Y-148629714D01*
X135072380Y-141898666D02*
X134596190Y-142232000D01*
X135072380Y-142470095D02*
X134072380Y-142470095D01*
X134072380Y-142089142D01*
X134120000Y-141993904D01*
X134167619Y-141946285D01*
X134262857Y-141898666D01*
X134405714Y-141898666D01*
X134500952Y-141946285D01*
X134548571Y-141993904D01*
X134596190Y-142089142D01*
X134596190Y-142470095D01*
X134072380Y-140993904D02*
X134072380Y-141470095D01*
X134548571Y-141517714D01*
X134500952Y-141470095D01*
X134453333Y-141374857D01*
X134453333Y-141136761D01*
X134500952Y-141041523D01*
X134548571Y-140993904D01*
X134643809Y-140946285D01*
X134881904Y-140946285D01*
X134977142Y-140993904D01*
X135024761Y-141041523D01*
X135072380Y-141136761D01*
X135072380Y-141374857D01*
X135024761Y-141470095D01*
X134977142Y-141517714D01*
X129373333Y-133200380D02*
X129040000Y-132724190D01*
X128801904Y-133200380D02*
X128801904Y-132200380D01*
X129182857Y-132200380D01*
X129278095Y-132248000D01*
X129325714Y-132295619D01*
X129373333Y-132390857D01*
X129373333Y-132533714D01*
X129325714Y-132628952D01*
X129278095Y-132676571D01*
X129182857Y-132724190D01*
X128801904Y-132724190D01*
X130230476Y-132533714D02*
X130230476Y-133200380D01*
X129992380Y-132152761D02*
X129754285Y-132867047D01*
X130373333Y-132867047D01*
X88733333Y-122626380D02*
X88400000Y-122150190D01*
X88161904Y-122626380D02*
X88161904Y-121626380D01*
X88542857Y-121626380D01*
X88638095Y-121674000D01*
X88685714Y-121721619D01*
X88733333Y-121816857D01*
X88733333Y-121959714D01*
X88685714Y-122054952D01*
X88638095Y-122102571D01*
X88542857Y-122150190D01*
X88161904Y-122150190D01*
X89066666Y-121626380D02*
X89685714Y-121626380D01*
X89352380Y-122007333D01*
X89495238Y-122007333D01*
X89590476Y-122054952D01*
X89638095Y-122102571D01*
X89685714Y-122197809D01*
X89685714Y-122435904D01*
X89638095Y-122531142D01*
X89590476Y-122578761D01*
X89495238Y-122626380D01*
X89209523Y-122626380D01*
X89114285Y-122578761D01*
X89066666Y-122531142D01*
X88733333Y-104084380D02*
X88400000Y-103608190D01*
X88161904Y-104084380D02*
X88161904Y-103084380D01*
X88542857Y-103084380D01*
X88638095Y-103132000D01*
X88685714Y-103179619D01*
X88733333Y-103274857D01*
X88733333Y-103417714D01*
X88685714Y-103512952D01*
X88638095Y-103560571D01*
X88542857Y-103608190D01*
X88161904Y-103608190D01*
X89114285Y-103179619D02*
X89161904Y-103132000D01*
X89257142Y-103084380D01*
X89495238Y-103084380D01*
X89590476Y-103132000D01*
X89638095Y-103179619D01*
X89685714Y-103274857D01*
X89685714Y-103370095D01*
X89638095Y-103512952D01*
X89066666Y-104084380D01*
X89685714Y-104084380D01*
X98893333Y-104338380D02*
X98560000Y-103862190D01*
X98321904Y-104338380D02*
X98321904Y-103338380D01*
X98702857Y-103338380D01*
X98798095Y-103386000D01*
X98845714Y-103433619D01*
X98893333Y-103528857D01*
X98893333Y-103671714D01*
X98845714Y-103766952D01*
X98798095Y-103814571D01*
X98702857Y-103862190D01*
X98321904Y-103862190D01*
X99845714Y-104338380D02*
X99274285Y-104338380D01*
X99560000Y-104338380D02*
X99560000Y-103338380D01*
X99464761Y-103481238D01*
X99369523Y-103576476D01*
X99274285Y-103624095D01*
X94448380Y-121237333D02*
X95162666Y-121237333D01*
X95305523Y-121284952D01*
X95400761Y-121380190D01*
X95448380Y-121523047D01*
X95448380Y-121618285D01*
X94543619Y-120808761D02*
X94496000Y-120761142D01*
X94448380Y-120665904D01*
X94448380Y-120427809D01*
X94496000Y-120332571D01*
X94543619Y-120284952D01*
X94638857Y-120237333D01*
X94734095Y-120237333D01*
X94876952Y-120284952D01*
X95448380Y-120856380D01*
X95448380Y-120237333D01*
X97456666Y-99528380D02*
X97456666Y-100242666D01*
X97409047Y-100385523D01*
X97313809Y-100480761D01*
X97170952Y-100528380D01*
X97075714Y-100528380D01*
X98456666Y-100528380D02*
X97885238Y-100528380D01*
X98170952Y-100528380D02*
X98170952Y-99528380D01*
X98075714Y-99671238D01*
X97980476Y-99766476D01*
X97885238Y-99814095D01*
X125055333Y-160791142D02*
X125007714Y-160838761D01*
X124864857Y-160886380D01*
X124769619Y-160886380D01*
X124626761Y-160838761D01*
X124531523Y-160743523D01*
X124483904Y-160648285D01*
X124436285Y-160457809D01*
X124436285Y-160314952D01*
X124483904Y-160124476D01*
X124531523Y-160029238D01*
X124626761Y-159934000D01*
X124769619Y-159886380D01*
X124864857Y-159886380D01*
X125007714Y-159934000D01*
X125055333Y-159981619D01*
X125531523Y-160886380D02*
X125722000Y-160886380D01*
X125817238Y-160838761D01*
X125864857Y-160791142D01*
X125960095Y-160648285D01*
X126007714Y-160457809D01*
X126007714Y-160076857D01*
X125960095Y-159981619D01*
X125912476Y-159934000D01*
X125817238Y-159886380D01*
X125626761Y-159886380D01*
X125531523Y-159934000D01*
X125483904Y-159981619D01*
X125436285Y-160076857D01*
X125436285Y-160314952D01*
X125483904Y-160410190D01*
X125531523Y-160457809D01*
X125626761Y-160505428D01*
X125817238Y-160505428D01*
X125912476Y-160457809D01*
X125960095Y-160410190D01*
X126007714Y-160314952D01*
X130897333Y-149455142D02*
X130849714Y-149502761D01*
X130706857Y-149550380D01*
X130611619Y-149550380D01*
X130468761Y-149502761D01*
X130373523Y-149407523D01*
X130325904Y-149312285D01*
X130278285Y-149121809D01*
X130278285Y-148978952D01*
X130325904Y-148788476D01*
X130373523Y-148693238D01*
X130468761Y-148598000D01*
X130611619Y-148550380D01*
X130706857Y-148550380D01*
X130849714Y-148598000D01*
X130897333Y-148645619D01*
X131468761Y-148978952D02*
X131373523Y-148931333D01*
X131325904Y-148883714D01*
X131278285Y-148788476D01*
X131278285Y-148740857D01*
X131325904Y-148645619D01*
X131373523Y-148598000D01*
X131468761Y-148550380D01*
X131659238Y-148550380D01*
X131754476Y-148598000D01*
X131802095Y-148645619D01*
X131849714Y-148740857D01*
X131849714Y-148788476D01*
X131802095Y-148883714D01*
X131754476Y-148931333D01*
X131659238Y-148978952D01*
X131468761Y-148978952D01*
X131373523Y-149026571D01*
X131325904Y-149074190D01*
X131278285Y-149169428D01*
X131278285Y-149359904D01*
X131325904Y-149455142D01*
X131373523Y-149502761D01*
X131468761Y-149550380D01*
X131659238Y-149550380D01*
X131754476Y-149502761D01*
X131802095Y-149455142D01*
X131849714Y-149359904D01*
X131849714Y-149169428D01*
X131802095Y-149074190D01*
X131754476Y-149026571D01*
X131659238Y-148978952D01*
X96623142Y-139104666D02*
X96670761Y-139152285D01*
X96718380Y-139295142D01*
X96718380Y-139390380D01*
X96670761Y-139533238D01*
X96575523Y-139628476D01*
X96480285Y-139676095D01*
X96289809Y-139723714D01*
X96146952Y-139723714D01*
X95956476Y-139676095D01*
X95861238Y-139628476D01*
X95766000Y-139533238D01*
X95718380Y-139390380D01*
X95718380Y-139295142D01*
X95766000Y-139152285D01*
X95813619Y-139104666D01*
X95718380Y-138771333D02*
X95718380Y-138104666D01*
X96718380Y-138533238D01*
X89003142Y-138850666D02*
X89050761Y-138898285D01*
X89098380Y-139041142D01*
X89098380Y-139136380D01*
X89050761Y-139279238D01*
X88955523Y-139374476D01*
X88860285Y-139422095D01*
X88669809Y-139469714D01*
X88526952Y-139469714D01*
X88336476Y-139422095D01*
X88241238Y-139374476D01*
X88146000Y-139279238D01*
X88098380Y-139136380D01*
X88098380Y-139041142D01*
X88146000Y-138898285D01*
X88193619Y-138850666D01*
X88431714Y-137993523D02*
X89098380Y-137993523D01*
X88050761Y-138231619D02*
X88765047Y-138469714D01*
X88765047Y-137850666D01*
X129373333Y-142343142D02*
X129325714Y-142390761D01*
X129182857Y-142438380D01*
X129087619Y-142438380D01*
X128944761Y-142390761D01*
X128849523Y-142295523D01*
X128801904Y-142200285D01*
X128754285Y-142009809D01*
X128754285Y-141866952D01*
X128801904Y-141676476D01*
X128849523Y-141581238D01*
X128944761Y-141486000D01*
X129087619Y-141438380D01*
X129182857Y-141438380D01*
X129325714Y-141486000D01*
X129373333Y-141533619D01*
X129706666Y-141438380D02*
X130325714Y-141438380D01*
X129992380Y-141819333D01*
X130135238Y-141819333D01*
X130230476Y-141866952D01*
X130278095Y-141914571D01*
X130325714Y-142009809D01*
X130325714Y-142247904D01*
X130278095Y-142343142D01*
X130230476Y-142390761D01*
X130135238Y-142438380D01*
X129849523Y-142438380D01*
X129754285Y-142390761D01*
X129706666Y-142343142D01*
X132675333Y-130245142D02*
X132627714Y-130292761D01*
X132484857Y-130340380D01*
X132389619Y-130340380D01*
X132246761Y-130292761D01*
X132151523Y-130197523D01*
X132103904Y-130102285D01*
X132056285Y-129911809D01*
X132056285Y-129768952D01*
X132103904Y-129578476D01*
X132151523Y-129483238D01*
X132246761Y-129388000D01*
X132389619Y-129340380D01*
X132484857Y-129340380D01*
X132627714Y-129388000D01*
X132675333Y-129435619D01*
X133056285Y-129435619D02*
X133103904Y-129388000D01*
X133199142Y-129340380D01*
X133437238Y-129340380D01*
X133532476Y-129388000D01*
X133580095Y-129435619D01*
X133627714Y-129530857D01*
X133627714Y-129626095D01*
X133580095Y-129768952D01*
X133008666Y-130340380D01*
X133627714Y-130340380D01*
X118070380Y-161289904D02*
X118879904Y-161289904D01*
X118975142Y-161242285D01*
X119022761Y-161194666D01*
X119070380Y-161099428D01*
X119070380Y-160908952D01*
X119022761Y-160813714D01*
X118975142Y-160766095D01*
X118879904Y-160718476D01*
X118070380Y-160718476D01*
X119070380Y-159718476D02*
X119070380Y-160289904D01*
X119070380Y-160004190D02*
X118070380Y-160004190D01*
X118213238Y-160099428D01*
X118308476Y-160194666D01*
X118356095Y-160289904D01*
%LPC*%
G36*
G01*
X130973001Y-118759000D02*
X129122999Y-118759000D01*
G75*
G02*
X128873000Y-118509001I0J249999D01*
G01*
X128873000Y-117683999D01*
G75*
G02*
X129122999Y-117434000I249999J0D01*
G01*
X130973001Y-117434000D01*
G75*
G02*
X131223000Y-117683999I0J-249999D01*
G01*
X131223000Y-118509001D01*
G75*
G02*
X130973001Y-118759000I-249999J0D01*
G01*
G37*
G36*
G01*
X130973001Y-121834000D02*
X129122999Y-121834000D01*
G75*
G02*
X128873000Y-121584001I0J249999D01*
G01*
X128873000Y-120758999D01*
G75*
G02*
X129122999Y-120509000I249999J0D01*
G01*
X130973001Y-120509000D01*
G75*
G02*
X131223000Y-120758999I0J-249999D01*
G01*
X131223000Y-121584001D01*
G75*
G02*
X130973001Y-121834000I-249999J0D01*
G01*
G37*
G36*
G01*
X134651000Y-156049000D02*
X134851000Y-156049000D01*
G75*
G02*
X134951000Y-156149000I0J-100000D01*
G01*
X134951000Y-157424000D01*
G75*
G02*
X134851000Y-157524000I-100000J0D01*
G01*
X134651000Y-157524000D01*
G75*
G02*
X134551000Y-157424000I0J100000D01*
G01*
X134551000Y-156149000D01*
G75*
G02*
X134651000Y-156049000I100000J0D01*
G01*
G37*
G36*
G01*
X134001000Y-156049000D02*
X134201000Y-156049000D01*
G75*
G02*
X134301000Y-156149000I0J-100000D01*
G01*
X134301000Y-157424000D01*
G75*
G02*
X134201000Y-157524000I-100000J0D01*
G01*
X134001000Y-157524000D01*
G75*
G02*
X133901000Y-157424000I0J100000D01*
G01*
X133901000Y-156149000D01*
G75*
G02*
X134001000Y-156049000I100000J0D01*
G01*
G37*
G36*
G01*
X133351000Y-156049000D02*
X133551000Y-156049000D01*
G75*
G02*
X133651000Y-156149000I0J-100000D01*
G01*
X133651000Y-157424000D01*
G75*
G02*
X133551000Y-157524000I-100000J0D01*
G01*
X133351000Y-157524000D01*
G75*
G02*
X133251000Y-157424000I0J100000D01*
G01*
X133251000Y-156149000D01*
G75*
G02*
X133351000Y-156049000I100000J0D01*
G01*
G37*
G36*
G01*
X132701000Y-156049000D02*
X132901000Y-156049000D01*
G75*
G02*
X133001000Y-156149000I0J-100000D01*
G01*
X133001000Y-157424000D01*
G75*
G02*
X132901000Y-157524000I-100000J0D01*
G01*
X132701000Y-157524000D01*
G75*
G02*
X132601000Y-157424000I0J100000D01*
G01*
X132601000Y-156149000D01*
G75*
G02*
X132701000Y-156049000I100000J0D01*
G01*
G37*
G36*
G01*
X132051000Y-156049000D02*
X132251000Y-156049000D01*
G75*
G02*
X132351000Y-156149000I0J-100000D01*
G01*
X132351000Y-157424000D01*
G75*
G02*
X132251000Y-157524000I-100000J0D01*
G01*
X132051000Y-157524000D01*
G75*
G02*
X131951000Y-157424000I0J100000D01*
G01*
X131951000Y-156149000D01*
G75*
G02*
X132051000Y-156049000I100000J0D01*
G01*
G37*
G36*
G01*
X131401000Y-156049000D02*
X131601000Y-156049000D01*
G75*
G02*
X131701000Y-156149000I0J-100000D01*
G01*
X131701000Y-157424000D01*
G75*
G02*
X131601000Y-157524000I-100000J0D01*
G01*
X131401000Y-157524000D01*
G75*
G02*
X131301000Y-157424000I0J100000D01*
G01*
X131301000Y-156149000D01*
G75*
G02*
X131401000Y-156049000I100000J0D01*
G01*
G37*
G36*
G01*
X130751000Y-156049000D02*
X130951000Y-156049000D01*
G75*
G02*
X131051000Y-156149000I0J-100000D01*
G01*
X131051000Y-157424000D01*
G75*
G02*
X130951000Y-157524000I-100000J0D01*
G01*
X130751000Y-157524000D01*
G75*
G02*
X130651000Y-157424000I0J100000D01*
G01*
X130651000Y-156149000D01*
G75*
G02*
X130751000Y-156049000I100000J0D01*
G01*
G37*
G36*
G01*
X130101000Y-156049000D02*
X130301000Y-156049000D01*
G75*
G02*
X130401000Y-156149000I0J-100000D01*
G01*
X130401000Y-157424000D01*
G75*
G02*
X130301000Y-157524000I-100000J0D01*
G01*
X130101000Y-157524000D01*
G75*
G02*
X130001000Y-157424000I0J100000D01*
G01*
X130001000Y-156149000D01*
G75*
G02*
X130101000Y-156049000I100000J0D01*
G01*
G37*
G36*
G01*
X129451000Y-156049000D02*
X129651000Y-156049000D01*
G75*
G02*
X129751000Y-156149000I0J-100000D01*
G01*
X129751000Y-157424000D01*
G75*
G02*
X129651000Y-157524000I-100000J0D01*
G01*
X129451000Y-157524000D01*
G75*
G02*
X129351000Y-157424000I0J100000D01*
G01*
X129351000Y-156149000D01*
G75*
G02*
X129451000Y-156049000I100000J0D01*
G01*
G37*
G36*
G01*
X128801000Y-156049000D02*
X129001000Y-156049000D01*
G75*
G02*
X129101000Y-156149000I0J-100000D01*
G01*
X129101000Y-157424000D01*
G75*
G02*
X129001000Y-157524000I-100000J0D01*
G01*
X128801000Y-157524000D01*
G75*
G02*
X128701000Y-157424000I0J100000D01*
G01*
X128701000Y-156149000D01*
G75*
G02*
X128801000Y-156049000I100000J0D01*
G01*
G37*
G36*
G01*
X128801000Y-150324000D02*
X129001000Y-150324000D01*
G75*
G02*
X129101000Y-150424000I0J-100000D01*
G01*
X129101000Y-151699000D01*
G75*
G02*
X129001000Y-151799000I-100000J0D01*
G01*
X128801000Y-151799000D01*
G75*
G02*
X128701000Y-151699000I0J100000D01*
G01*
X128701000Y-150424000D01*
G75*
G02*
X128801000Y-150324000I100000J0D01*
G01*
G37*
G36*
G01*
X129451000Y-150324000D02*
X129651000Y-150324000D01*
G75*
G02*
X129751000Y-150424000I0J-100000D01*
G01*
X129751000Y-151699000D01*
G75*
G02*
X129651000Y-151799000I-100000J0D01*
G01*
X129451000Y-151799000D01*
G75*
G02*
X129351000Y-151699000I0J100000D01*
G01*
X129351000Y-150424000D01*
G75*
G02*
X129451000Y-150324000I100000J0D01*
G01*
G37*
G36*
G01*
X130101000Y-150324000D02*
X130301000Y-150324000D01*
G75*
G02*
X130401000Y-150424000I0J-100000D01*
G01*
X130401000Y-151699000D01*
G75*
G02*
X130301000Y-151799000I-100000J0D01*
G01*
X130101000Y-151799000D01*
G75*
G02*
X130001000Y-151699000I0J100000D01*
G01*
X130001000Y-150424000D01*
G75*
G02*
X130101000Y-150324000I100000J0D01*
G01*
G37*
G36*
G01*
X130751000Y-150324000D02*
X130951000Y-150324000D01*
G75*
G02*
X131051000Y-150424000I0J-100000D01*
G01*
X131051000Y-151699000D01*
G75*
G02*
X130951000Y-151799000I-100000J0D01*
G01*
X130751000Y-151799000D01*
G75*
G02*
X130651000Y-151699000I0J100000D01*
G01*
X130651000Y-150424000D01*
G75*
G02*
X130751000Y-150324000I100000J0D01*
G01*
G37*
G36*
G01*
X131401000Y-150324000D02*
X131601000Y-150324000D01*
G75*
G02*
X131701000Y-150424000I0J-100000D01*
G01*
X131701000Y-151699000D01*
G75*
G02*
X131601000Y-151799000I-100000J0D01*
G01*
X131401000Y-151799000D01*
G75*
G02*
X131301000Y-151699000I0J100000D01*
G01*
X131301000Y-150424000D01*
G75*
G02*
X131401000Y-150324000I100000J0D01*
G01*
G37*
G36*
G01*
X132051000Y-150324000D02*
X132251000Y-150324000D01*
G75*
G02*
X132351000Y-150424000I0J-100000D01*
G01*
X132351000Y-151699000D01*
G75*
G02*
X132251000Y-151799000I-100000J0D01*
G01*
X132051000Y-151799000D01*
G75*
G02*
X131951000Y-151699000I0J100000D01*
G01*
X131951000Y-150424000D01*
G75*
G02*
X132051000Y-150324000I100000J0D01*
G01*
G37*
G36*
G01*
X132701000Y-150324000D02*
X132901000Y-150324000D01*
G75*
G02*
X133001000Y-150424000I0J-100000D01*
G01*
X133001000Y-151699000D01*
G75*
G02*
X132901000Y-151799000I-100000J0D01*
G01*
X132701000Y-151799000D01*
G75*
G02*
X132601000Y-151699000I0J100000D01*
G01*
X132601000Y-150424000D01*
G75*
G02*
X132701000Y-150324000I100000J0D01*
G01*
G37*
G36*
G01*
X133351000Y-150324000D02*
X133551000Y-150324000D01*
G75*
G02*
X133651000Y-150424000I0J-100000D01*
G01*
X133651000Y-151699000D01*
G75*
G02*
X133551000Y-151799000I-100000J0D01*
G01*
X133351000Y-151799000D01*
G75*
G02*
X133251000Y-151699000I0J100000D01*
G01*
X133251000Y-150424000D01*
G75*
G02*
X133351000Y-150324000I100000J0D01*
G01*
G37*
G36*
G01*
X134001000Y-150324000D02*
X134201000Y-150324000D01*
G75*
G02*
X134301000Y-150424000I0J-100000D01*
G01*
X134301000Y-151699000D01*
G75*
G02*
X134201000Y-151799000I-100000J0D01*
G01*
X134001000Y-151799000D01*
G75*
G02*
X133901000Y-151699000I0J100000D01*
G01*
X133901000Y-150424000D01*
G75*
G02*
X134001000Y-150324000I100000J0D01*
G01*
G37*
G36*
G01*
X134651000Y-150324000D02*
X134851000Y-150324000D01*
G75*
G02*
X134951000Y-150424000I0J-100000D01*
G01*
X134951000Y-151699000D01*
G75*
G02*
X134851000Y-151799000I-100000J0D01*
G01*
X134651000Y-151799000D01*
G75*
G02*
X134551000Y-151699000I0J100000D01*
G01*
X134551000Y-150424000D01*
G75*
G02*
X134651000Y-150324000I100000J0D01*
G01*
G37*
G36*
G01*
X96260000Y-145024000D02*
X96010000Y-145024000D01*
G75*
G02*
X95885000Y-144899000I0J125000D01*
G01*
X95885000Y-143249000D01*
G75*
G02*
X96010000Y-143124000I125000J0D01*
G01*
X96260000Y-143124000D01*
G75*
G02*
X96385000Y-143249000I0J-125000D01*
G01*
X96385000Y-144899000D01*
G75*
G02*
X96260000Y-145024000I-125000J0D01*
G01*
G37*
G36*
G01*
X96910000Y-145024000D02*
X96660000Y-145024000D01*
G75*
G02*
X96535000Y-144899000I0J125000D01*
G01*
X96535000Y-143249000D01*
G75*
G02*
X96660000Y-143124000I125000J0D01*
G01*
X96910000Y-143124000D01*
G75*
G02*
X97035000Y-143249000I0J-125000D01*
G01*
X97035000Y-144899000D01*
G75*
G02*
X96910000Y-145024000I-125000J0D01*
G01*
G37*
G36*
G01*
X97560000Y-145024000D02*
X97310000Y-145024000D01*
G75*
G02*
X97185000Y-144899000I0J125000D01*
G01*
X97185000Y-143249000D01*
G75*
G02*
X97310000Y-143124000I125000J0D01*
G01*
X97560000Y-143124000D01*
G75*
G02*
X97685000Y-143249000I0J-125000D01*
G01*
X97685000Y-144899000D01*
G75*
G02*
X97560000Y-145024000I-125000J0D01*
G01*
G37*
G36*
G01*
X98210000Y-145024000D02*
X97960000Y-145024000D01*
G75*
G02*
X97835000Y-144899000I0J125000D01*
G01*
X97835000Y-143249000D01*
G75*
G02*
X97960000Y-143124000I125000J0D01*
G01*
X98210000Y-143124000D01*
G75*
G02*
X98335000Y-143249000I0J-125000D01*
G01*
X98335000Y-144899000D01*
G75*
G02*
X98210000Y-145024000I-125000J0D01*
G01*
G37*
G36*
G01*
X98860000Y-145024000D02*
X98610000Y-145024000D01*
G75*
G02*
X98485000Y-144899000I0J125000D01*
G01*
X98485000Y-143249000D01*
G75*
G02*
X98610000Y-143124000I125000J0D01*
G01*
X98860000Y-143124000D01*
G75*
G02*
X98985000Y-143249000I0J-125000D01*
G01*
X98985000Y-144899000D01*
G75*
G02*
X98860000Y-145024000I-125000J0D01*
G01*
G37*
G36*
G01*
X99510000Y-145024000D02*
X99260000Y-145024000D01*
G75*
G02*
X99135000Y-144899000I0J125000D01*
G01*
X99135000Y-143249000D01*
G75*
G02*
X99260000Y-143124000I125000J0D01*
G01*
X99510000Y-143124000D01*
G75*
G02*
X99635000Y-143249000I0J-125000D01*
G01*
X99635000Y-144899000D01*
G75*
G02*
X99510000Y-145024000I-125000J0D01*
G01*
G37*
G36*
G01*
X100160000Y-145024000D02*
X99910000Y-145024000D01*
G75*
G02*
X99785000Y-144899000I0J125000D01*
G01*
X99785000Y-143249000D01*
G75*
G02*
X99910000Y-143124000I125000J0D01*
G01*
X100160000Y-143124000D01*
G75*
G02*
X100285000Y-143249000I0J-125000D01*
G01*
X100285000Y-144899000D01*
G75*
G02*
X100160000Y-145024000I-125000J0D01*
G01*
G37*
G36*
G01*
X100810000Y-145024000D02*
X100560000Y-145024000D01*
G75*
G02*
X100435000Y-144899000I0J125000D01*
G01*
X100435000Y-143249000D01*
G75*
G02*
X100560000Y-143124000I125000J0D01*
G01*
X100810000Y-143124000D01*
G75*
G02*
X100935000Y-143249000I0J-125000D01*
G01*
X100935000Y-144899000D01*
G75*
G02*
X100810000Y-145024000I-125000J0D01*
G01*
G37*
G36*
G01*
X101460000Y-145024000D02*
X101210000Y-145024000D01*
G75*
G02*
X101085000Y-144899000I0J125000D01*
G01*
X101085000Y-143249000D01*
G75*
G02*
X101210000Y-143124000I125000J0D01*
G01*
X101460000Y-143124000D01*
G75*
G02*
X101585000Y-143249000I0J-125000D01*
G01*
X101585000Y-144899000D01*
G75*
G02*
X101460000Y-145024000I-125000J0D01*
G01*
G37*
G36*
G01*
X102110000Y-145024000D02*
X101860000Y-145024000D01*
G75*
G02*
X101735000Y-144899000I0J125000D01*
G01*
X101735000Y-143249000D01*
G75*
G02*
X101860000Y-143124000I125000J0D01*
G01*
X102110000Y-143124000D01*
G75*
G02*
X102235000Y-143249000I0J-125000D01*
G01*
X102235000Y-144899000D01*
G75*
G02*
X102110000Y-145024000I-125000J0D01*
G01*
G37*
G36*
G01*
X102110000Y-152024000D02*
X101860000Y-152024000D01*
G75*
G02*
X101735000Y-151899000I0J125000D01*
G01*
X101735000Y-150249000D01*
G75*
G02*
X101860000Y-150124000I125000J0D01*
G01*
X102110000Y-150124000D01*
G75*
G02*
X102235000Y-150249000I0J-125000D01*
G01*
X102235000Y-151899000D01*
G75*
G02*
X102110000Y-152024000I-125000J0D01*
G01*
G37*
G36*
G01*
X101460000Y-152024000D02*
X101210000Y-152024000D01*
G75*
G02*
X101085000Y-151899000I0J125000D01*
G01*
X101085000Y-150249000D01*
G75*
G02*
X101210000Y-150124000I125000J0D01*
G01*
X101460000Y-150124000D01*
G75*
G02*
X101585000Y-150249000I0J-125000D01*
G01*
X101585000Y-151899000D01*
G75*
G02*
X101460000Y-152024000I-125000J0D01*
G01*
G37*
G36*
G01*
X100810000Y-152024000D02*
X100560000Y-152024000D01*
G75*
G02*
X100435000Y-151899000I0J125000D01*
G01*
X100435000Y-150249000D01*
G75*
G02*
X100560000Y-150124000I125000J0D01*
G01*
X100810000Y-150124000D01*
G75*
G02*
X100935000Y-150249000I0J-125000D01*
G01*
X100935000Y-151899000D01*
G75*
G02*
X100810000Y-152024000I-125000J0D01*
G01*
G37*
G36*
G01*
X100160000Y-152024000D02*
X99910000Y-152024000D01*
G75*
G02*
X99785000Y-151899000I0J125000D01*
G01*
X99785000Y-150249000D01*
G75*
G02*
X99910000Y-150124000I125000J0D01*
G01*
X100160000Y-150124000D01*
G75*
G02*
X100285000Y-150249000I0J-125000D01*
G01*
X100285000Y-151899000D01*
G75*
G02*
X100160000Y-152024000I-125000J0D01*
G01*
G37*
G36*
G01*
X99510000Y-152024000D02*
X99260000Y-152024000D01*
G75*
G02*
X99135000Y-151899000I0J125000D01*
G01*
X99135000Y-150249000D01*
G75*
G02*
X99260000Y-150124000I125000J0D01*
G01*
X99510000Y-150124000D01*
G75*
G02*
X99635000Y-150249000I0J-125000D01*
G01*
X99635000Y-151899000D01*
G75*
G02*
X99510000Y-152024000I-125000J0D01*
G01*
G37*
G36*
G01*
X98860000Y-152024000D02*
X98610000Y-152024000D01*
G75*
G02*
X98485000Y-151899000I0J125000D01*
G01*
X98485000Y-150249000D01*
G75*
G02*
X98610000Y-150124000I125000J0D01*
G01*
X98860000Y-150124000D01*
G75*
G02*
X98985000Y-150249000I0J-125000D01*
G01*
X98985000Y-151899000D01*
G75*
G02*
X98860000Y-152024000I-125000J0D01*
G01*
G37*
G36*
G01*
X98210000Y-152024000D02*
X97960000Y-152024000D01*
G75*
G02*
X97835000Y-151899000I0J125000D01*
G01*
X97835000Y-150249000D01*
G75*
G02*
X97960000Y-150124000I125000J0D01*
G01*
X98210000Y-150124000D01*
G75*
G02*
X98335000Y-150249000I0J-125000D01*
G01*
X98335000Y-151899000D01*
G75*
G02*
X98210000Y-152024000I-125000J0D01*
G01*
G37*
G36*
G01*
X97560000Y-152024000D02*
X97310000Y-152024000D01*
G75*
G02*
X97185000Y-151899000I0J125000D01*
G01*
X97185000Y-150249000D01*
G75*
G02*
X97310000Y-150124000I125000J0D01*
G01*
X97560000Y-150124000D01*
G75*
G02*
X97685000Y-150249000I0J-125000D01*
G01*
X97685000Y-151899000D01*
G75*
G02*
X97560000Y-152024000I-125000J0D01*
G01*
G37*
G36*
G01*
X96910000Y-152024000D02*
X96660000Y-152024000D01*
G75*
G02*
X96535000Y-151899000I0J125000D01*
G01*
X96535000Y-150249000D01*
G75*
G02*
X96660000Y-150124000I125000J0D01*
G01*
X96910000Y-150124000D01*
G75*
G02*
X97035000Y-150249000I0J-125000D01*
G01*
X97035000Y-151899000D01*
G75*
G02*
X96910000Y-152024000I-125000J0D01*
G01*
G37*
G36*
G01*
X96260000Y-152024000D02*
X96010000Y-152024000D01*
G75*
G02*
X95885000Y-151899000I0J125000D01*
G01*
X95885000Y-150249000D01*
G75*
G02*
X96010000Y-150124000I125000J0D01*
G01*
X96260000Y-150124000D01*
G75*
G02*
X96385000Y-150249000I0J-125000D01*
G01*
X96385000Y-151899000D01*
G75*
G02*
X96260000Y-152024000I-125000J0D01*
G01*
G37*
G36*
G01*
X88386000Y-145024000D02*
X88136000Y-145024000D01*
G75*
G02*
X88011000Y-144899000I0J125000D01*
G01*
X88011000Y-143249000D01*
G75*
G02*
X88136000Y-143124000I125000J0D01*
G01*
X88386000Y-143124000D01*
G75*
G02*
X88511000Y-143249000I0J-125000D01*
G01*
X88511000Y-144899000D01*
G75*
G02*
X88386000Y-145024000I-125000J0D01*
G01*
G37*
G36*
G01*
X89036000Y-145024000D02*
X88786000Y-145024000D01*
G75*
G02*
X88661000Y-144899000I0J125000D01*
G01*
X88661000Y-143249000D01*
G75*
G02*
X88786000Y-143124000I125000J0D01*
G01*
X89036000Y-143124000D01*
G75*
G02*
X89161000Y-143249000I0J-125000D01*
G01*
X89161000Y-144899000D01*
G75*
G02*
X89036000Y-145024000I-125000J0D01*
G01*
G37*
G36*
G01*
X89686000Y-145024000D02*
X89436000Y-145024000D01*
G75*
G02*
X89311000Y-144899000I0J125000D01*
G01*
X89311000Y-143249000D01*
G75*
G02*
X89436000Y-143124000I125000J0D01*
G01*
X89686000Y-143124000D01*
G75*
G02*
X89811000Y-143249000I0J-125000D01*
G01*
X89811000Y-144899000D01*
G75*
G02*
X89686000Y-145024000I-125000J0D01*
G01*
G37*
G36*
G01*
X90336000Y-145024000D02*
X90086000Y-145024000D01*
G75*
G02*
X89961000Y-144899000I0J125000D01*
G01*
X89961000Y-143249000D01*
G75*
G02*
X90086000Y-143124000I125000J0D01*
G01*
X90336000Y-143124000D01*
G75*
G02*
X90461000Y-143249000I0J-125000D01*
G01*
X90461000Y-144899000D01*
G75*
G02*
X90336000Y-145024000I-125000J0D01*
G01*
G37*
G36*
G01*
X90986000Y-145024000D02*
X90736000Y-145024000D01*
G75*
G02*
X90611000Y-144899000I0J125000D01*
G01*
X90611000Y-143249000D01*
G75*
G02*
X90736000Y-143124000I125000J0D01*
G01*
X90986000Y-143124000D01*
G75*
G02*
X91111000Y-143249000I0J-125000D01*
G01*
X91111000Y-144899000D01*
G75*
G02*
X90986000Y-145024000I-125000J0D01*
G01*
G37*
G36*
G01*
X91636000Y-145024000D02*
X91386000Y-145024000D01*
G75*
G02*
X91261000Y-144899000I0J125000D01*
G01*
X91261000Y-143249000D01*
G75*
G02*
X91386000Y-143124000I125000J0D01*
G01*
X91636000Y-143124000D01*
G75*
G02*
X91761000Y-143249000I0J-125000D01*
G01*
X91761000Y-144899000D01*
G75*
G02*
X91636000Y-145024000I-125000J0D01*
G01*
G37*
G36*
G01*
X92286000Y-145024000D02*
X92036000Y-145024000D01*
G75*
G02*
X91911000Y-144899000I0J125000D01*
G01*
X91911000Y-143249000D01*
G75*
G02*
X92036000Y-143124000I125000J0D01*
G01*
X92286000Y-143124000D01*
G75*
G02*
X92411000Y-143249000I0J-125000D01*
G01*
X92411000Y-144899000D01*
G75*
G02*
X92286000Y-145024000I-125000J0D01*
G01*
G37*
G36*
G01*
X92936000Y-145024000D02*
X92686000Y-145024000D01*
G75*
G02*
X92561000Y-144899000I0J125000D01*
G01*
X92561000Y-143249000D01*
G75*
G02*
X92686000Y-143124000I125000J0D01*
G01*
X92936000Y-143124000D01*
G75*
G02*
X93061000Y-143249000I0J-125000D01*
G01*
X93061000Y-144899000D01*
G75*
G02*
X92936000Y-145024000I-125000J0D01*
G01*
G37*
G36*
G01*
X93586000Y-145024000D02*
X93336000Y-145024000D01*
G75*
G02*
X93211000Y-144899000I0J125000D01*
G01*
X93211000Y-143249000D01*
G75*
G02*
X93336000Y-143124000I125000J0D01*
G01*
X93586000Y-143124000D01*
G75*
G02*
X93711000Y-143249000I0J-125000D01*
G01*
X93711000Y-144899000D01*
G75*
G02*
X93586000Y-145024000I-125000J0D01*
G01*
G37*
G36*
G01*
X94236000Y-145024000D02*
X93986000Y-145024000D01*
G75*
G02*
X93861000Y-144899000I0J125000D01*
G01*
X93861000Y-143249000D01*
G75*
G02*
X93986000Y-143124000I125000J0D01*
G01*
X94236000Y-143124000D01*
G75*
G02*
X94361000Y-143249000I0J-125000D01*
G01*
X94361000Y-144899000D01*
G75*
G02*
X94236000Y-145024000I-125000J0D01*
G01*
G37*
G36*
G01*
X94236000Y-152024000D02*
X93986000Y-152024000D01*
G75*
G02*
X93861000Y-151899000I0J125000D01*
G01*
X93861000Y-150249000D01*
G75*
G02*
X93986000Y-150124000I125000J0D01*
G01*
X94236000Y-150124000D01*
G75*
G02*
X94361000Y-150249000I0J-125000D01*
G01*
X94361000Y-151899000D01*
G75*
G02*
X94236000Y-152024000I-125000J0D01*
G01*
G37*
G36*
G01*
X93586000Y-152024000D02*
X93336000Y-152024000D01*
G75*
G02*
X93211000Y-151899000I0J125000D01*
G01*
X93211000Y-150249000D01*
G75*
G02*
X93336000Y-150124000I125000J0D01*
G01*
X93586000Y-150124000D01*
G75*
G02*
X93711000Y-150249000I0J-125000D01*
G01*
X93711000Y-151899000D01*
G75*
G02*
X93586000Y-152024000I-125000J0D01*
G01*
G37*
G36*
G01*
X92936000Y-152024000D02*
X92686000Y-152024000D01*
G75*
G02*
X92561000Y-151899000I0J125000D01*
G01*
X92561000Y-150249000D01*
G75*
G02*
X92686000Y-150124000I125000J0D01*
G01*
X92936000Y-150124000D01*
G75*
G02*
X93061000Y-150249000I0J-125000D01*
G01*
X93061000Y-151899000D01*
G75*
G02*
X92936000Y-152024000I-125000J0D01*
G01*
G37*
G36*
G01*
X92286000Y-152024000D02*
X92036000Y-152024000D01*
G75*
G02*
X91911000Y-151899000I0J125000D01*
G01*
X91911000Y-150249000D01*
G75*
G02*
X92036000Y-150124000I125000J0D01*
G01*
X92286000Y-150124000D01*
G75*
G02*
X92411000Y-150249000I0J-125000D01*
G01*
X92411000Y-151899000D01*
G75*
G02*
X92286000Y-152024000I-125000J0D01*
G01*
G37*
G36*
G01*
X91636000Y-152024000D02*
X91386000Y-152024000D01*
G75*
G02*
X91261000Y-151899000I0J125000D01*
G01*
X91261000Y-150249000D01*
G75*
G02*
X91386000Y-150124000I125000J0D01*
G01*
X91636000Y-150124000D01*
G75*
G02*
X91761000Y-150249000I0J-125000D01*
G01*
X91761000Y-151899000D01*
G75*
G02*
X91636000Y-152024000I-125000J0D01*
G01*
G37*
G36*
G01*
X90986000Y-152024000D02*
X90736000Y-152024000D01*
G75*
G02*
X90611000Y-151899000I0J125000D01*
G01*
X90611000Y-150249000D01*
G75*
G02*
X90736000Y-150124000I125000J0D01*
G01*
X90986000Y-150124000D01*
G75*
G02*
X91111000Y-150249000I0J-125000D01*
G01*
X91111000Y-151899000D01*
G75*
G02*
X90986000Y-152024000I-125000J0D01*
G01*
G37*
G36*
G01*
X90336000Y-152024000D02*
X90086000Y-152024000D01*
G75*
G02*
X89961000Y-151899000I0J125000D01*
G01*
X89961000Y-150249000D01*
G75*
G02*
X90086000Y-150124000I125000J0D01*
G01*
X90336000Y-150124000D01*
G75*
G02*
X90461000Y-150249000I0J-125000D01*
G01*
X90461000Y-151899000D01*
G75*
G02*
X90336000Y-152024000I-125000J0D01*
G01*
G37*
G36*
G01*
X89686000Y-152024000D02*
X89436000Y-152024000D01*
G75*
G02*
X89311000Y-151899000I0J125000D01*
G01*
X89311000Y-150249000D01*
G75*
G02*
X89436000Y-150124000I125000J0D01*
G01*
X89686000Y-150124000D01*
G75*
G02*
X89811000Y-150249000I0J-125000D01*
G01*
X89811000Y-151899000D01*
G75*
G02*
X89686000Y-152024000I-125000J0D01*
G01*
G37*
G36*
G01*
X89036000Y-152024000D02*
X88786000Y-152024000D01*
G75*
G02*
X88661000Y-151899000I0J125000D01*
G01*
X88661000Y-150249000D01*
G75*
G02*
X88786000Y-150124000I125000J0D01*
G01*
X89036000Y-150124000D01*
G75*
G02*
X89161000Y-150249000I0J-125000D01*
G01*
X89161000Y-151899000D01*
G75*
G02*
X89036000Y-152024000I-125000J0D01*
G01*
G37*
G36*
G01*
X88386000Y-152024000D02*
X88136000Y-152024000D01*
G75*
G02*
X88011000Y-151899000I0J125000D01*
G01*
X88011000Y-150249000D01*
G75*
G02*
X88136000Y-150124000I125000J0D01*
G01*
X88386000Y-150124000D01*
G75*
G02*
X88511000Y-150249000I0J-125000D01*
G01*
X88511000Y-151899000D01*
G75*
G02*
X88386000Y-152024000I-125000J0D01*
G01*
G37*
D12*
X108966000Y-156972000D03*
X111506000Y-156972000D03*
X114046000Y-156972000D03*
X116586000Y-156972000D03*
X119126000Y-156972000D03*
X121666000Y-156972000D03*
X108966000Y-154432000D03*
X111506000Y-154432000D03*
X114046000Y-154432000D03*
X116586000Y-154432000D03*
X119126000Y-154432000D03*
X121666000Y-154432000D03*
X122936000Y-131572000D03*
X122936000Y-129032000D03*
X122936000Y-126492000D03*
X122936000Y-123952000D03*
X122936000Y-121412000D03*
X122936000Y-118872000D03*
X107696000Y-123952000D03*
X107696000Y-121412000D03*
X107696000Y-118872000D03*
X125476000Y-118872000D03*
X125476000Y-121412000D03*
X125476000Y-123952000D03*
X125476000Y-126492000D03*
X125476000Y-129032000D03*
X125476000Y-131572000D03*
X125476000Y-134112000D03*
X125476000Y-136652000D03*
X125476000Y-139192000D03*
X125476000Y-141732000D03*
X125476000Y-144272000D03*
X125476000Y-146812000D03*
X125476000Y-149352000D03*
X125476000Y-151892000D03*
X105156000Y-151892000D03*
X105156000Y-149352000D03*
X105156000Y-146812000D03*
X105156000Y-144272000D03*
X105156000Y-141732000D03*
X105156000Y-139192000D03*
X105156000Y-136652000D03*
X105156000Y-134112000D03*
X105156000Y-131572000D03*
X105156000Y-129032000D03*
X105156000Y-126492000D03*
X105156000Y-123952000D03*
X105156000Y-121412000D03*
X105156000Y-118872000D03*
G36*
G01*
X133708000Y-138895000D02*
X134008000Y-138895000D01*
G75*
G02*
X134158000Y-139045000I0J-150000D01*
G01*
X134158000Y-140495000D01*
G75*
G02*
X134008000Y-140645000I-150000J0D01*
G01*
X133708000Y-140645000D01*
G75*
G02*
X133558000Y-140495000I0J150000D01*
G01*
X133558000Y-139045000D01*
G75*
G02*
X133708000Y-138895000I150000J0D01*
G01*
G37*
G36*
G01*
X132438000Y-138895000D02*
X132738000Y-138895000D01*
G75*
G02*
X132888000Y-139045000I0J-150000D01*
G01*
X132888000Y-140495000D01*
G75*
G02*
X132738000Y-140645000I-150000J0D01*
G01*
X132438000Y-140645000D01*
G75*
G02*
X132288000Y-140495000I0J150000D01*
G01*
X132288000Y-139045000D01*
G75*
G02*
X132438000Y-138895000I150000J0D01*
G01*
G37*
G36*
G01*
X131168000Y-138895000D02*
X131468000Y-138895000D01*
G75*
G02*
X131618000Y-139045000I0J-150000D01*
G01*
X131618000Y-140495000D01*
G75*
G02*
X131468000Y-140645000I-150000J0D01*
G01*
X131168000Y-140645000D01*
G75*
G02*
X131018000Y-140495000I0J150000D01*
G01*
X131018000Y-139045000D01*
G75*
G02*
X131168000Y-138895000I150000J0D01*
G01*
G37*
G36*
G01*
X129898000Y-138895000D02*
X130198000Y-138895000D01*
G75*
G02*
X130348000Y-139045000I0J-150000D01*
G01*
X130348000Y-140495000D01*
G75*
G02*
X130198000Y-140645000I-150000J0D01*
G01*
X129898000Y-140645000D01*
G75*
G02*
X129748000Y-140495000I0J150000D01*
G01*
X129748000Y-139045000D01*
G75*
G02*
X129898000Y-138895000I150000J0D01*
G01*
G37*
G36*
G01*
X129898000Y-133745000D02*
X130198000Y-133745000D01*
G75*
G02*
X130348000Y-133895000I0J-150000D01*
G01*
X130348000Y-135345000D01*
G75*
G02*
X130198000Y-135495000I-150000J0D01*
G01*
X129898000Y-135495000D01*
G75*
G02*
X129748000Y-135345000I0J150000D01*
G01*
X129748000Y-133895000D01*
G75*
G02*
X129898000Y-133745000I150000J0D01*
G01*
G37*
G36*
G01*
X131168000Y-133745000D02*
X131468000Y-133745000D01*
G75*
G02*
X131618000Y-133895000I0J-150000D01*
G01*
X131618000Y-135345000D01*
G75*
G02*
X131468000Y-135495000I-150000J0D01*
G01*
X131168000Y-135495000D01*
G75*
G02*
X131018000Y-135345000I0J150000D01*
G01*
X131018000Y-133895000D01*
G75*
G02*
X131168000Y-133745000I150000J0D01*
G01*
G37*
G36*
G01*
X132438000Y-133745000D02*
X132738000Y-133745000D01*
G75*
G02*
X132888000Y-133895000I0J-150000D01*
G01*
X132888000Y-135345000D01*
G75*
G02*
X132738000Y-135495000I-150000J0D01*
G01*
X132438000Y-135495000D01*
G75*
G02*
X132288000Y-135345000I0J150000D01*
G01*
X132288000Y-133895000D01*
G75*
G02*
X132438000Y-133745000I150000J0D01*
G01*
G37*
G36*
G01*
X133708000Y-133745000D02*
X134008000Y-133745000D01*
G75*
G02*
X134158000Y-133895000I0J-150000D01*
G01*
X134158000Y-135345000D01*
G75*
G02*
X134008000Y-135495000I-150000J0D01*
G01*
X133708000Y-135495000D01*
G75*
G02*
X133558000Y-135345000I0J150000D01*
G01*
X133558000Y-133895000D01*
G75*
G02*
X133708000Y-133745000I150000J0D01*
G01*
G37*
D13*
X129868000Y-146792000D03*
D14*
X132768000Y-145542000D03*
D13*
X129868000Y-144292000D03*
G36*
G01*
X134345000Y-147237000D02*
X134895000Y-147237000D01*
G75*
G02*
X135095000Y-147437000I0J-200000D01*
G01*
X135095000Y-147837000D01*
G75*
G02*
X134895000Y-148037000I-200000J0D01*
G01*
X134345000Y-148037000D01*
G75*
G02*
X134145000Y-147837000I0J200000D01*
G01*
X134145000Y-147437000D01*
G75*
G02*
X134345000Y-147237000I200000J0D01*
G01*
G37*
G36*
G01*
X134345000Y-145587000D02*
X134895000Y-145587000D01*
G75*
G02*
X135095000Y-145787000I0J-200000D01*
G01*
X135095000Y-146187000D01*
G75*
G02*
X134895000Y-146387000I-200000J0D01*
G01*
X134345000Y-146387000D01*
G75*
G02*
X134145000Y-146187000I0J200000D01*
G01*
X134145000Y-145787000D01*
G75*
G02*
X134345000Y-145587000I200000J0D01*
G01*
G37*
G36*
G01*
X134345000Y-143935000D02*
X134895000Y-143935000D01*
G75*
G02*
X135095000Y-144135000I0J-200000D01*
G01*
X135095000Y-144535000D01*
G75*
G02*
X134895000Y-144735000I-200000J0D01*
G01*
X134345000Y-144735000D01*
G75*
G02*
X134145000Y-144535000I0J200000D01*
G01*
X134145000Y-144135000D01*
G75*
G02*
X134345000Y-143935000I200000J0D01*
G01*
G37*
G36*
G01*
X134345000Y-142285000D02*
X134895000Y-142285000D01*
G75*
G02*
X135095000Y-142485000I0J-200000D01*
G01*
X135095000Y-142885000D01*
G75*
G02*
X134895000Y-143085000I-200000J0D01*
G01*
X134345000Y-143085000D01*
G75*
G02*
X134145000Y-142885000I0J200000D01*
G01*
X134145000Y-142485000D01*
G75*
G02*
X134345000Y-142285000I200000J0D01*
G01*
G37*
G36*
G01*
X129115000Y-131043000D02*
X129115000Y-131593000D01*
G75*
G02*
X128915000Y-131793000I-200000J0D01*
G01*
X128515000Y-131793000D01*
G75*
G02*
X128315000Y-131593000I0J200000D01*
G01*
X128315000Y-131043000D01*
G75*
G02*
X128515000Y-130843000I200000J0D01*
G01*
X128915000Y-130843000D01*
G75*
G02*
X129115000Y-131043000I0J-200000D01*
G01*
G37*
G36*
G01*
X130765000Y-131043000D02*
X130765000Y-131593000D01*
G75*
G02*
X130565000Y-131793000I-200000J0D01*
G01*
X130165000Y-131793000D01*
G75*
G02*
X129965000Y-131593000I0J200000D01*
G01*
X129965000Y-131043000D01*
G75*
G02*
X130165000Y-130843000I200000J0D01*
G01*
X130565000Y-130843000D01*
G75*
G02*
X130765000Y-131043000I0J-200000D01*
G01*
G37*
G36*
G01*
X91611000Y-122195000D02*
X91611000Y-121645000D01*
G75*
G02*
X91811000Y-121445000I200000J0D01*
G01*
X92211000Y-121445000D01*
G75*
G02*
X92411000Y-121645000I0J-200000D01*
G01*
X92411000Y-122195000D01*
G75*
G02*
X92211000Y-122395000I-200000J0D01*
G01*
X91811000Y-122395000D01*
G75*
G02*
X91611000Y-122195000I0J200000D01*
G01*
G37*
G36*
G01*
X89961000Y-122195000D02*
X89961000Y-121645000D01*
G75*
G02*
X90161000Y-121445000I200000J0D01*
G01*
X90561000Y-121445000D01*
G75*
G02*
X90761000Y-121645000I0J-200000D01*
G01*
X90761000Y-122195000D01*
G75*
G02*
X90561000Y-122395000I-200000J0D01*
G01*
X90161000Y-122395000D01*
G75*
G02*
X89961000Y-122195000I0J200000D01*
G01*
G37*
G36*
G01*
X92119000Y-103907000D02*
X92119000Y-103357000D01*
G75*
G02*
X92319000Y-103157000I200000J0D01*
G01*
X92719000Y-103157000D01*
G75*
G02*
X92919000Y-103357000I0J-200000D01*
G01*
X92919000Y-103907000D01*
G75*
G02*
X92719000Y-104107000I-200000J0D01*
G01*
X92319000Y-104107000D01*
G75*
G02*
X92119000Y-103907000I0J200000D01*
G01*
G37*
G36*
G01*
X90469000Y-103907000D02*
X90469000Y-103357000D01*
G75*
G02*
X90669000Y-103157000I200000J0D01*
G01*
X91069000Y-103157000D01*
G75*
G02*
X91269000Y-103357000I0J-200000D01*
G01*
X91269000Y-103907000D01*
G75*
G02*
X91069000Y-104107000I-200000J0D01*
G01*
X90669000Y-104107000D01*
G75*
G02*
X90469000Y-103907000I0J200000D01*
G01*
G37*
G36*
G01*
X94825000Y-103357000D02*
X94825000Y-103907000D01*
G75*
G02*
X94625000Y-104107000I-200000J0D01*
G01*
X94225000Y-104107000D01*
G75*
G02*
X94025000Y-103907000I0J200000D01*
G01*
X94025000Y-103357000D01*
G75*
G02*
X94225000Y-103157000I200000J0D01*
G01*
X94625000Y-103157000D01*
G75*
G02*
X94825000Y-103357000I0J-200000D01*
G01*
G37*
G36*
G01*
X96475000Y-103357000D02*
X96475000Y-103907000D01*
G75*
G02*
X96275000Y-104107000I-200000J0D01*
G01*
X95875000Y-104107000D01*
G75*
G02*
X95675000Y-103907000I0J200000D01*
G01*
X95675000Y-103357000D01*
G75*
G02*
X95875000Y-103157000I200000J0D01*
G01*
X96275000Y-103157000D01*
G75*
G02*
X96475000Y-103357000I0J-200000D01*
G01*
G37*
D15*
X92430000Y-115976000D03*
X92430000Y-114876000D03*
X92430000Y-113776000D03*
X92430000Y-112676000D03*
X92430000Y-111576000D03*
X92430000Y-110476000D03*
X92430000Y-109376000D03*
X92430000Y-108276000D03*
D16*
X98130000Y-105901000D03*
X98130000Y-119651000D03*
X89830000Y-119651000D03*
X89830000Y-105901000D03*
D17*
X96701500Y-97967800D03*
X89226500Y-97967800D03*
D18*
X92964000Y-97967800D03*
D19*
X92314000Y-100642800D03*
D20*
X88789000Y-97967800D03*
X97139000Y-97967800D03*
D21*
X90739000Y-100967800D03*
D19*
X91664000Y-100642800D03*
X92964000Y-100642800D03*
X93614000Y-100642800D03*
X94264000Y-100642800D03*
D21*
X95189000Y-100967800D03*
G36*
G01*
X124897000Y-158754000D02*
X124897000Y-159254000D01*
G75*
G02*
X124672000Y-159479000I-225000J0D01*
G01*
X124222000Y-159479000D01*
G75*
G02*
X123997000Y-159254000I0J225000D01*
G01*
X123997000Y-158754000D01*
G75*
G02*
X124222000Y-158529000I225000J0D01*
G01*
X124672000Y-158529000D01*
G75*
G02*
X124897000Y-158754000I0J-225000D01*
G01*
G37*
G36*
G01*
X126447000Y-158754000D02*
X126447000Y-159254000D01*
G75*
G02*
X126222000Y-159479000I-225000J0D01*
G01*
X125772000Y-159479000D01*
G75*
G02*
X125547000Y-159254000I0J225000D01*
G01*
X125547000Y-158754000D01*
G75*
G02*
X125772000Y-158529000I225000J0D01*
G01*
X126222000Y-158529000D01*
G75*
G02*
X126447000Y-158754000I0J-225000D01*
G01*
G37*
G36*
G01*
X133421000Y-149348000D02*
X133421000Y-148848000D01*
G75*
G02*
X133646000Y-148623000I225000J0D01*
G01*
X134096000Y-148623000D01*
G75*
G02*
X134321000Y-148848000I0J-225000D01*
G01*
X134321000Y-149348000D01*
G75*
G02*
X134096000Y-149573000I-225000J0D01*
G01*
X133646000Y-149573000D01*
G75*
G02*
X133421000Y-149348000I0J225000D01*
G01*
G37*
G36*
G01*
X131871000Y-149348000D02*
X131871000Y-148848000D01*
G75*
G02*
X132096000Y-148623000I225000J0D01*
G01*
X132546000Y-148623000D01*
G75*
G02*
X132771000Y-148848000I0J-225000D01*
G01*
X132771000Y-149348000D01*
G75*
G02*
X132546000Y-149573000I-225000J0D01*
G01*
X132096000Y-149573000D01*
G75*
G02*
X131871000Y-149348000I0J225000D01*
G01*
G37*
G36*
G01*
X96516000Y-140899000D02*
X96016000Y-140899000D01*
G75*
G02*
X95791000Y-140674000I0J225000D01*
G01*
X95791000Y-140224000D01*
G75*
G02*
X96016000Y-139999000I225000J0D01*
G01*
X96516000Y-139999000D01*
G75*
G02*
X96741000Y-140224000I0J-225000D01*
G01*
X96741000Y-140674000D01*
G75*
G02*
X96516000Y-140899000I-225000J0D01*
G01*
G37*
G36*
G01*
X96516000Y-142449000D02*
X96016000Y-142449000D01*
G75*
G02*
X95791000Y-142224000I0J225000D01*
G01*
X95791000Y-141774000D01*
G75*
G02*
X96016000Y-141549000I225000J0D01*
G01*
X96516000Y-141549000D01*
G75*
G02*
X96741000Y-141774000I0J-225000D01*
G01*
X96741000Y-142224000D01*
G75*
G02*
X96516000Y-142449000I-225000J0D01*
G01*
G37*
G36*
G01*
X88896000Y-140645000D02*
X88396000Y-140645000D01*
G75*
G02*
X88171000Y-140420000I0J225000D01*
G01*
X88171000Y-139970000D01*
G75*
G02*
X88396000Y-139745000I225000J0D01*
G01*
X88896000Y-139745000D01*
G75*
G02*
X89121000Y-139970000I0J-225000D01*
G01*
X89121000Y-140420000D01*
G75*
G02*
X88896000Y-140645000I-225000J0D01*
G01*
G37*
G36*
G01*
X88896000Y-142195000D02*
X88396000Y-142195000D01*
G75*
G02*
X88171000Y-141970000I0J225000D01*
G01*
X88171000Y-141520000D01*
G75*
G02*
X88396000Y-141295000I225000J0D01*
G01*
X88896000Y-141295000D01*
G75*
G02*
X89121000Y-141520000I0J-225000D01*
G01*
X89121000Y-141970000D01*
G75*
G02*
X88896000Y-142195000I-225000J0D01*
G01*
G37*
G36*
G01*
X130993000Y-141736000D02*
X130993000Y-142236000D01*
G75*
G02*
X130768000Y-142461000I-225000J0D01*
G01*
X130318000Y-142461000D01*
G75*
G02*
X130093000Y-142236000I0J225000D01*
G01*
X130093000Y-141736000D01*
G75*
G02*
X130318000Y-141511000I225000J0D01*
G01*
X130768000Y-141511000D01*
G75*
G02*
X130993000Y-141736000I0J-225000D01*
G01*
G37*
G36*
G01*
X132543000Y-141736000D02*
X132543000Y-142236000D01*
G75*
G02*
X132318000Y-142461000I-225000J0D01*
G01*
X131868000Y-142461000D01*
G75*
G02*
X131643000Y-142236000I0J225000D01*
G01*
X131643000Y-141736000D01*
G75*
G02*
X131868000Y-141511000I225000J0D01*
G01*
X132318000Y-141511000D01*
G75*
G02*
X132543000Y-141736000I0J-225000D01*
G01*
G37*
G36*
G01*
X133167000Y-131568000D02*
X133167000Y-131068000D01*
G75*
G02*
X133392000Y-130843000I225000J0D01*
G01*
X133842000Y-130843000D01*
G75*
G02*
X134067000Y-131068000I0J-225000D01*
G01*
X134067000Y-131568000D01*
G75*
G02*
X133842000Y-131793000I-225000J0D01*
G01*
X133392000Y-131793000D01*
G75*
G02*
X133167000Y-131568000I0J225000D01*
G01*
G37*
G36*
G01*
X131617000Y-131568000D02*
X131617000Y-131068000D01*
G75*
G02*
X131842000Y-130843000I225000J0D01*
G01*
X132292000Y-130843000D01*
G75*
G02*
X132517000Y-131068000I0J-225000D01*
G01*
X132517000Y-131568000D01*
G75*
G02*
X132292000Y-131793000I-225000J0D01*
G01*
X131842000Y-131793000D01*
G75*
G02*
X131617000Y-131568000I0J225000D01*
G01*
G37*
D22*
X134690000Y-165100000D03*
D23*
X132990000Y-165100000D03*
X131490000Y-165100000D03*
X129990000Y-165100000D03*
X128490000Y-165100000D03*
X126990000Y-165100000D03*
X125490000Y-165100000D03*
X123990000Y-165100000D03*
X122490000Y-165100000D03*
X120990000Y-165100000D03*
X119490000Y-165100000D03*
X117990000Y-165100000D03*
X116490000Y-165100000D03*
X114990000Y-165100000D03*
X113490000Y-165100000D03*
X111990000Y-165100000D03*
X110490000Y-165100000D03*
X108990000Y-165100000D03*
X107490000Y-165100000D03*
X105990000Y-165100000D03*
X104490000Y-165100000D03*
X102990000Y-165100000D03*
X101490000Y-165100000D03*
X99990000Y-165100000D03*
X98490000Y-165100000D03*
X96990000Y-165100000D03*
X95490000Y-165100000D03*
X93990000Y-165100000D03*
X92490000Y-165100000D03*
X90990000Y-165100000D03*
X89490000Y-165100000D03*
D22*
X87790000Y-165100000D03*
M02*
