G04 #@! TF.GenerationSoftware,KiCad,Pcbnew,(5.1.10)-1*
G04 #@! TF.CreationDate,2022-09-08T14:44:36+02:00*
G04 #@! TF.ProjectId,gbCartridge,67624361-7274-4726-9964-67652e6b6963,rev?*
G04 #@! TF.SameCoordinates,Original*
G04 #@! TF.FileFunction,Soldermask,Top*
G04 #@! TF.FilePolarity,Negative*
%FSLAX46Y46*%
G04 Gerber Fmt 4.6, Leading zero omitted, Abs format (unit mm)*
G04 Created by KiCad (PCBNEW (5.1.10)-1) date 2022-09-08 14:44:36*
%MOMM*%
%LPD*%
G01*
G04 APERTURE LIST*
%ADD10C,0.100000*%
%ADD11R,0.650000X1.060000*%
%ADD12R,2.000000X1.300000*%
%ADD13R,2.000000X2.000000*%
%ADD14R,1.550000X1.000000*%
%ADD15R,1.500000X1.500000*%
%ADD16R,1.750000X0.700000*%
%ADD17R,1.400000X0.800000*%
%ADD18R,1.000000X1.450000*%
%ADD19R,1.500000X0.800000*%
%ADD20R,1.500000X1.300000*%
%ADD21C,1.524000*%
%ADD22R,0.875000X1.900000*%
%ADD23R,2.900000X1.900000*%
%ADD24R,0.400000X1.350000*%
%ADD25O,1.000000X1.900000*%
%ADD26O,1.050000X1.250000*%
%ADD27R,1.400000X6.000000*%
%ADD28R,1.000000X6.000000*%
G04 APERTURE END LIST*
G36*
G01*
X90555000Y-105100000D02*
X91055000Y-105100000D01*
G75*
G02*
X91280000Y-105325000I0J-225000D01*
G01*
X91280000Y-105775000D01*
G75*
G02*
X91055000Y-106000000I-225000J0D01*
G01*
X90555000Y-106000000D01*
G75*
G02*
X90330000Y-105775000I0J225000D01*
G01*
X90330000Y-105325000D01*
G75*
G02*
X90555000Y-105100000I225000J0D01*
G01*
G37*
G36*
G01*
X90555000Y-103550000D02*
X91055000Y-103550000D01*
G75*
G02*
X91280000Y-103775000I0J-225000D01*
G01*
X91280000Y-104225000D01*
G75*
G02*
X91055000Y-104450000I-225000J0D01*
G01*
X90555000Y-104450000D01*
G75*
G02*
X90330000Y-104225000I0J225000D01*
G01*
X90330000Y-103775000D01*
G75*
G02*
X90555000Y-103550000I225000J0D01*
G01*
G37*
G36*
G01*
X94659000Y-123592000D02*
X94659000Y-123042000D01*
G75*
G02*
X94859000Y-122842000I200000J0D01*
G01*
X95259000Y-122842000D01*
G75*
G02*
X95459000Y-123042000I0J-200000D01*
G01*
X95459000Y-123592000D01*
G75*
G02*
X95259000Y-123792000I-200000J0D01*
G01*
X94859000Y-123792000D01*
G75*
G02*
X94659000Y-123592000I0J200000D01*
G01*
G37*
G36*
G01*
X93009000Y-123592000D02*
X93009000Y-123042000D01*
G75*
G02*
X93209000Y-122842000I200000J0D01*
G01*
X93609000Y-122842000D01*
G75*
G02*
X93809000Y-123042000I0J-200000D01*
G01*
X93809000Y-123592000D01*
G75*
G02*
X93609000Y-123792000I-200000J0D01*
G01*
X93209000Y-123792000D01*
G75*
G02*
X93009000Y-123592000I0J200000D01*
G01*
G37*
G36*
G01*
X94659000Y-121687000D02*
X94659000Y-121137000D01*
G75*
G02*
X94859000Y-120937000I200000J0D01*
G01*
X95259000Y-120937000D01*
G75*
G02*
X95459000Y-121137000I0J-200000D01*
G01*
X95459000Y-121687000D01*
G75*
G02*
X95259000Y-121887000I-200000J0D01*
G01*
X94859000Y-121887000D01*
G75*
G02*
X94659000Y-121687000I0J200000D01*
G01*
G37*
G36*
G01*
X93009000Y-121687000D02*
X93009000Y-121137000D01*
G75*
G02*
X93209000Y-120937000I200000J0D01*
G01*
X93609000Y-120937000D01*
G75*
G02*
X93809000Y-121137000I0J-200000D01*
G01*
X93809000Y-121687000D01*
G75*
G02*
X93609000Y-121887000I-200000J0D01*
G01*
X93209000Y-121887000D01*
G75*
G02*
X93009000Y-121687000I0J200000D01*
G01*
G37*
D10*
G36*
X89903398Y-126746000D02*
G01*
X89903398Y-126770534D01*
X89898588Y-126819365D01*
X89889016Y-126867490D01*
X89874772Y-126914445D01*
X89855995Y-126959778D01*
X89832864Y-127003051D01*
X89805604Y-127043850D01*
X89774476Y-127081779D01*
X89739779Y-127116476D01*
X89701850Y-127147604D01*
X89661051Y-127174864D01*
X89617778Y-127197995D01*
X89572445Y-127216772D01*
X89525490Y-127231016D01*
X89477365Y-127240588D01*
X89428534Y-127245398D01*
X89404000Y-127245398D01*
X89404000Y-127246000D01*
X88904000Y-127246000D01*
X88904000Y-127245398D01*
X88879466Y-127245398D01*
X88830635Y-127240588D01*
X88782510Y-127231016D01*
X88735555Y-127216772D01*
X88690222Y-127197995D01*
X88646949Y-127174864D01*
X88606150Y-127147604D01*
X88568221Y-127116476D01*
X88533524Y-127081779D01*
X88502396Y-127043850D01*
X88475136Y-127003051D01*
X88452005Y-126959778D01*
X88433228Y-126914445D01*
X88418984Y-126867490D01*
X88409412Y-126819365D01*
X88404602Y-126770534D01*
X88404602Y-126746000D01*
X88404000Y-126746000D01*
X88404000Y-126246000D01*
X89904000Y-126246000D01*
X89904000Y-126746000D01*
X89903398Y-126746000D01*
G37*
G36*
X88404000Y-125946000D02*
G01*
X88404000Y-125446000D01*
X88404602Y-125446000D01*
X88404602Y-125421466D01*
X88409412Y-125372635D01*
X88418984Y-125324510D01*
X88433228Y-125277555D01*
X88452005Y-125232222D01*
X88475136Y-125188949D01*
X88502396Y-125148150D01*
X88533524Y-125110221D01*
X88568221Y-125075524D01*
X88606150Y-125044396D01*
X88646949Y-125017136D01*
X88690222Y-124994005D01*
X88735555Y-124975228D01*
X88782510Y-124960984D01*
X88830635Y-124951412D01*
X88879466Y-124946602D01*
X88904000Y-124946602D01*
X88904000Y-124946000D01*
X89404000Y-124946000D01*
X89404000Y-124946602D01*
X89428534Y-124946602D01*
X89477365Y-124951412D01*
X89525490Y-124960984D01*
X89572445Y-124975228D01*
X89617778Y-124994005D01*
X89661051Y-125017136D01*
X89701850Y-125044396D01*
X89739779Y-125075524D01*
X89774476Y-125110221D01*
X89805604Y-125148150D01*
X89832864Y-125188949D01*
X89855995Y-125232222D01*
X89874772Y-125277555D01*
X89889016Y-125324510D01*
X89898588Y-125372635D01*
X89903398Y-125421466D01*
X89903398Y-125446000D01*
X89904000Y-125446000D01*
X89904000Y-125946000D01*
X88404000Y-125946000D01*
G37*
G36*
X89903398Y-123205000D02*
G01*
X89903398Y-123229534D01*
X89898588Y-123278365D01*
X89889016Y-123326490D01*
X89874772Y-123373445D01*
X89855995Y-123418778D01*
X89832864Y-123462051D01*
X89805604Y-123502850D01*
X89774476Y-123540779D01*
X89739779Y-123575476D01*
X89701850Y-123606604D01*
X89661051Y-123633864D01*
X89617778Y-123656995D01*
X89572445Y-123675772D01*
X89525490Y-123690016D01*
X89477365Y-123699588D01*
X89428534Y-123704398D01*
X89404000Y-123704398D01*
X89404000Y-123705000D01*
X88904000Y-123705000D01*
X88904000Y-123704398D01*
X88879466Y-123704398D01*
X88830635Y-123699588D01*
X88782510Y-123690016D01*
X88735555Y-123675772D01*
X88690222Y-123656995D01*
X88646949Y-123633864D01*
X88606150Y-123606604D01*
X88568221Y-123575476D01*
X88533524Y-123540779D01*
X88502396Y-123502850D01*
X88475136Y-123462051D01*
X88452005Y-123418778D01*
X88433228Y-123373445D01*
X88418984Y-123326490D01*
X88409412Y-123278365D01*
X88404602Y-123229534D01*
X88404602Y-123205000D01*
X88404000Y-123205000D01*
X88404000Y-122705000D01*
X89904000Y-122705000D01*
X89904000Y-123205000D01*
X89903398Y-123205000D01*
G37*
G36*
X88404000Y-122405000D02*
G01*
X88404000Y-121905000D01*
X88404602Y-121905000D01*
X88404602Y-121880466D01*
X88409412Y-121831635D01*
X88418984Y-121783510D01*
X88433228Y-121736555D01*
X88452005Y-121691222D01*
X88475136Y-121647949D01*
X88502396Y-121607150D01*
X88533524Y-121569221D01*
X88568221Y-121534524D01*
X88606150Y-121503396D01*
X88646949Y-121476136D01*
X88690222Y-121453005D01*
X88735555Y-121434228D01*
X88782510Y-121419984D01*
X88830635Y-121410412D01*
X88879466Y-121405602D01*
X88904000Y-121405602D01*
X88904000Y-121405000D01*
X89404000Y-121405000D01*
X89404000Y-121405602D01*
X89428534Y-121405602D01*
X89477365Y-121410412D01*
X89525490Y-121419984D01*
X89572445Y-121434228D01*
X89617778Y-121453005D01*
X89661051Y-121476136D01*
X89701850Y-121503396D01*
X89739779Y-121534524D01*
X89774476Y-121569221D01*
X89805604Y-121607150D01*
X89832864Y-121647949D01*
X89855995Y-121691222D01*
X89874772Y-121736555D01*
X89889016Y-121783510D01*
X89898588Y-121831635D01*
X89903398Y-121880466D01*
X89903398Y-121905000D01*
X89904000Y-121905000D01*
X89904000Y-122405000D01*
X88404000Y-122405000D01*
G37*
G36*
G01*
X98949000Y-142587000D02*
X99149000Y-142587000D01*
G75*
G02*
X99249000Y-142687000I0J-100000D01*
G01*
X99249000Y-143962000D01*
G75*
G02*
X99149000Y-144062000I-100000J0D01*
G01*
X98949000Y-144062000D01*
G75*
G02*
X98849000Y-143962000I0J100000D01*
G01*
X98849000Y-142687000D01*
G75*
G02*
X98949000Y-142587000I100000J0D01*
G01*
G37*
G36*
G01*
X98299000Y-142587000D02*
X98499000Y-142587000D01*
G75*
G02*
X98599000Y-142687000I0J-100000D01*
G01*
X98599000Y-143962000D01*
G75*
G02*
X98499000Y-144062000I-100000J0D01*
G01*
X98299000Y-144062000D01*
G75*
G02*
X98199000Y-143962000I0J100000D01*
G01*
X98199000Y-142687000D01*
G75*
G02*
X98299000Y-142587000I100000J0D01*
G01*
G37*
G36*
G01*
X97649000Y-142587000D02*
X97849000Y-142587000D01*
G75*
G02*
X97949000Y-142687000I0J-100000D01*
G01*
X97949000Y-143962000D01*
G75*
G02*
X97849000Y-144062000I-100000J0D01*
G01*
X97649000Y-144062000D01*
G75*
G02*
X97549000Y-143962000I0J100000D01*
G01*
X97549000Y-142687000D01*
G75*
G02*
X97649000Y-142587000I100000J0D01*
G01*
G37*
G36*
G01*
X96999000Y-142587000D02*
X97199000Y-142587000D01*
G75*
G02*
X97299000Y-142687000I0J-100000D01*
G01*
X97299000Y-143962000D01*
G75*
G02*
X97199000Y-144062000I-100000J0D01*
G01*
X96999000Y-144062000D01*
G75*
G02*
X96899000Y-143962000I0J100000D01*
G01*
X96899000Y-142687000D01*
G75*
G02*
X96999000Y-142587000I100000J0D01*
G01*
G37*
G36*
G01*
X96349000Y-142587000D02*
X96549000Y-142587000D01*
G75*
G02*
X96649000Y-142687000I0J-100000D01*
G01*
X96649000Y-143962000D01*
G75*
G02*
X96549000Y-144062000I-100000J0D01*
G01*
X96349000Y-144062000D01*
G75*
G02*
X96249000Y-143962000I0J100000D01*
G01*
X96249000Y-142687000D01*
G75*
G02*
X96349000Y-142587000I100000J0D01*
G01*
G37*
G36*
G01*
X95699000Y-142587000D02*
X95899000Y-142587000D01*
G75*
G02*
X95999000Y-142687000I0J-100000D01*
G01*
X95999000Y-143962000D01*
G75*
G02*
X95899000Y-144062000I-100000J0D01*
G01*
X95699000Y-144062000D01*
G75*
G02*
X95599000Y-143962000I0J100000D01*
G01*
X95599000Y-142687000D01*
G75*
G02*
X95699000Y-142587000I100000J0D01*
G01*
G37*
G36*
G01*
X95049000Y-142587000D02*
X95249000Y-142587000D01*
G75*
G02*
X95349000Y-142687000I0J-100000D01*
G01*
X95349000Y-143962000D01*
G75*
G02*
X95249000Y-144062000I-100000J0D01*
G01*
X95049000Y-144062000D01*
G75*
G02*
X94949000Y-143962000I0J100000D01*
G01*
X94949000Y-142687000D01*
G75*
G02*
X95049000Y-142587000I100000J0D01*
G01*
G37*
G36*
G01*
X94399000Y-142587000D02*
X94599000Y-142587000D01*
G75*
G02*
X94699000Y-142687000I0J-100000D01*
G01*
X94699000Y-143962000D01*
G75*
G02*
X94599000Y-144062000I-100000J0D01*
G01*
X94399000Y-144062000D01*
G75*
G02*
X94299000Y-143962000I0J100000D01*
G01*
X94299000Y-142687000D01*
G75*
G02*
X94399000Y-142587000I100000J0D01*
G01*
G37*
G36*
G01*
X94399000Y-136862000D02*
X94599000Y-136862000D01*
G75*
G02*
X94699000Y-136962000I0J-100000D01*
G01*
X94699000Y-138237000D01*
G75*
G02*
X94599000Y-138337000I-100000J0D01*
G01*
X94399000Y-138337000D01*
G75*
G02*
X94299000Y-138237000I0J100000D01*
G01*
X94299000Y-136962000D01*
G75*
G02*
X94399000Y-136862000I100000J0D01*
G01*
G37*
G36*
G01*
X95049000Y-136862000D02*
X95249000Y-136862000D01*
G75*
G02*
X95349000Y-136962000I0J-100000D01*
G01*
X95349000Y-138237000D01*
G75*
G02*
X95249000Y-138337000I-100000J0D01*
G01*
X95049000Y-138337000D01*
G75*
G02*
X94949000Y-138237000I0J100000D01*
G01*
X94949000Y-136962000D01*
G75*
G02*
X95049000Y-136862000I100000J0D01*
G01*
G37*
G36*
G01*
X95699000Y-136862000D02*
X95899000Y-136862000D01*
G75*
G02*
X95999000Y-136962000I0J-100000D01*
G01*
X95999000Y-138237000D01*
G75*
G02*
X95899000Y-138337000I-100000J0D01*
G01*
X95699000Y-138337000D01*
G75*
G02*
X95599000Y-138237000I0J100000D01*
G01*
X95599000Y-136962000D01*
G75*
G02*
X95699000Y-136862000I100000J0D01*
G01*
G37*
G36*
G01*
X96349000Y-136862000D02*
X96549000Y-136862000D01*
G75*
G02*
X96649000Y-136962000I0J-100000D01*
G01*
X96649000Y-138237000D01*
G75*
G02*
X96549000Y-138337000I-100000J0D01*
G01*
X96349000Y-138337000D01*
G75*
G02*
X96249000Y-138237000I0J100000D01*
G01*
X96249000Y-136962000D01*
G75*
G02*
X96349000Y-136862000I100000J0D01*
G01*
G37*
G36*
G01*
X96999000Y-136862000D02*
X97199000Y-136862000D01*
G75*
G02*
X97299000Y-136962000I0J-100000D01*
G01*
X97299000Y-138237000D01*
G75*
G02*
X97199000Y-138337000I-100000J0D01*
G01*
X96999000Y-138337000D01*
G75*
G02*
X96899000Y-138237000I0J100000D01*
G01*
X96899000Y-136962000D01*
G75*
G02*
X96999000Y-136862000I100000J0D01*
G01*
G37*
G36*
G01*
X97649000Y-136862000D02*
X97849000Y-136862000D01*
G75*
G02*
X97949000Y-136962000I0J-100000D01*
G01*
X97949000Y-138237000D01*
G75*
G02*
X97849000Y-138337000I-100000J0D01*
G01*
X97649000Y-138337000D01*
G75*
G02*
X97549000Y-138237000I0J100000D01*
G01*
X97549000Y-136962000D01*
G75*
G02*
X97649000Y-136862000I100000J0D01*
G01*
G37*
G36*
G01*
X98299000Y-136862000D02*
X98499000Y-136862000D01*
G75*
G02*
X98599000Y-136962000I0J-100000D01*
G01*
X98599000Y-138237000D01*
G75*
G02*
X98499000Y-138337000I-100000J0D01*
G01*
X98299000Y-138337000D01*
G75*
G02*
X98199000Y-138237000I0J100000D01*
G01*
X98199000Y-136962000D01*
G75*
G02*
X98299000Y-136862000I100000J0D01*
G01*
G37*
G36*
G01*
X98949000Y-136862000D02*
X99149000Y-136862000D01*
G75*
G02*
X99249000Y-136962000I0J-100000D01*
G01*
X99249000Y-138237000D01*
G75*
G02*
X99149000Y-138337000I-100000J0D01*
G01*
X98949000Y-138337000D01*
G75*
G02*
X98849000Y-138237000I0J100000D01*
G01*
X98849000Y-136962000D01*
G75*
G02*
X98949000Y-136862000I100000J0D01*
G01*
G37*
G36*
X130698000Y-119900602D02*
G01*
X130722534Y-119900602D01*
X130771365Y-119905412D01*
X130819490Y-119914984D01*
X130866445Y-119929228D01*
X130911778Y-119948005D01*
X130955051Y-119971136D01*
X130995850Y-119998396D01*
X131033779Y-120029524D01*
X131068476Y-120064221D01*
X131099604Y-120102150D01*
X131126864Y-120142949D01*
X131149995Y-120186222D01*
X131168772Y-120231555D01*
X131183016Y-120278510D01*
X131192588Y-120326635D01*
X131197398Y-120375466D01*
X131197398Y-120400000D01*
X131198000Y-120400000D01*
X131198000Y-120900000D01*
X131197398Y-120900000D01*
X131197398Y-120924534D01*
X131192588Y-120973365D01*
X131183016Y-121021490D01*
X131168772Y-121068445D01*
X131149995Y-121113778D01*
X131126864Y-121157051D01*
X131099604Y-121197850D01*
X131068476Y-121235779D01*
X131033779Y-121270476D01*
X130995850Y-121301604D01*
X130955051Y-121328864D01*
X130911778Y-121351995D01*
X130866445Y-121370772D01*
X130819490Y-121385016D01*
X130771365Y-121394588D01*
X130722534Y-121399398D01*
X130698000Y-121399398D01*
X130698000Y-121400000D01*
X130198000Y-121400000D01*
X130198000Y-119900000D01*
X130698000Y-119900000D01*
X130698000Y-119900602D01*
G37*
G36*
X129898000Y-121400000D02*
G01*
X129398000Y-121400000D01*
X129398000Y-121399398D01*
X129373466Y-121399398D01*
X129324635Y-121394588D01*
X129276510Y-121385016D01*
X129229555Y-121370772D01*
X129184222Y-121351995D01*
X129140949Y-121328864D01*
X129100150Y-121301604D01*
X129062221Y-121270476D01*
X129027524Y-121235779D01*
X128996396Y-121197850D01*
X128969136Y-121157051D01*
X128946005Y-121113778D01*
X128927228Y-121068445D01*
X128912984Y-121021490D01*
X128903412Y-120973365D01*
X128898602Y-120924534D01*
X128898602Y-120900000D01*
X128898000Y-120900000D01*
X128898000Y-120400000D01*
X128898602Y-120400000D01*
X128898602Y-120375466D01*
X128903412Y-120326635D01*
X128912984Y-120278510D01*
X128927228Y-120231555D01*
X128946005Y-120186222D01*
X128969136Y-120142949D01*
X128996396Y-120102150D01*
X129027524Y-120064221D01*
X129062221Y-120029524D01*
X129100150Y-119998396D01*
X129140949Y-119971136D01*
X129184222Y-119948005D01*
X129229555Y-119929228D01*
X129276510Y-119914984D01*
X129324635Y-119905412D01*
X129373466Y-119900602D01*
X129398000Y-119900602D01*
X129398000Y-119900000D01*
X129898000Y-119900000D01*
X129898000Y-121400000D01*
G37*
D11*
X132014000Y-136228000D03*
X130114000Y-136228000D03*
X130114000Y-134028000D03*
X131064000Y-134028000D03*
X132014000Y-134028000D03*
G36*
G01*
X132633000Y-159000000D02*
X132633000Y-158500000D01*
G75*
G02*
X132858000Y-158275000I225000J0D01*
G01*
X133308000Y-158275000D01*
G75*
G02*
X133533000Y-158500000I0J-225000D01*
G01*
X133533000Y-159000000D01*
G75*
G02*
X133308000Y-159225000I-225000J0D01*
G01*
X132858000Y-159225000D01*
G75*
G02*
X132633000Y-159000000I0J225000D01*
G01*
G37*
G36*
G01*
X134183000Y-159000000D02*
X134183000Y-158500000D01*
G75*
G02*
X134408000Y-158275000I225000J0D01*
G01*
X134858000Y-158275000D01*
G75*
G02*
X135083000Y-158500000I0J-225000D01*
G01*
X135083000Y-159000000D01*
G75*
G02*
X134858000Y-159225000I-225000J0D01*
G01*
X134408000Y-159225000D01*
G75*
G02*
X134183000Y-159000000I0J225000D01*
G01*
G37*
G36*
G01*
X98949000Y-131665000D02*
X99149000Y-131665000D01*
G75*
G02*
X99249000Y-131765000I0J-100000D01*
G01*
X99249000Y-133040000D01*
G75*
G02*
X99149000Y-133140000I-100000J0D01*
G01*
X98949000Y-133140000D01*
G75*
G02*
X98849000Y-133040000I0J100000D01*
G01*
X98849000Y-131765000D01*
G75*
G02*
X98949000Y-131665000I100000J0D01*
G01*
G37*
G36*
G01*
X98299000Y-131665000D02*
X98499000Y-131665000D01*
G75*
G02*
X98599000Y-131765000I0J-100000D01*
G01*
X98599000Y-133040000D01*
G75*
G02*
X98499000Y-133140000I-100000J0D01*
G01*
X98299000Y-133140000D01*
G75*
G02*
X98199000Y-133040000I0J100000D01*
G01*
X98199000Y-131765000D01*
G75*
G02*
X98299000Y-131665000I100000J0D01*
G01*
G37*
G36*
G01*
X97649000Y-131665000D02*
X97849000Y-131665000D01*
G75*
G02*
X97949000Y-131765000I0J-100000D01*
G01*
X97949000Y-133040000D01*
G75*
G02*
X97849000Y-133140000I-100000J0D01*
G01*
X97649000Y-133140000D01*
G75*
G02*
X97549000Y-133040000I0J100000D01*
G01*
X97549000Y-131765000D01*
G75*
G02*
X97649000Y-131665000I100000J0D01*
G01*
G37*
G36*
G01*
X96999000Y-131665000D02*
X97199000Y-131665000D01*
G75*
G02*
X97299000Y-131765000I0J-100000D01*
G01*
X97299000Y-133040000D01*
G75*
G02*
X97199000Y-133140000I-100000J0D01*
G01*
X96999000Y-133140000D01*
G75*
G02*
X96899000Y-133040000I0J100000D01*
G01*
X96899000Y-131765000D01*
G75*
G02*
X96999000Y-131665000I100000J0D01*
G01*
G37*
G36*
G01*
X96349000Y-131665000D02*
X96549000Y-131665000D01*
G75*
G02*
X96649000Y-131765000I0J-100000D01*
G01*
X96649000Y-133040000D01*
G75*
G02*
X96549000Y-133140000I-100000J0D01*
G01*
X96349000Y-133140000D01*
G75*
G02*
X96249000Y-133040000I0J100000D01*
G01*
X96249000Y-131765000D01*
G75*
G02*
X96349000Y-131665000I100000J0D01*
G01*
G37*
G36*
G01*
X95699000Y-131665000D02*
X95899000Y-131665000D01*
G75*
G02*
X95999000Y-131765000I0J-100000D01*
G01*
X95999000Y-133040000D01*
G75*
G02*
X95899000Y-133140000I-100000J0D01*
G01*
X95699000Y-133140000D01*
G75*
G02*
X95599000Y-133040000I0J100000D01*
G01*
X95599000Y-131765000D01*
G75*
G02*
X95699000Y-131665000I100000J0D01*
G01*
G37*
G36*
G01*
X95049000Y-131665000D02*
X95249000Y-131665000D01*
G75*
G02*
X95349000Y-131765000I0J-100000D01*
G01*
X95349000Y-133040000D01*
G75*
G02*
X95249000Y-133140000I-100000J0D01*
G01*
X95049000Y-133140000D01*
G75*
G02*
X94949000Y-133040000I0J100000D01*
G01*
X94949000Y-131765000D01*
G75*
G02*
X95049000Y-131665000I100000J0D01*
G01*
G37*
G36*
G01*
X94399000Y-131665000D02*
X94599000Y-131665000D01*
G75*
G02*
X94699000Y-131765000I0J-100000D01*
G01*
X94699000Y-133040000D01*
G75*
G02*
X94599000Y-133140000I-100000J0D01*
G01*
X94399000Y-133140000D01*
G75*
G02*
X94299000Y-133040000I0J100000D01*
G01*
X94299000Y-131765000D01*
G75*
G02*
X94399000Y-131665000I100000J0D01*
G01*
G37*
G36*
G01*
X94399000Y-125940000D02*
X94599000Y-125940000D01*
G75*
G02*
X94699000Y-126040000I0J-100000D01*
G01*
X94699000Y-127315000D01*
G75*
G02*
X94599000Y-127415000I-100000J0D01*
G01*
X94399000Y-127415000D01*
G75*
G02*
X94299000Y-127315000I0J100000D01*
G01*
X94299000Y-126040000D01*
G75*
G02*
X94399000Y-125940000I100000J0D01*
G01*
G37*
G36*
G01*
X95049000Y-125940000D02*
X95249000Y-125940000D01*
G75*
G02*
X95349000Y-126040000I0J-100000D01*
G01*
X95349000Y-127315000D01*
G75*
G02*
X95249000Y-127415000I-100000J0D01*
G01*
X95049000Y-127415000D01*
G75*
G02*
X94949000Y-127315000I0J100000D01*
G01*
X94949000Y-126040000D01*
G75*
G02*
X95049000Y-125940000I100000J0D01*
G01*
G37*
G36*
G01*
X95699000Y-125940000D02*
X95899000Y-125940000D01*
G75*
G02*
X95999000Y-126040000I0J-100000D01*
G01*
X95999000Y-127315000D01*
G75*
G02*
X95899000Y-127415000I-100000J0D01*
G01*
X95699000Y-127415000D01*
G75*
G02*
X95599000Y-127315000I0J100000D01*
G01*
X95599000Y-126040000D01*
G75*
G02*
X95699000Y-125940000I100000J0D01*
G01*
G37*
G36*
G01*
X96349000Y-125940000D02*
X96549000Y-125940000D01*
G75*
G02*
X96649000Y-126040000I0J-100000D01*
G01*
X96649000Y-127315000D01*
G75*
G02*
X96549000Y-127415000I-100000J0D01*
G01*
X96349000Y-127415000D01*
G75*
G02*
X96249000Y-127315000I0J100000D01*
G01*
X96249000Y-126040000D01*
G75*
G02*
X96349000Y-125940000I100000J0D01*
G01*
G37*
G36*
G01*
X96999000Y-125940000D02*
X97199000Y-125940000D01*
G75*
G02*
X97299000Y-126040000I0J-100000D01*
G01*
X97299000Y-127315000D01*
G75*
G02*
X97199000Y-127415000I-100000J0D01*
G01*
X96999000Y-127415000D01*
G75*
G02*
X96899000Y-127315000I0J100000D01*
G01*
X96899000Y-126040000D01*
G75*
G02*
X96999000Y-125940000I100000J0D01*
G01*
G37*
G36*
G01*
X97649000Y-125940000D02*
X97849000Y-125940000D01*
G75*
G02*
X97949000Y-126040000I0J-100000D01*
G01*
X97949000Y-127315000D01*
G75*
G02*
X97849000Y-127415000I-100000J0D01*
G01*
X97649000Y-127415000D01*
G75*
G02*
X97549000Y-127315000I0J100000D01*
G01*
X97549000Y-126040000D01*
G75*
G02*
X97649000Y-125940000I100000J0D01*
G01*
G37*
G36*
G01*
X98299000Y-125940000D02*
X98499000Y-125940000D01*
G75*
G02*
X98599000Y-126040000I0J-100000D01*
G01*
X98599000Y-127315000D01*
G75*
G02*
X98499000Y-127415000I-100000J0D01*
G01*
X98299000Y-127415000D01*
G75*
G02*
X98199000Y-127315000I0J100000D01*
G01*
X98199000Y-126040000D01*
G75*
G02*
X98299000Y-125940000I100000J0D01*
G01*
G37*
G36*
G01*
X98949000Y-125940000D02*
X99149000Y-125940000D01*
G75*
G02*
X99249000Y-126040000I0J-100000D01*
G01*
X99249000Y-127315000D01*
G75*
G02*
X99149000Y-127415000I-100000J0D01*
G01*
X98949000Y-127415000D01*
G75*
G02*
X98849000Y-127315000I0J100000D01*
G01*
X98849000Y-126040000D01*
G75*
G02*
X98949000Y-125940000I100000J0D01*
G01*
G37*
G36*
G01*
X98949000Y-153509000D02*
X99149000Y-153509000D01*
G75*
G02*
X99249000Y-153609000I0J-100000D01*
G01*
X99249000Y-154884000D01*
G75*
G02*
X99149000Y-154984000I-100000J0D01*
G01*
X98949000Y-154984000D01*
G75*
G02*
X98849000Y-154884000I0J100000D01*
G01*
X98849000Y-153609000D01*
G75*
G02*
X98949000Y-153509000I100000J0D01*
G01*
G37*
G36*
G01*
X98299000Y-153509000D02*
X98499000Y-153509000D01*
G75*
G02*
X98599000Y-153609000I0J-100000D01*
G01*
X98599000Y-154884000D01*
G75*
G02*
X98499000Y-154984000I-100000J0D01*
G01*
X98299000Y-154984000D01*
G75*
G02*
X98199000Y-154884000I0J100000D01*
G01*
X98199000Y-153609000D01*
G75*
G02*
X98299000Y-153509000I100000J0D01*
G01*
G37*
G36*
G01*
X97649000Y-153509000D02*
X97849000Y-153509000D01*
G75*
G02*
X97949000Y-153609000I0J-100000D01*
G01*
X97949000Y-154884000D01*
G75*
G02*
X97849000Y-154984000I-100000J0D01*
G01*
X97649000Y-154984000D01*
G75*
G02*
X97549000Y-154884000I0J100000D01*
G01*
X97549000Y-153609000D01*
G75*
G02*
X97649000Y-153509000I100000J0D01*
G01*
G37*
G36*
G01*
X96999000Y-153509000D02*
X97199000Y-153509000D01*
G75*
G02*
X97299000Y-153609000I0J-100000D01*
G01*
X97299000Y-154884000D01*
G75*
G02*
X97199000Y-154984000I-100000J0D01*
G01*
X96999000Y-154984000D01*
G75*
G02*
X96899000Y-154884000I0J100000D01*
G01*
X96899000Y-153609000D01*
G75*
G02*
X96999000Y-153509000I100000J0D01*
G01*
G37*
G36*
G01*
X96349000Y-153509000D02*
X96549000Y-153509000D01*
G75*
G02*
X96649000Y-153609000I0J-100000D01*
G01*
X96649000Y-154884000D01*
G75*
G02*
X96549000Y-154984000I-100000J0D01*
G01*
X96349000Y-154984000D01*
G75*
G02*
X96249000Y-154884000I0J100000D01*
G01*
X96249000Y-153609000D01*
G75*
G02*
X96349000Y-153509000I100000J0D01*
G01*
G37*
G36*
G01*
X95699000Y-153509000D02*
X95899000Y-153509000D01*
G75*
G02*
X95999000Y-153609000I0J-100000D01*
G01*
X95999000Y-154884000D01*
G75*
G02*
X95899000Y-154984000I-100000J0D01*
G01*
X95699000Y-154984000D01*
G75*
G02*
X95599000Y-154884000I0J100000D01*
G01*
X95599000Y-153609000D01*
G75*
G02*
X95699000Y-153509000I100000J0D01*
G01*
G37*
G36*
G01*
X95049000Y-153509000D02*
X95249000Y-153509000D01*
G75*
G02*
X95349000Y-153609000I0J-100000D01*
G01*
X95349000Y-154884000D01*
G75*
G02*
X95249000Y-154984000I-100000J0D01*
G01*
X95049000Y-154984000D01*
G75*
G02*
X94949000Y-154884000I0J100000D01*
G01*
X94949000Y-153609000D01*
G75*
G02*
X95049000Y-153509000I100000J0D01*
G01*
G37*
G36*
G01*
X94399000Y-153509000D02*
X94599000Y-153509000D01*
G75*
G02*
X94699000Y-153609000I0J-100000D01*
G01*
X94699000Y-154884000D01*
G75*
G02*
X94599000Y-154984000I-100000J0D01*
G01*
X94399000Y-154984000D01*
G75*
G02*
X94299000Y-154884000I0J100000D01*
G01*
X94299000Y-153609000D01*
G75*
G02*
X94399000Y-153509000I100000J0D01*
G01*
G37*
G36*
G01*
X94399000Y-147784000D02*
X94599000Y-147784000D01*
G75*
G02*
X94699000Y-147884000I0J-100000D01*
G01*
X94699000Y-149159000D01*
G75*
G02*
X94599000Y-149259000I-100000J0D01*
G01*
X94399000Y-149259000D01*
G75*
G02*
X94299000Y-149159000I0J100000D01*
G01*
X94299000Y-147884000D01*
G75*
G02*
X94399000Y-147784000I100000J0D01*
G01*
G37*
G36*
G01*
X95049000Y-147784000D02*
X95249000Y-147784000D01*
G75*
G02*
X95349000Y-147884000I0J-100000D01*
G01*
X95349000Y-149159000D01*
G75*
G02*
X95249000Y-149259000I-100000J0D01*
G01*
X95049000Y-149259000D01*
G75*
G02*
X94949000Y-149159000I0J100000D01*
G01*
X94949000Y-147884000D01*
G75*
G02*
X95049000Y-147784000I100000J0D01*
G01*
G37*
G36*
G01*
X95699000Y-147784000D02*
X95899000Y-147784000D01*
G75*
G02*
X95999000Y-147884000I0J-100000D01*
G01*
X95999000Y-149159000D01*
G75*
G02*
X95899000Y-149259000I-100000J0D01*
G01*
X95699000Y-149259000D01*
G75*
G02*
X95599000Y-149159000I0J100000D01*
G01*
X95599000Y-147884000D01*
G75*
G02*
X95699000Y-147784000I100000J0D01*
G01*
G37*
G36*
G01*
X96349000Y-147784000D02*
X96549000Y-147784000D01*
G75*
G02*
X96649000Y-147884000I0J-100000D01*
G01*
X96649000Y-149159000D01*
G75*
G02*
X96549000Y-149259000I-100000J0D01*
G01*
X96349000Y-149259000D01*
G75*
G02*
X96249000Y-149159000I0J100000D01*
G01*
X96249000Y-147884000D01*
G75*
G02*
X96349000Y-147784000I100000J0D01*
G01*
G37*
G36*
G01*
X96999000Y-147784000D02*
X97199000Y-147784000D01*
G75*
G02*
X97299000Y-147884000I0J-100000D01*
G01*
X97299000Y-149159000D01*
G75*
G02*
X97199000Y-149259000I-100000J0D01*
G01*
X96999000Y-149259000D01*
G75*
G02*
X96899000Y-149159000I0J100000D01*
G01*
X96899000Y-147884000D01*
G75*
G02*
X96999000Y-147784000I100000J0D01*
G01*
G37*
G36*
G01*
X97649000Y-147784000D02*
X97849000Y-147784000D01*
G75*
G02*
X97949000Y-147884000I0J-100000D01*
G01*
X97949000Y-149159000D01*
G75*
G02*
X97849000Y-149259000I-100000J0D01*
G01*
X97649000Y-149259000D01*
G75*
G02*
X97549000Y-149159000I0J100000D01*
G01*
X97549000Y-147884000D01*
G75*
G02*
X97649000Y-147784000I100000J0D01*
G01*
G37*
G36*
G01*
X98299000Y-147784000D02*
X98499000Y-147784000D01*
G75*
G02*
X98599000Y-147884000I0J-100000D01*
G01*
X98599000Y-149159000D01*
G75*
G02*
X98499000Y-149259000I-100000J0D01*
G01*
X98299000Y-149259000D01*
G75*
G02*
X98199000Y-149159000I0J100000D01*
G01*
X98199000Y-147884000D01*
G75*
G02*
X98299000Y-147784000I100000J0D01*
G01*
G37*
G36*
G01*
X98949000Y-147784000D02*
X99149000Y-147784000D01*
G75*
G02*
X99249000Y-147884000I0J-100000D01*
G01*
X99249000Y-149159000D01*
G75*
G02*
X99149000Y-149259000I-100000J0D01*
G01*
X98949000Y-149259000D01*
G75*
G02*
X98849000Y-149159000I0J100000D01*
G01*
X98849000Y-147884000D01*
G75*
G02*
X98949000Y-147784000I100000J0D01*
G01*
G37*
G36*
G01*
X100580000Y-131501000D02*
X100080000Y-131501000D01*
G75*
G02*
X99855000Y-131276000I0J225000D01*
G01*
X99855000Y-130826000D01*
G75*
G02*
X100080000Y-130601000I225000J0D01*
G01*
X100580000Y-130601000D01*
G75*
G02*
X100805000Y-130826000I0J-225000D01*
G01*
X100805000Y-131276000D01*
G75*
G02*
X100580000Y-131501000I-225000J0D01*
G01*
G37*
G36*
G01*
X100580000Y-133051000D02*
X100080000Y-133051000D01*
G75*
G02*
X99855000Y-132826000I0J225000D01*
G01*
X99855000Y-132376000D01*
G75*
G02*
X100080000Y-132151000I225000J0D01*
G01*
X100580000Y-132151000D01*
G75*
G02*
X100805000Y-132376000I0J-225000D01*
G01*
X100805000Y-132826000D01*
G75*
G02*
X100580000Y-133051000I-225000J0D01*
G01*
G37*
G36*
G01*
X100580000Y-153345000D02*
X100080000Y-153345000D01*
G75*
G02*
X99855000Y-153120000I0J225000D01*
G01*
X99855000Y-152670000D01*
G75*
G02*
X100080000Y-152445000I225000J0D01*
G01*
X100580000Y-152445000D01*
G75*
G02*
X100805000Y-152670000I0J-225000D01*
G01*
X100805000Y-153120000D01*
G75*
G02*
X100580000Y-153345000I-225000J0D01*
G01*
G37*
G36*
G01*
X100580000Y-154895000D02*
X100080000Y-154895000D01*
G75*
G02*
X99855000Y-154670000I0J225000D01*
G01*
X99855000Y-154220000D01*
G75*
G02*
X100080000Y-153995000I225000J0D01*
G01*
X100580000Y-153995000D01*
G75*
G02*
X100805000Y-154220000I0J-225000D01*
G01*
X100805000Y-154670000D01*
G75*
G02*
X100580000Y-154895000I-225000J0D01*
G01*
G37*
G36*
G01*
X100580000Y-142423000D02*
X100080000Y-142423000D01*
G75*
G02*
X99855000Y-142198000I0J225000D01*
G01*
X99855000Y-141748000D01*
G75*
G02*
X100080000Y-141523000I225000J0D01*
G01*
X100580000Y-141523000D01*
G75*
G02*
X100805000Y-141748000I0J-225000D01*
G01*
X100805000Y-142198000D01*
G75*
G02*
X100580000Y-142423000I-225000J0D01*
G01*
G37*
G36*
G01*
X100580000Y-143973000D02*
X100080000Y-143973000D01*
G75*
G02*
X99855000Y-143748000I0J225000D01*
G01*
X99855000Y-143298000D01*
G75*
G02*
X100080000Y-143073000I225000J0D01*
G01*
X100580000Y-143073000D01*
G75*
G02*
X100805000Y-143298000I0J-225000D01*
G01*
X100805000Y-143748000D01*
G75*
G02*
X100580000Y-143973000I-225000J0D01*
G01*
G37*
D12*
X133826000Y-139566000D03*
D13*
X129826000Y-140716000D03*
D12*
X133826000Y-141866000D03*
D14*
X101208000Y-119367000D03*
D15*
X90533000Y-119417000D03*
D16*
X90408000Y-116967000D03*
X90408000Y-115867000D03*
X90408000Y-114767000D03*
X90408000Y-113667000D03*
X90408000Y-112567000D03*
X90408000Y-111467000D03*
X90408000Y-110367000D03*
D17*
X98783000Y-119767000D03*
D18*
X99633000Y-108142000D03*
D19*
X98133000Y-107817000D03*
D20*
X90533000Y-108067000D03*
D16*
X90408000Y-109267000D03*
G36*
G01*
X134397000Y-150070000D02*
X134597000Y-150070000D01*
G75*
G02*
X134697000Y-150170000I0J-100000D01*
G01*
X134697000Y-151445000D01*
G75*
G02*
X134597000Y-151545000I-100000J0D01*
G01*
X134397000Y-151545000D01*
G75*
G02*
X134297000Y-151445000I0J100000D01*
G01*
X134297000Y-150170000D01*
G75*
G02*
X134397000Y-150070000I100000J0D01*
G01*
G37*
G36*
G01*
X133747000Y-150070000D02*
X133947000Y-150070000D01*
G75*
G02*
X134047000Y-150170000I0J-100000D01*
G01*
X134047000Y-151445000D01*
G75*
G02*
X133947000Y-151545000I-100000J0D01*
G01*
X133747000Y-151545000D01*
G75*
G02*
X133647000Y-151445000I0J100000D01*
G01*
X133647000Y-150170000D01*
G75*
G02*
X133747000Y-150070000I100000J0D01*
G01*
G37*
G36*
G01*
X133097000Y-150070000D02*
X133297000Y-150070000D01*
G75*
G02*
X133397000Y-150170000I0J-100000D01*
G01*
X133397000Y-151445000D01*
G75*
G02*
X133297000Y-151545000I-100000J0D01*
G01*
X133097000Y-151545000D01*
G75*
G02*
X132997000Y-151445000I0J100000D01*
G01*
X132997000Y-150170000D01*
G75*
G02*
X133097000Y-150070000I100000J0D01*
G01*
G37*
G36*
G01*
X132447000Y-150070000D02*
X132647000Y-150070000D01*
G75*
G02*
X132747000Y-150170000I0J-100000D01*
G01*
X132747000Y-151445000D01*
G75*
G02*
X132647000Y-151545000I-100000J0D01*
G01*
X132447000Y-151545000D01*
G75*
G02*
X132347000Y-151445000I0J100000D01*
G01*
X132347000Y-150170000D01*
G75*
G02*
X132447000Y-150070000I100000J0D01*
G01*
G37*
G36*
G01*
X131797000Y-150070000D02*
X131997000Y-150070000D01*
G75*
G02*
X132097000Y-150170000I0J-100000D01*
G01*
X132097000Y-151445000D01*
G75*
G02*
X131997000Y-151545000I-100000J0D01*
G01*
X131797000Y-151545000D01*
G75*
G02*
X131697000Y-151445000I0J100000D01*
G01*
X131697000Y-150170000D01*
G75*
G02*
X131797000Y-150070000I100000J0D01*
G01*
G37*
G36*
G01*
X131147000Y-150070000D02*
X131347000Y-150070000D01*
G75*
G02*
X131447000Y-150170000I0J-100000D01*
G01*
X131447000Y-151445000D01*
G75*
G02*
X131347000Y-151545000I-100000J0D01*
G01*
X131147000Y-151545000D01*
G75*
G02*
X131047000Y-151445000I0J100000D01*
G01*
X131047000Y-150170000D01*
G75*
G02*
X131147000Y-150070000I100000J0D01*
G01*
G37*
G36*
G01*
X130497000Y-150070000D02*
X130697000Y-150070000D01*
G75*
G02*
X130797000Y-150170000I0J-100000D01*
G01*
X130797000Y-151445000D01*
G75*
G02*
X130697000Y-151545000I-100000J0D01*
G01*
X130497000Y-151545000D01*
G75*
G02*
X130397000Y-151445000I0J100000D01*
G01*
X130397000Y-150170000D01*
G75*
G02*
X130497000Y-150070000I100000J0D01*
G01*
G37*
G36*
G01*
X129847000Y-150070000D02*
X130047000Y-150070000D01*
G75*
G02*
X130147000Y-150170000I0J-100000D01*
G01*
X130147000Y-151445000D01*
G75*
G02*
X130047000Y-151545000I-100000J0D01*
G01*
X129847000Y-151545000D01*
G75*
G02*
X129747000Y-151445000I0J100000D01*
G01*
X129747000Y-150170000D01*
G75*
G02*
X129847000Y-150070000I100000J0D01*
G01*
G37*
G36*
G01*
X129197000Y-150070000D02*
X129397000Y-150070000D01*
G75*
G02*
X129497000Y-150170000I0J-100000D01*
G01*
X129497000Y-151445000D01*
G75*
G02*
X129397000Y-151545000I-100000J0D01*
G01*
X129197000Y-151545000D01*
G75*
G02*
X129097000Y-151445000I0J100000D01*
G01*
X129097000Y-150170000D01*
G75*
G02*
X129197000Y-150070000I100000J0D01*
G01*
G37*
G36*
G01*
X128547000Y-150070000D02*
X128747000Y-150070000D01*
G75*
G02*
X128847000Y-150170000I0J-100000D01*
G01*
X128847000Y-151445000D01*
G75*
G02*
X128747000Y-151545000I-100000J0D01*
G01*
X128547000Y-151545000D01*
G75*
G02*
X128447000Y-151445000I0J100000D01*
G01*
X128447000Y-150170000D01*
G75*
G02*
X128547000Y-150070000I100000J0D01*
G01*
G37*
G36*
G01*
X128547000Y-155795000D02*
X128747000Y-155795000D01*
G75*
G02*
X128847000Y-155895000I0J-100000D01*
G01*
X128847000Y-157170000D01*
G75*
G02*
X128747000Y-157270000I-100000J0D01*
G01*
X128547000Y-157270000D01*
G75*
G02*
X128447000Y-157170000I0J100000D01*
G01*
X128447000Y-155895000D01*
G75*
G02*
X128547000Y-155795000I100000J0D01*
G01*
G37*
G36*
G01*
X129197000Y-155795000D02*
X129397000Y-155795000D01*
G75*
G02*
X129497000Y-155895000I0J-100000D01*
G01*
X129497000Y-157170000D01*
G75*
G02*
X129397000Y-157270000I-100000J0D01*
G01*
X129197000Y-157270000D01*
G75*
G02*
X129097000Y-157170000I0J100000D01*
G01*
X129097000Y-155895000D01*
G75*
G02*
X129197000Y-155795000I100000J0D01*
G01*
G37*
G36*
G01*
X129847000Y-155795000D02*
X130047000Y-155795000D01*
G75*
G02*
X130147000Y-155895000I0J-100000D01*
G01*
X130147000Y-157170000D01*
G75*
G02*
X130047000Y-157270000I-100000J0D01*
G01*
X129847000Y-157270000D01*
G75*
G02*
X129747000Y-157170000I0J100000D01*
G01*
X129747000Y-155895000D01*
G75*
G02*
X129847000Y-155795000I100000J0D01*
G01*
G37*
G36*
G01*
X130497000Y-155795000D02*
X130697000Y-155795000D01*
G75*
G02*
X130797000Y-155895000I0J-100000D01*
G01*
X130797000Y-157170000D01*
G75*
G02*
X130697000Y-157270000I-100000J0D01*
G01*
X130497000Y-157270000D01*
G75*
G02*
X130397000Y-157170000I0J100000D01*
G01*
X130397000Y-155895000D01*
G75*
G02*
X130497000Y-155795000I100000J0D01*
G01*
G37*
G36*
G01*
X131147000Y-155795000D02*
X131347000Y-155795000D01*
G75*
G02*
X131447000Y-155895000I0J-100000D01*
G01*
X131447000Y-157170000D01*
G75*
G02*
X131347000Y-157270000I-100000J0D01*
G01*
X131147000Y-157270000D01*
G75*
G02*
X131047000Y-157170000I0J100000D01*
G01*
X131047000Y-155895000D01*
G75*
G02*
X131147000Y-155795000I100000J0D01*
G01*
G37*
G36*
G01*
X131797000Y-155795000D02*
X131997000Y-155795000D01*
G75*
G02*
X132097000Y-155895000I0J-100000D01*
G01*
X132097000Y-157170000D01*
G75*
G02*
X131997000Y-157270000I-100000J0D01*
G01*
X131797000Y-157270000D01*
G75*
G02*
X131697000Y-157170000I0J100000D01*
G01*
X131697000Y-155895000D01*
G75*
G02*
X131797000Y-155795000I100000J0D01*
G01*
G37*
G36*
G01*
X132447000Y-155795000D02*
X132647000Y-155795000D01*
G75*
G02*
X132747000Y-155895000I0J-100000D01*
G01*
X132747000Y-157170000D01*
G75*
G02*
X132647000Y-157270000I-100000J0D01*
G01*
X132447000Y-157270000D01*
G75*
G02*
X132347000Y-157170000I0J100000D01*
G01*
X132347000Y-155895000D01*
G75*
G02*
X132447000Y-155795000I100000J0D01*
G01*
G37*
G36*
G01*
X133097000Y-155795000D02*
X133297000Y-155795000D01*
G75*
G02*
X133397000Y-155895000I0J-100000D01*
G01*
X133397000Y-157170000D01*
G75*
G02*
X133297000Y-157270000I-100000J0D01*
G01*
X133097000Y-157270000D01*
G75*
G02*
X132997000Y-157170000I0J100000D01*
G01*
X132997000Y-155895000D01*
G75*
G02*
X133097000Y-155795000I100000J0D01*
G01*
G37*
G36*
G01*
X133747000Y-155795000D02*
X133947000Y-155795000D01*
G75*
G02*
X134047000Y-155895000I0J-100000D01*
G01*
X134047000Y-157170000D01*
G75*
G02*
X133947000Y-157270000I-100000J0D01*
G01*
X133747000Y-157270000D01*
G75*
G02*
X133647000Y-157170000I0J100000D01*
G01*
X133647000Y-155895000D01*
G75*
G02*
X133747000Y-155795000I100000J0D01*
G01*
G37*
G36*
G01*
X134397000Y-155795000D02*
X134597000Y-155795000D01*
G75*
G02*
X134697000Y-155895000I0J-100000D01*
G01*
X134697000Y-157170000D01*
G75*
G02*
X134597000Y-157270000I-100000J0D01*
G01*
X134397000Y-157270000D01*
G75*
G02*
X134297000Y-157170000I0J100000D01*
G01*
X134297000Y-155895000D01*
G75*
G02*
X134397000Y-155795000I100000J0D01*
G01*
G37*
G36*
G01*
X130385000Y-128757000D02*
X130385000Y-129307000D01*
G75*
G02*
X130185000Y-129507000I-200000J0D01*
G01*
X129785000Y-129507000D01*
G75*
G02*
X129585000Y-129307000I0J200000D01*
G01*
X129585000Y-128757000D01*
G75*
G02*
X129785000Y-128557000I200000J0D01*
G01*
X130185000Y-128557000D01*
G75*
G02*
X130385000Y-128757000I0J-200000D01*
G01*
G37*
G36*
G01*
X132035000Y-128757000D02*
X132035000Y-129307000D01*
G75*
G02*
X131835000Y-129507000I-200000J0D01*
G01*
X131435000Y-129507000D01*
G75*
G02*
X131235000Y-129307000I0J200000D01*
G01*
X131235000Y-128757000D01*
G75*
G02*
X131435000Y-128557000I200000J0D01*
G01*
X131835000Y-128557000D01*
G75*
G02*
X132035000Y-128757000I0J-200000D01*
G01*
G37*
G36*
G01*
X92816000Y-103550000D02*
X93366000Y-103550000D01*
G75*
G02*
X93566000Y-103750000I0J-200000D01*
G01*
X93566000Y-104150000D01*
G75*
G02*
X93366000Y-104350000I-200000J0D01*
G01*
X92816000Y-104350000D01*
G75*
G02*
X92616000Y-104150000I0J200000D01*
G01*
X92616000Y-103750000D01*
G75*
G02*
X92816000Y-103550000I200000J0D01*
G01*
G37*
G36*
G01*
X92816000Y-105200000D02*
X93366000Y-105200000D01*
G75*
G02*
X93566000Y-105400000I0J-200000D01*
G01*
X93566000Y-105800000D01*
G75*
G02*
X93366000Y-106000000I-200000J0D01*
G01*
X92816000Y-106000000D01*
G75*
G02*
X92616000Y-105800000I0J200000D01*
G01*
X92616000Y-105400000D01*
G75*
G02*
X92816000Y-105200000I200000J0D01*
G01*
G37*
G36*
G01*
X94594000Y-105200000D02*
X95144000Y-105200000D01*
G75*
G02*
X95344000Y-105400000I0J-200000D01*
G01*
X95344000Y-105800000D01*
G75*
G02*
X95144000Y-106000000I-200000J0D01*
G01*
X94594000Y-106000000D01*
G75*
G02*
X94394000Y-105800000I0J200000D01*
G01*
X94394000Y-105400000D01*
G75*
G02*
X94594000Y-105200000I200000J0D01*
G01*
G37*
G36*
G01*
X94594000Y-103550000D02*
X95144000Y-103550000D01*
G75*
G02*
X95344000Y-103750000I0J-200000D01*
G01*
X95344000Y-104150000D01*
G75*
G02*
X95144000Y-104350000I-200000J0D01*
G01*
X94594000Y-104350000D01*
G75*
G02*
X94394000Y-104150000I0J200000D01*
G01*
X94394000Y-103750000D01*
G75*
G02*
X94594000Y-103550000I200000J0D01*
G01*
G37*
D10*
G36*
X134000000Y-125742602D02*
G01*
X134024534Y-125742602D01*
X134073365Y-125747412D01*
X134121490Y-125756984D01*
X134168445Y-125771228D01*
X134213778Y-125790005D01*
X134257051Y-125813136D01*
X134297850Y-125840396D01*
X134335779Y-125871524D01*
X134370476Y-125906221D01*
X134401604Y-125944150D01*
X134428864Y-125984949D01*
X134451995Y-126028222D01*
X134470772Y-126073555D01*
X134485016Y-126120510D01*
X134494588Y-126168635D01*
X134499398Y-126217466D01*
X134499398Y-126242000D01*
X134500000Y-126242000D01*
X134500000Y-126742000D01*
X134499398Y-126742000D01*
X134499398Y-126766534D01*
X134494588Y-126815365D01*
X134485016Y-126863490D01*
X134470772Y-126910445D01*
X134451995Y-126955778D01*
X134428864Y-126999051D01*
X134401604Y-127039850D01*
X134370476Y-127077779D01*
X134335779Y-127112476D01*
X134297850Y-127143604D01*
X134257051Y-127170864D01*
X134213778Y-127193995D01*
X134168445Y-127212772D01*
X134121490Y-127227016D01*
X134073365Y-127236588D01*
X134024534Y-127241398D01*
X134000000Y-127241398D01*
X134000000Y-127242000D01*
X133500000Y-127242000D01*
X133500000Y-125742000D01*
X134000000Y-125742000D01*
X134000000Y-125742602D01*
G37*
G36*
X133200000Y-127242000D02*
G01*
X132700000Y-127242000D01*
X132700000Y-127241398D01*
X132675466Y-127241398D01*
X132626635Y-127236588D01*
X132578510Y-127227016D01*
X132531555Y-127212772D01*
X132486222Y-127193995D01*
X132442949Y-127170864D01*
X132402150Y-127143604D01*
X132364221Y-127112476D01*
X132329524Y-127077779D01*
X132298396Y-127039850D01*
X132271136Y-126999051D01*
X132248005Y-126955778D01*
X132229228Y-126910445D01*
X132214984Y-126863490D01*
X132205412Y-126815365D01*
X132200602Y-126766534D01*
X132200602Y-126742000D01*
X132200000Y-126742000D01*
X132200000Y-126242000D01*
X132200602Y-126242000D01*
X132200602Y-126217466D01*
X132205412Y-126168635D01*
X132214984Y-126120510D01*
X132229228Y-126073555D01*
X132248005Y-126028222D01*
X132271136Y-125984949D01*
X132298396Y-125944150D01*
X132329524Y-125906221D01*
X132364221Y-125871524D01*
X132402150Y-125840396D01*
X132442949Y-125813136D01*
X132486222Y-125790005D01*
X132531555Y-125771228D01*
X132578510Y-125756984D01*
X132626635Y-125747412D01*
X132675466Y-125742602D01*
X132700000Y-125742602D01*
X132700000Y-125742000D01*
X133200000Y-125742000D01*
X133200000Y-127242000D01*
G37*
G36*
X134000000Y-122948602D02*
G01*
X134024534Y-122948602D01*
X134073365Y-122953412D01*
X134121490Y-122962984D01*
X134168445Y-122977228D01*
X134213778Y-122996005D01*
X134257051Y-123019136D01*
X134297850Y-123046396D01*
X134335779Y-123077524D01*
X134370476Y-123112221D01*
X134401604Y-123150150D01*
X134428864Y-123190949D01*
X134451995Y-123234222D01*
X134470772Y-123279555D01*
X134485016Y-123326510D01*
X134494588Y-123374635D01*
X134499398Y-123423466D01*
X134499398Y-123448000D01*
X134500000Y-123448000D01*
X134500000Y-123948000D01*
X134499398Y-123948000D01*
X134499398Y-123972534D01*
X134494588Y-124021365D01*
X134485016Y-124069490D01*
X134470772Y-124116445D01*
X134451995Y-124161778D01*
X134428864Y-124205051D01*
X134401604Y-124245850D01*
X134370476Y-124283779D01*
X134335779Y-124318476D01*
X134297850Y-124349604D01*
X134257051Y-124376864D01*
X134213778Y-124399995D01*
X134168445Y-124418772D01*
X134121490Y-124433016D01*
X134073365Y-124442588D01*
X134024534Y-124447398D01*
X134000000Y-124447398D01*
X134000000Y-124448000D01*
X133500000Y-124448000D01*
X133500000Y-122948000D01*
X134000000Y-122948000D01*
X134000000Y-122948602D01*
G37*
G36*
X133200000Y-124448000D02*
G01*
X132700000Y-124448000D01*
X132700000Y-124447398D01*
X132675466Y-124447398D01*
X132626635Y-124442588D01*
X132578510Y-124433016D01*
X132531555Y-124418772D01*
X132486222Y-124399995D01*
X132442949Y-124376864D01*
X132402150Y-124349604D01*
X132364221Y-124318476D01*
X132329524Y-124283779D01*
X132298396Y-124245850D01*
X132271136Y-124205051D01*
X132248005Y-124161778D01*
X132229228Y-124116445D01*
X132214984Y-124069490D01*
X132205412Y-124021365D01*
X132200602Y-123972534D01*
X132200602Y-123948000D01*
X132200000Y-123948000D01*
X132200000Y-123448000D01*
X132200602Y-123448000D01*
X132200602Y-123423466D01*
X132205412Y-123374635D01*
X132214984Y-123326510D01*
X132229228Y-123279555D01*
X132248005Y-123234222D01*
X132271136Y-123190949D01*
X132298396Y-123150150D01*
X132329524Y-123112221D01*
X132364221Y-123077524D01*
X132402150Y-123046396D01*
X132442949Y-123019136D01*
X132486222Y-122996005D01*
X132531555Y-122977228D01*
X132578510Y-122962984D01*
X132626635Y-122953412D01*
X132675466Y-122948602D01*
X132700000Y-122948602D01*
X132700000Y-122948000D01*
X133200000Y-122948000D01*
X133200000Y-124448000D01*
G37*
G36*
G01*
X129681000Y-116422997D02*
X129681000Y-118273003D01*
G75*
G02*
X129431003Y-118523000I-249997J0D01*
G01*
X128605997Y-118523000D01*
G75*
G02*
X128356000Y-118273003I0J249997D01*
G01*
X128356000Y-116422997D01*
G75*
G02*
X128605997Y-116173000I249997J0D01*
G01*
X129431003Y-116173000D01*
G75*
G02*
X129681000Y-116422997I0J-249997D01*
G01*
G37*
G36*
G01*
X132756000Y-116422997D02*
X132756000Y-118273003D01*
G75*
G02*
X132506003Y-118523000I-249997J0D01*
G01*
X131680997Y-118523000D01*
G75*
G02*
X131431000Y-118273003I0J249997D01*
G01*
X131431000Y-116422997D01*
G75*
G02*
X131680997Y-116173000I249997J0D01*
G01*
X132506003Y-116173000D01*
G75*
G02*
X132756000Y-116422997I0J-249997D01*
G01*
G37*
D21*
X108966000Y-156972000D03*
X111506000Y-156972000D03*
X114046000Y-156972000D03*
X116586000Y-156972000D03*
X119126000Y-156972000D03*
X121666000Y-156972000D03*
X108966000Y-154432000D03*
X111506000Y-154432000D03*
X114046000Y-154432000D03*
X116586000Y-154432000D03*
X119126000Y-154432000D03*
X121666000Y-154432000D03*
X122936000Y-131572000D03*
X122936000Y-129032000D03*
X122936000Y-126492000D03*
X122936000Y-123952000D03*
X122936000Y-121412000D03*
X122936000Y-118872000D03*
X107696000Y-123952000D03*
X107696000Y-121412000D03*
X107696000Y-118872000D03*
X125476000Y-118872000D03*
X125476000Y-121412000D03*
X125476000Y-123952000D03*
X125476000Y-126492000D03*
X125476000Y-129032000D03*
X125476000Y-131572000D03*
X125476000Y-134112000D03*
X125476000Y-136652000D03*
X125476000Y-139192000D03*
X125476000Y-141732000D03*
X125476000Y-144272000D03*
X125476000Y-146812000D03*
X125476000Y-149352000D03*
X125476000Y-151892000D03*
X105156000Y-151892000D03*
X105156000Y-149352000D03*
X105156000Y-146812000D03*
X105156000Y-144272000D03*
X105156000Y-141732000D03*
X105156000Y-139192000D03*
X105156000Y-136652000D03*
X105156000Y-134112000D03*
X105156000Y-131572000D03*
X105156000Y-129032000D03*
X105156000Y-126492000D03*
X105156000Y-123952000D03*
X105156000Y-121412000D03*
X105156000Y-118872000D03*
G36*
G01*
X129115000Y-131043000D02*
X129115000Y-131593000D01*
G75*
G02*
X128915000Y-131793000I-200000J0D01*
G01*
X128515000Y-131793000D01*
G75*
G02*
X128315000Y-131593000I0J200000D01*
G01*
X128315000Y-131043000D01*
G75*
G02*
X128515000Y-130843000I200000J0D01*
G01*
X128915000Y-130843000D01*
G75*
G02*
X129115000Y-131043000I0J-200000D01*
G01*
G37*
G36*
G01*
X130765000Y-131043000D02*
X130765000Y-131593000D01*
G75*
G02*
X130565000Y-131793000I-200000J0D01*
G01*
X130165000Y-131793000D01*
G75*
G02*
X129965000Y-131593000I0J200000D01*
G01*
X129965000Y-131043000D01*
G75*
G02*
X130165000Y-130843000I200000J0D01*
G01*
X130565000Y-130843000D01*
G75*
G02*
X130765000Y-131043000I0J-200000D01*
G01*
G37*
G36*
G01*
X98850000Y-104288000D02*
X98850000Y-103738000D01*
G75*
G02*
X99050000Y-103538000I200000J0D01*
G01*
X99450000Y-103538000D01*
G75*
G02*
X99650000Y-103738000I0J-200000D01*
G01*
X99650000Y-104288000D01*
G75*
G02*
X99450000Y-104488000I-200000J0D01*
G01*
X99050000Y-104488000D01*
G75*
G02*
X98850000Y-104288000I0J200000D01*
G01*
G37*
G36*
G01*
X97200000Y-104288000D02*
X97200000Y-103738000D01*
G75*
G02*
X97400000Y-103538000I200000J0D01*
G01*
X97800000Y-103538000D01*
G75*
G02*
X98000000Y-103738000I0J-200000D01*
G01*
X98000000Y-104288000D01*
G75*
G02*
X97800000Y-104488000I-200000J0D01*
G01*
X97400000Y-104488000D01*
G75*
G02*
X97200000Y-104288000I0J200000D01*
G01*
G37*
D22*
X96701500Y-97967800D03*
X89226500Y-97967800D03*
D23*
X92964000Y-97967800D03*
D24*
X92314000Y-100642800D03*
D25*
X88789000Y-97967800D03*
X97139000Y-97967800D03*
D26*
X90739000Y-100967800D03*
D24*
X91664000Y-100642800D03*
X92964000Y-100642800D03*
X93614000Y-100642800D03*
X94264000Y-100642800D03*
D26*
X95189000Y-100967800D03*
G36*
G01*
X134108000Y-149307000D02*
X133608000Y-149307000D01*
G75*
G02*
X133383000Y-149082000I0J225000D01*
G01*
X133383000Y-148632000D01*
G75*
G02*
X133608000Y-148407000I225000J0D01*
G01*
X134108000Y-148407000D01*
G75*
G02*
X134333000Y-148632000I0J-225000D01*
G01*
X134333000Y-149082000D01*
G75*
G02*
X134108000Y-149307000I-225000J0D01*
G01*
G37*
G36*
G01*
X134108000Y-147757000D02*
X133608000Y-147757000D01*
G75*
G02*
X133383000Y-147532000I0J225000D01*
G01*
X133383000Y-147082000D01*
G75*
G02*
X133608000Y-146857000I225000J0D01*
G01*
X134108000Y-146857000D01*
G75*
G02*
X134333000Y-147082000I0J-225000D01*
G01*
X134333000Y-147532000D01*
G75*
G02*
X134108000Y-147757000I-225000J0D01*
G01*
G37*
G36*
G01*
X134108000Y-135311000D02*
X133608000Y-135311000D01*
G75*
G02*
X133383000Y-135086000I0J225000D01*
G01*
X133383000Y-134636000D01*
G75*
G02*
X133608000Y-134411000I225000J0D01*
G01*
X134108000Y-134411000D01*
G75*
G02*
X134333000Y-134636000I0J-225000D01*
G01*
X134333000Y-135086000D01*
G75*
G02*
X134108000Y-135311000I-225000J0D01*
G01*
G37*
G36*
G01*
X134108000Y-136861000D02*
X133608000Y-136861000D01*
G75*
G02*
X133383000Y-136636000I0J225000D01*
G01*
X133383000Y-136186000D01*
G75*
G02*
X133608000Y-135961000I225000J0D01*
G01*
X134108000Y-135961000D01*
G75*
G02*
X134333000Y-136186000I0J-225000D01*
G01*
X134333000Y-136636000D01*
G75*
G02*
X134108000Y-136861000I-225000J0D01*
G01*
G37*
G36*
G01*
X133167000Y-131568000D02*
X133167000Y-131068000D01*
G75*
G02*
X133392000Y-130843000I225000J0D01*
G01*
X133842000Y-130843000D01*
G75*
G02*
X134067000Y-131068000I0J-225000D01*
G01*
X134067000Y-131568000D01*
G75*
G02*
X133842000Y-131793000I-225000J0D01*
G01*
X133392000Y-131793000D01*
G75*
G02*
X133167000Y-131568000I0J225000D01*
G01*
G37*
G36*
G01*
X131617000Y-131568000D02*
X131617000Y-131068000D01*
G75*
G02*
X131842000Y-130843000I225000J0D01*
G01*
X132292000Y-130843000D01*
G75*
G02*
X132517000Y-131068000I0J-225000D01*
G01*
X132517000Y-131568000D01*
G75*
G02*
X132292000Y-131793000I-225000J0D01*
G01*
X131842000Y-131793000D01*
G75*
G02*
X131617000Y-131568000I0J225000D01*
G01*
G37*
D27*
X87790000Y-165100000D03*
D28*
X89490000Y-165100000D03*
X90990000Y-165100000D03*
X92490000Y-165100000D03*
X93990000Y-165100000D03*
X95490000Y-165100000D03*
X96990000Y-165100000D03*
X98490000Y-165100000D03*
X99990000Y-165100000D03*
X101490000Y-165100000D03*
X102990000Y-165100000D03*
X104490000Y-165100000D03*
X105990000Y-165100000D03*
X107490000Y-165100000D03*
X108990000Y-165100000D03*
X110490000Y-165100000D03*
X111990000Y-165100000D03*
X113490000Y-165100000D03*
X114990000Y-165100000D03*
X116490000Y-165100000D03*
X117990000Y-165100000D03*
X119490000Y-165100000D03*
X120990000Y-165100000D03*
X122490000Y-165100000D03*
X123990000Y-165100000D03*
X125490000Y-165100000D03*
X126990000Y-165100000D03*
X128490000Y-165100000D03*
X129990000Y-165100000D03*
X131490000Y-165100000D03*
X132990000Y-165100000D03*
D27*
X134690000Y-165100000D03*
M02*
