M48
; DRILL file {KiCad (5.1.10)-1} date 08/09/22 16:27:38
; FORMAT={-:-/ absolute / metric / decimal}
; #@! TF.CreationDate,2022-08-09T16:27:38+02:00
; #@! TF.GenerationSoftware,Kicad,Pcbnew,(5.1.10)-1
; #@! TF.FileFunction,Plated,1,2,PTH
FMAT,2
METRIC
T1C0.400
T2C0.600
T3C0.650
T4C0.762
%
G90
G05
T1
X88.646Y-138.938
X88.9Y-145.542
X89.154Y-121.92
X90.778Y-112.676
X94.234Y-149.352
X96.266Y-139.192
X96.774Y-145.796
X97.282Y-103.632
X98.044Y-118.11
X99.822Y-105.918
X101.854Y-149.352
X103.794Y-126.492
X111.868Y-135.382
X119.888Y-135.382
X122.936Y-159.004
X127.254Y-138.43
X127.254Y-157.734
X129.286Y-141.986
X130.048Y-132.842
X130.556Y-148.59
X131.576Y-157.988
X132.626Y-161.582
X133.604Y-129.794
X134.62Y-141.478
X134.825Y-149.098
T2
X87.884Y-161.036
X95.504Y-152.908
X123.698Y-151.892
X128.27Y-128.016
X134.366Y-160.528
T4
X105.156Y-118.872
X105.156Y-121.412
X105.156Y-123.952
X105.156Y-126.492
X105.156Y-129.032
X105.156Y-131.572
X105.156Y-134.112
X105.156Y-136.652
X105.156Y-139.192
X105.156Y-141.732
X105.156Y-144.272
X105.156Y-146.812
X105.156Y-149.352
X105.156Y-151.892
X107.696Y-118.872
X107.696Y-121.412
X107.696Y-123.952
X108.966Y-154.432
X108.966Y-156.972
X111.506Y-154.432
X111.506Y-156.972
X114.046Y-154.432
X114.046Y-156.972
X116.586Y-154.432
X116.586Y-156.972
X119.126Y-154.432
X119.126Y-156.972
X121.666Y-154.432
X121.666Y-156.972
X122.936Y-118.872
X122.936Y-121.412
X122.936Y-123.952
X122.936Y-126.492
X122.936Y-129.032
X122.936Y-131.572
X125.476Y-118.872
X125.476Y-121.412
X125.476Y-123.952
X125.476Y-126.492
X125.476Y-129.032
X125.476Y-131.572
X125.476Y-134.112
X125.476Y-136.652
X125.476Y-139.192
X125.476Y-141.732
X125.476Y-144.272
X125.476Y-146.812
X125.476Y-149.352
X125.476Y-151.892
T2
X88.789Y-98.318G85X88.789Y-97.618
G05
X97.139Y-98.318G85X97.139Y-97.618
G05
T3
X90.739Y-101.068G85X90.739Y-100.868
G05
X95.189Y-101.068G85X95.189Y-100.868
G05
T0
M30
