M48
; DRILL file {KiCad (5.1.10)-1} date 09/08/22 14:44:39
; FORMAT={-:-/ absolute / metric / decimal}
; #@! TF.CreationDate,2022-09-08T14:44:39+02:00
; #@! TF.GenerationSoftware,Kicad,Pcbnew,(5.1.10)-1
; #@! TF.FileFunction,Plated,1,2,PTH
FMAT,2
METRIC
T1C0.400
T2C0.600
T3C0.650
T4C0.762
%
G90
G05
T1
X87.63Y-121.92
X88.011Y-113.665
X88.9Y-120.015
X89.027Y-103.886
X89.154Y-128.143
X89.535Y-106.045
X90.174Y-157.349
X91.313Y-136.017
X91.948Y-111.506
X92.075Y-114.808
X92.202Y-112.649
X93.472Y-154.051
X93.599Y-136.017
X93.726Y-126.746
X93.726Y-137.541
X93.726Y-148.463
X98.425Y-121.285
X98.425Y-128.143
X98.552Y-152.908
X98.659Y-141.904
X98.933Y-130.937
X100.457Y-126.746
X100.457Y-137.668
X100.457Y-148.463
X100.838Y-108.077
X101.727Y-132.969
X101.727Y-143.637
X101.727Y-154.686
X103.632Y-112.649
X103.632Y-114.808
X113.391Y-137.795
X121.559Y-137.795
X124.968Y-153.67
X127.254Y-156.718
X128.778Y-143.764
X129.54Y-145.288
X129.54Y-149.352
X130.048Y-155.194
X131.318Y-137.668
X132.08Y-161.544
X132.842Y-160.782
X133.858Y-133.096
X133.858Y-143.764
X133.858Y-146.05
X135.335Y-123.698
T2
X87.884Y-161.036
X128.27Y-128.016
X134.366Y-160.528
T4
X105.156Y-118.872
X105.156Y-121.412
X105.156Y-123.952
X105.156Y-126.492
X105.156Y-129.032
X105.156Y-131.572
X105.156Y-134.112
X105.156Y-136.652
X105.156Y-139.192
X105.156Y-141.732
X105.156Y-144.272
X105.156Y-146.812
X105.156Y-149.352
X105.156Y-151.892
X107.696Y-118.872
X107.696Y-121.412
X107.696Y-123.952
X108.966Y-154.432
X108.966Y-156.972
X111.506Y-154.432
X111.506Y-156.972
X114.046Y-154.432
X114.046Y-156.972
X116.586Y-154.432
X116.586Y-156.972
X119.126Y-154.432
X119.126Y-156.972
X121.666Y-154.432
X121.666Y-156.972
X122.936Y-118.872
X122.936Y-121.412
X122.936Y-123.952
X122.936Y-126.492
X122.936Y-129.032
X122.936Y-131.572
X125.476Y-118.872
X125.476Y-121.412
X125.476Y-123.952
X125.476Y-126.492
X125.476Y-129.032
X125.476Y-131.572
X125.476Y-134.112
X125.476Y-136.652
X125.476Y-139.192
X125.476Y-141.732
X125.476Y-144.272
X125.476Y-146.812
X125.476Y-149.352
X125.476Y-151.892
T2
X88.789Y-98.318G85X88.789Y-97.618
G05
X97.139Y-98.318G85X97.139Y-97.618
G05
T3
X90.739Y-101.068G85X90.739Y-100.868
G05
X95.189Y-101.068G85X95.189Y-100.868
G05
T0
M30
